<svg width="322" height="485" viewBox="0 0 322 485" fill="none" xmlns="http://www.w3.org/2000/svg">
<rect x="0.743467" y="5.74347" width="320.513" height="478.513" fill="#D9D9D9" fill-opacity="0.33" stroke="black" stroke-width="1.48693"/>
<path d="M10.88 53V30.664H24.96V33H13.568V40.52H24V42.856H13.568V53H10.88ZM29.8755 53V50.856H35.4435V32.808H29.8755V30.664H43.6995V32.808H38.1315V50.856H43.6995V53H29.8755ZM50.215 53V30.664H52.903V50.664H63.495V53H50.215ZM70.8105 30.664V44.072C70.8105 45.16 70.8425 46.1307 70.9065 46.984C70.9705 47.8373 71.1412 48.5733 71.4185 49.192C71.6958 49.7893 72.1225 50.248 72.6985 50.568C73.2958 50.888 74.1172 51.048 75.1625 51.048C76.2078 51.048 77.0185 50.888 77.5945 50.568C78.1918 50.248 78.6292 49.7893 78.9065 49.192C79.1838 48.5733 79.3545 47.8373 79.4185 46.984C79.4825 46.1307 79.5145 45.16 79.5145 44.072V30.664H82.2025V43.432C82.2025 45.096 82.1172 46.5467 81.9465 47.784C81.7972 49.0213 81.4665 50.056 80.9545 50.888C80.4638 51.72 79.7492 52.3493 78.8105 52.776C77.8932 53.1813 76.6772 53.384 75.1625 53.384C73.6478 53.384 72.4212 53.1813 71.4825 52.776C70.5652 52.3493 69.8505 51.72 69.3385 50.888C68.8478 50.056 68.5172 49.0213 68.3465 47.784C68.1972 46.5467 68.1225 45.096 68.1225 43.432V30.664H70.8105ZM99.31 41.8V34.728H99.054L94.35 46.216L89.646 34.728H89.39V41.8V53H86.926V30.664H90.382L94.318 40.52H94.51L98.446 30.664H101.774V53H99.31V41.8ZM105.858 44.456V42.088H121.218V44.456H105.858ZM138.517 53L136.629 46.632H128.789L126.901 53H124.117L130.965 30.664H134.517L141.365 53H138.517ZM132.853 33.512H132.565L129.429 44.296H135.989L132.853 33.512ZM150.953 40.136C152.51 40.136 153.673 39.7947 154.441 39.112C155.23 38.408 155.625 37.512 155.625 36.424V36.2C155.625 35.0053 155.241 34.1093 154.473 33.512C153.726 32.9147 152.745 32.616 151.529 32.616C150.334 32.616 149.363 32.8827 148.617 33.416C147.891 33.928 147.294 34.6107 146.825 35.464L144.809 33.928C145.086 33.48 145.427 33.0427 145.833 32.616C146.238 32.168 146.707 31.7733 147.241 31.432C147.795 31.0907 148.425 30.8133 149.129 30.6C149.854 30.3867 150.675 30.28 151.593 30.28C152.553 30.28 153.449 30.408 154.281 30.664C155.113 30.8987 155.838 31.2613 156.457 31.752C157.075 32.2213 157.555 32.808 157.897 33.512C158.259 34.216 158.441 35.016 158.441 35.912C158.441 36.6373 158.323 37.288 158.089 37.864C157.875 38.44 157.566 38.9413 157.161 39.368C156.777 39.7947 156.318 40.1573 155.785 40.456C155.251 40.7547 154.686 40.9787 154.089 41.128V41.256C154.707 41.384 155.305 41.5973 155.881 41.896C156.457 42.1733 156.969 42.5467 157.417 43.016C157.865 43.464 158.217 44.0187 158.472 44.68C158.75 45.32 158.889 46.056 158.889 46.888C158.889 47.848 158.697 48.7333 158.312 49.544C157.95 50.3333 157.427 51.016 156.745 51.592C156.083 52.1467 155.273 52.584 154.313 52.904C153.374 53.224 152.329 53.384 151.177 53.384C150.195 53.384 149.321 53.2773 148.553 53.064C147.806 52.8507 147.134 52.5627 146.536 52.2C145.961 51.8373 145.449 51.432 145.001 50.984C144.574 50.536 144.19 50.0667 143.849 49.576L145.865 48.04C146.163 48.488 146.473 48.8933 146.793 49.256C147.113 49.6187 147.475 49.9387 147.881 50.216C148.307 50.472 148.787 50.6747 149.321 50.824C149.854 50.9733 150.473 51.048 151.177 51.048C152.755 51.048 153.961 50.6853 154.793 49.96C155.646 49.2347 156.073 48.2 156.073 46.856V46.6C156.073 45.2773 155.657 44.2533 154.825 43.528C154.014 42.8027 152.787 42.44 151.145 42.44H148.489V40.136H150.953ZM14.46 257.24C12.7533 257.24 11.48 256.62 10.64 255.38C9.81333 254.14 9.4 252.353 9.4 250.02C9.4 247.687 9.81333 245.9 10.64 244.66C11.48 243.42 12.7533 242.8 14.46 242.8C15.1 242.8 15.6533 242.887 16.12 243.06C16.5867 243.233 16.9867 243.467 17.32 243.76C17.6533 244.053 17.9333 244.387 18.16 244.76C18.3867 245.12 18.5867 245.487 18.76 245.86L17.32 246.52C17.2 246.213 17.06 245.927 16.9 245.66C16.74 245.38 16.5467 245.14 16.32 244.94C16.1067 244.727 15.8467 244.56 15.54 244.44C15.2467 244.32 14.8867 244.26 14.46 244.26C13.3533 244.26 12.5267 244.68 11.98 245.52C11.4467 246.36 11.18 247.48 11.18 248.88V251.16C11.18 252.56 11.4467 253.68 11.98 254.52C12.5267 255.36 13.3533 255.78 14.46 255.78C14.8867 255.78 15.2467 255.72 15.54 255.6C15.8467 255.48 16.1067 255.32 16.32 255.12C16.5467 254.907 16.74 254.667 16.9 254.4C17.06 254.12 17.2 253.827 17.32 253.52L18.76 254.18C18.5867 254.567 18.3867 254.94 18.16 255.3C17.9333 255.66 17.6533 255.987 17.32 256.28C16.9867 256.573 16.5867 256.807 16.12 256.98C15.6533 257.153 15.1 257.24 14.46 257.24ZM29.3322 246.68H30.9322L25.8122 259.26C25.6922 259.553 25.5589 259.807 25.4122 260.02C25.2655 260.247 25.0922 260.427 24.8922 260.56C24.6922 260.707 24.4522 260.813 24.1722 260.88C23.8922 260.96 23.5589 261 23.1722 261H21.6522V259.64H24.0522L25.2122 256.8L21.0522 246.68H22.6922L24.4322 251L25.9722 254.92H26.0522L27.5922 251L29.3322 246.68ZM33.2044 257L37.0444 251.76L33.3044 246.68H35.2244L36.7844 248.86L38.0244 250.58H38.1044L39.3044 248.86L40.8444 246.68H42.6844L38.9044 251.74L42.7844 257H40.8644L39.1244 254.58L37.9444 252.94H37.8644L36.7244 254.58L35.0444 257H33.2044ZM53.8766 257C53.2499 257 52.8032 256.84 52.5366 256.52C52.2699 256.2 52.1032 255.8 52.0366 255.32H51.9366C51.7099 255.92 51.3432 256.393 50.8366 256.74C50.3432 257.073 49.6766 257.24 48.8366 257.24C47.7566 257.24 46.8966 256.96 46.2566 256.4C45.6166 255.84 45.2966 255.073 45.2966 254.1C45.2966 253.14 45.6432 252.4 46.3366 251.88C47.0432 251.36 48.1766 251.1 49.7366 251.1H51.9366V250.08C51.9366 249.32 51.7232 248.753 51.2966 248.38C50.8699 247.993 50.2632 247.8 49.4766 247.8C48.7832 247.8 48.2166 247.94 47.7766 248.22C47.3366 248.487 46.9832 248.853 46.7166 249.32L45.6366 248.52C45.7699 248.253 45.9499 247.993 46.1766 247.74C46.4032 247.487 46.6832 247.267 47.0166 247.08C47.3499 246.88 47.7299 246.727 48.1566 246.62C48.5832 246.5 49.0566 246.44 49.5766 246.44C50.7899 246.44 51.7499 246.747 52.4566 247.36C53.1766 247.973 53.5366 248.827 53.5366 249.92V255.6H54.9766V257H53.8766ZM49.1166 255.9C49.5299 255.9 49.9032 255.853 50.2366 255.76C50.5832 255.653 50.8832 255.52 51.1366 255.36C51.3899 255.187 51.5832 254.987 51.7166 254.76C51.8632 254.52 51.9366 254.267 51.9366 254V252.3H49.7366C48.7766 252.3 48.0766 252.433 47.6366 252.7C47.1966 252.967 46.9766 253.353 46.9766 253.86V254.28C46.9766 254.813 47.1632 255.22 47.5366 255.5C47.9232 255.767 48.4499 255.9 49.1166 255.9ZM57.3288 255.64H58.4888L59.3888 253.94C59.5488 253.633 59.7221 253.4 59.9088 253.24C60.0954 253.08 60.3221 252.98 60.5888 252.94V252.86C59.7488 252.82 59.0621 252.553 58.5288 252.06C58.0088 251.553 57.7488 250.82 57.7488 249.86C57.7488 248.873 58.0488 248.1 58.6488 247.54C59.2488 246.967 60.0754 246.68 61.1288 246.68H65.7688V257H64.1688V253.02H61.6688L60.2488 255.68C60.0088 256.12 59.7488 256.453 59.4688 256.68C59.2021 256.893 58.8554 257 58.4288 257H57.3288V255.64ZM64.1688 248.04H61.3688C60.7688 248.04 60.2954 248.16 59.9488 248.4C59.6154 248.64 59.4488 249.027 59.4488 249.56V250.18C59.4488 250.713 59.6154 251.1 59.9488 251.34C60.2954 251.58 60.7688 251.7 61.3688 251.7H64.1688V248.04ZM83.8331 255.9C84.2731 255.9 84.6131 255.773 84.8531 255.52C85.0931 255.267 85.2131 254.887 85.2131 254.38V249.3C85.2131 248.793 85.0931 248.413 84.8531 248.16C84.6131 247.907 84.2731 247.78 83.8331 247.78C83.5931 247.78 83.3798 247.827 83.1931 247.92C83.0065 248.013 82.8531 248.18 82.7331 248.42C82.6131 248.66 82.5198 248.987 82.4531 249.4C82.3865 249.8 82.3531 250.313 82.3531 250.94V252.74C82.3531 253.367 82.3865 253.887 82.4531 254.3C82.5198 254.7 82.6131 255.02 82.7331 255.26C82.8531 255.5 83.0065 255.667 83.1931 255.76C83.3798 255.853 83.5931 255.9 83.8331 255.9ZM85.2131 255.94H85.1531C84.9265 256.407 84.6598 256.74 84.3531 256.94C84.0598 257.14 83.7198 257.24 83.3331 257.24C82.9331 257.24 82.5731 257.16 82.2531 257C81.9465 256.827 81.6865 256.533 81.4731 256.12C81.2598 255.707 81.0998 255.153 80.9931 254.46C80.8865 253.767 80.8331 252.893 80.8331 251.84C80.8331 250.787 80.8865 249.913 80.9931 249.22C81.0998 248.527 81.2598 247.973 81.4731 247.56C81.6865 247.147 81.9465 246.86 82.2531 246.7C82.5731 246.527 82.9331 246.44 83.3331 246.44C83.7198 246.44 84.0598 246.54 84.3531 246.74C84.6598 246.94 84.9265 247.273 85.1531 247.74H85.2131V242.8H86.6931V247.74H86.7531C86.9798 247.273 87.2398 246.94 87.5331 246.74C87.8398 246.54 88.1865 246.44 88.5731 246.44C88.9731 246.44 89.3265 246.527 89.6331 246.7C89.9531 246.86 90.2198 247.147 90.4331 247.56C90.6465 247.973 90.8065 248.527 90.9131 249.22C91.0198 249.913 91.0731 250.787 91.0731 251.84C91.0731 252.893 91.0198 253.767 90.9131 254.46C90.8065 255.153 90.6465 255.707 90.4331 256.12C90.2198 256.533 89.9531 256.827 89.6331 257C89.3265 257.16 88.9731 257.24 88.5731 257.24C88.1865 257.24 87.8398 257.14 87.5331 256.94C87.2398 256.74 86.9798 256.407 86.7531 255.94H86.6931V261H85.2131V255.94ZM88.0731 255.9C88.3131 255.9 88.5265 255.853 88.7131 255.76C88.8998 255.667 89.0531 255.5 89.1731 255.26C89.2931 255.02 89.3865 254.7 89.4531 254.3C89.5198 253.887 89.5531 253.367 89.5531 252.74V250.94C89.5531 250.313 89.5198 249.8 89.4531 249.4C89.3865 248.987 89.2931 248.66 89.1731 248.42C89.0531 248.18 88.8998 248.013 88.7131 247.92C88.5265 247.827 88.3131 247.78 88.0731 247.78C87.6331 247.78 87.2931 247.907 87.0531 248.16C86.8131 248.413 86.6931 248.793 86.6931 249.3V254.38C86.6931 254.887 86.8131 255.267 87.0531 255.52C87.2931 255.773 87.6331 255.9 88.0731 255.9ZM93.8453 246.68H95.4453V251.94L95.2853 254.58H95.3653L100.545 246.68H102.045V257H100.445V251.74L100.605 249.1H100.525L95.3453 257H93.8453V246.68ZM104.458 255.64H105.738C105.938 255.387 106.111 255.087 106.258 254.74C106.418 254.393 106.544 253.98 106.638 253.5C106.744 253.02 106.824 252.467 106.877 251.84C106.931 251.2 106.958 250.46 106.958 249.62V246.68H113.818V257H112.218V248.04H108.518V249.66C108.518 251.527 108.378 252.993 108.098 254.06C107.831 255.113 107.471 255.867 107.018 256.32C106.764 256.573 106.484 256.753 106.178 256.86C105.871 256.953 105.504 257 105.078 257H104.458V255.64ZM118.15 246.68H119.75V250.42H122.95C123.99 250.42 124.816 250.713 125.43 251.3C126.043 251.887 126.35 252.693 126.35 253.72C126.35 254.76 126.05 255.567 125.45 256.14C124.85 256.713 124.023 257 122.97 257H118.15V246.68ZM122.73 255.64C123.33 255.64 123.796 255.52 124.13 255.28C124.476 255.04 124.65 254.653 124.65 254.12V253.28C124.65 252.747 124.476 252.367 124.13 252.14C123.796 251.9 123.33 251.78 122.73 251.78H119.75V255.64H122.73ZM133.122 248.04H129.322V246.68H138.522V248.04H134.722V257H133.122V248.04ZM141.814 246.68H143.414V248.36H143.494C144.161 247.08 145.221 246.44 146.674 246.44C147.941 246.44 148.927 246.913 149.634 247.86C150.354 248.807 150.714 250.133 150.714 251.84C150.714 253.547 150.354 254.873 149.634 255.82C148.927 256.767 147.941 257.24 146.674 257.24C145.221 257.24 144.161 256.6 143.494 255.32H143.414V261H141.814V246.68ZM146.054 255.82C146.987 255.82 147.707 255.54 148.214 254.98C148.734 254.407 148.994 253.653 148.994 252.72V250.96C148.994 250.027 148.734 249.28 148.214 248.72C147.707 248.147 146.987 247.86 146.054 247.86C145.694 247.86 145.354 247.907 145.034 248C144.714 248.093 144.434 248.233 144.194 248.42C143.954 248.593 143.761 248.813 143.614 249.08C143.481 249.333 143.414 249.633 143.414 249.98V253.7C143.414 254.047 143.481 254.353 143.614 254.62C143.761 254.873 143.954 255.093 144.194 255.28C144.434 255.453 144.714 255.587 145.034 255.68C145.354 255.773 145.694 255.82 146.054 255.82ZM161.806 257C161.18 257 160.733 256.84 160.466 256.52C160.2 256.2 160.033 255.8 159.966 255.32H159.866C159.64 255.92 159.273 256.393 158.766 256.74C158.273 257.073 157.606 257.24 156.766 257.24C155.686 257.24 154.826 256.96 154.186 256.4C153.546 255.84 153.226 255.073 153.226 254.1C153.226 253.14 153.573 252.4 154.266 251.88C154.973 251.36 156.106 251.1 157.666 251.1H159.866V250.08C159.866 249.32 159.653 248.753 159.226 248.38C158.8 247.993 158.193 247.8 157.406 247.8C156.713 247.8 156.146 247.94 155.706 248.22C155.266 248.487 154.913 248.853 154.646 249.32L153.566 248.52C153.7 248.253 153.88 247.993 154.106 247.74C154.333 247.487 154.613 247.267 154.946 247.08C155.28 246.88 155.66 246.727 156.086 246.62C156.513 246.5 156.986 246.44 157.506 246.44C158.72 246.44 159.68 246.747 160.386 247.36C161.106 247.973 161.466 248.827 161.466 249.92V255.6H162.906V257H161.806ZM157.046 255.9C157.46 255.9 157.833 255.853 158.166 255.76C158.513 255.653 158.813 255.52 159.066 255.36C159.32 255.187 159.513 254.987 159.646 254.76C159.793 254.52 159.866 254.267 159.866 254V252.3H157.666C156.706 252.3 156.006 252.433 155.566 252.7C155.126 252.967 154.906 253.353 154.906 253.86V254.28C154.906 254.813 155.093 255.22 155.466 255.5C155.853 255.767 156.38 255.9 157.046 255.9ZM173.838 257H165.578V246.68H167.178V255.64H171.998V246.68H173.598V255.64H175.298V259.8H173.838V257ZM177.791 246.68H179.391V251.94L179.231 254.58H179.311L184.491 246.68H185.991V257H184.391V251.74L184.551 249.1H184.471L179.291 257H177.791V246.68ZM189.243 255.64H190.403L191.303 253.94C191.463 253.633 191.636 253.4 191.823 253.24C192.009 253.08 192.236 252.98 192.503 252.94V252.86C191.663 252.82 190.976 252.553 190.443 252.06C189.923 251.553 189.663 250.82 189.663 249.86C189.663 248.873 189.963 248.1 190.563 247.54C191.163 246.967 191.989 246.68 193.043 246.68H197.683V257H196.083V253.02H193.583L192.163 255.68C191.923 256.12 191.663 256.453 191.383 256.68C191.116 256.893 190.769 257 190.343 257H189.243V255.64ZM196.083 248.04H193.283C192.683 248.04 192.209 248.16 191.863 248.4C191.529 248.64 191.363 249.027 191.363 249.56V250.18C191.363 250.713 191.529 251.1 191.863 251.34C192.209 251.58 192.683 251.7 193.283 251.7H196.083V248.04ZM17.62 359L16.44 355.02H11.54L10.36 359H8.62L12.9 345.04H15.12L19.4 359H17.62ZM14.08 346.82H13.9L11.94 353.56H16.04L14.08 346.82ZM25.2522 354.34H23.4922L22.1922 359H20.5922L21.7322 354.94C21.9455 354.207 22.3189 353.8 22.8522 353.72V353.64C22.3455 353.52 21.9989 353.127 21.8122 352.46L20.7122 348.68H22.2322L23.4922 353.02H25.2522V348.68H26.7322V353.02H28.4922L29.7722 348.68H31.2722L30.1522 352.46C30.0455 352.807 29.9122 353.073 29.7522 353.26C29.6055 353.447 29.3989 353.573 29.1322 353.64V353.72C29.7055 353.8 30.0855 354.207 30.2722 354.94L31.3922 359H29.7722L28.4922 354.34H26.7322V359H25.2522V354.34ZM41.3244 348.68H42.9244L37.8044 361.26C37.6844 361.553 37.551 361.807 37.4044 362.02C37.2577 362.247 37.0844 362.427 36.8844 362.56C36.6844 362.707 36.4444 362.813 36.1644 362.88C35.8844 362.96 35.551 363 35.1644 363H33.6444V361.64H36.0444L37.2044 358.8L33.0444 348.68H34.6844L36.4244 353L37.9644 356.92H38.0444L39.5844 353L41.3244 348.68ZM45.8766 348.68H47.4766V350.36H47.5566C48.2232 349.08 49.2832 348.44 50.7366 348.44C52.0032 348.44 52.9899 348.913 53.6966 349.86C54.4166 350.807 54.7766 352.133 54.7766 353.84C54.7766 355.547 54.4166 356.873 53.6966 357.82C52.9899 358.767 52.0032 359.24 50.7366 359.24C49.2832 359.24 48.2232 358.6 47.5566 357.32H47.4766V363H45.8766V348.68ZM50.1166 357.82C51.0499 357.82 51.7699 357.54 52.2766 356.98C52.7966 356.407 53.0566 355.653 53.0566 354.72V352.96C53.0566 352.027 52.7966 351.28 52.2766 350.72C51.7699 350.147 51.0499 349.86 50.1166 349.86C49.7566 349.86 49.4166 349.907 49.0966 350C48.7766 350.093 48.4966 350.233 48.2566 350.42C48.0166 350.593 47.8232 350.813 47.6766 351.08C47.5432 351.333 47.4766 351.633 47.4766 351.98V355.7C47.4766 356.047 47.5432 356.353 47.6766 356.62C47.8232 356.873 48.0166 357.093 48.2566 357.28C48.4966 357.453 48.7766 357.587 49.0966 357.68C49.4166 357.773 49.7566 357.82 50.1166 357.82ZM57.8688 348.68H59.4688V353H64.4688V348.68H66.0687V359H64.4688V354.36H59.4688V359H57.8688V348.68ZM69.0409 348.68H70.6409V352.42H72.3809C73.4209 352.42 74.2476 352.713 74.8609 353.3C75.4743 353.887 75.7809 354.693 75.7809 355.72C75.7809 356.76 75.4809 357.567 74.8809 358.14C74.2809 358.713 73.4543 359 72.4009 359H69.0409V348.68ZM72.1609 357.64C72.7609 357.64 73.2276 357.52 73.5609 357.28C73.9076 357.04 74.0809 356.653 74.0809 356.12V355.28C74.0809 354.747 73.9076 354.367 73.5609 354.14C73.2276 353.9 72.7609 353.78 72.1609 353.78H70.6409V357.64H72.1609ZM77.2809 348.68H78.8809V359H77.2809V348.68ZM86.1331 359.24C85.3865 359.24 84.7131 359.113 84.1131 358.86C83.5265 358.607 83.0198 358.247 82.5931 357.78C82.1798 357.3 81.8598 356.733 81.6331 356.08C81.4065 355.413 81.2931 354.673 81.2931 353.86C81.2931 353.033 81.4065 352.287 81.6331 351.62C81.8731 350.953 82.1998 350.387 82.6131 349.92C83.0265 349.44 83.5198 349.073 84.0931 348.82C84.6798 348.567 85.3265 348.44 86.0331 348.44C86.7265 348.44 87.3531 348.567 87.9131 348.82C88.4865 349.073 88.9731 349.427 89.3731 349.88C89.7731 350.32 90.0798 350.847 90.2931 351.46C90.5065 352.073 90.6131 352.747 90.6131 353.48V354.24H82.9731V354.72C82.9731 355.173 83.0465 355.593 83.1931 355.98C83.3398 356.367 83.5465 356.7 83.8131 356.98C84.0931 357.26 84.4265 357.48 84.8131 357.64C85.2131 357.787 85.6531 357.86 86.1331 357.86C86.8265 357.86 87.4265 357.7 87.9331 357.38C88.4398 357.06 88.8265 356.62 89.0931 356.06L90.2731 356.86C89.9665 357.553 89.4531 358.127 88.7331 358.58C88.0265 359.02 87.1598 359.24 86.1331 359.24ZM86.0331 349.76C85.5931 349.76 85.1865 349.84 84.8131 350C84.4398 350.16 84.1131 350.38 83.8331 350.66C83.5665 350.94 83.3531 351.273 83.1931 351.66C83.0465 352.033 82.9731 352.447 82.9731 352.9V353.04H88.8931V352.82C88.8931 352.367 88.8198 351.953 88.6731 351.58C88.5398 351.207 88.3465 350.887 88.0931 350.62C87.8531 350.34 87.5531 350.127 87.1931 349.98C86.8465 349.833 86.4598 349.76 86.0331 349.76ZM104.458 357.64H105.738C105.938 357.387 106.111 357.087 106.258 356.74C106.418 356.393 106.544 355.98 106.638 355.5C106.744 355.02 106.824 354.467 106.877 353.84C106.931 353.2 106.958 352.46 106.958 351.62V348.68H113.818V359H112.218V350.04H108.518V351.66C108.518 353.527 108.378 354.993 108.098 356.06C107.831 357.113 107.471 357.867 107.018 358.32C106.764 358.573 106.484 358.753 106.178 358.86C105.871 358.953 105.504 359 105.078 359H104.458V357.64ZM117.83 348.68H119.43V353.94L119.27 356.58H119.35L124.53 348.68H126.03V359H124.43V353.74L124.59 351.1H124.51L119.33 359H117.83V348.68ZM134.282 359.24C133.535 359.24 132.869 359.113 132.282 358.86C131.709 358.593 131.222 358.227 130.822 357.76C130.422 357.293 130.115 356.727 129.902 356.06C129.702 355.393 129.602 354.653 129.602 353.84C129.602 353.027 129.709 352.287 129.922 351.62C130.135 350.953 130.442 350.387 130.842 349.92C131.242 349.44 131.729 349.073 132.302 348.82C132.875 348.567 133.529 348.44 134.262 348.44C135.262 348.44 136.075 348.66 136.702 349.1C137.329 349.54 137.789 350.113 138.082 350.82L136.802 351.5C136.615 350.967 136.302 350.553 135.862 350.26C135.435 349.967 134.902 349.82 134.262 349.82C133.795 349.82 133.375 349.9 133.002 350.06C132.642 350.207 132.335 350.42 132.082 350.7C131.829 350.98 131.635 351.313 131.502 351.7C131.382 352.087 131.322 352.507 131.322 352.96V354.72C131.322 355.173 131.382 355.593 131.502 355.98C131.635 356.367 131.829 356.7 132.082 356.98C132.335 357.26 132.649 357.48 133.022 357.64C133.395 357.787 133.822 357.86 134.302 357.86C134.995 357.86 135.569 357.7 136.022 357.38C136.475 357.06 136.835 356.62 137.102 356.06L138.242 356.84C137.935 357.533 137.455 358.107 136.802 358.56C136.162 359.013 135.322 359.24 134.282 359.24ZM145.114 350.04H141.314V348.68H150.514V350.04H146.714V359H145.114V350.04ZM154.126 348.68H155.726V352.42H158.926C159.966 352.42 160.793 352.713 161.406 353.3C162.02 353.887 162.326 354.693 162.326 355.72C162.326 356.76 162.026 357.567 161.426 358.14C160.826 358.713 160 359 158.946 359H154.126V348.68ZM158.706 357.64C159.306 357.64 159.773 357.52 160.106 357.28C160.453 357.04 160.626 356.653 160.626 356.12V355.28C160.626 354.747 160.453 354.367 160.106 354.14C159.773 353.9 159.306 353.78 158.706 353.78H155.726V357.64H158.706ZM165.258 357.64H166.418L167.318 355.94C167.478 355.633 167.652 355.4 167.838 355.24C168.025 355.08 168.252 354.98 168.518 354.94V354.86C167.678 354.82 166.992 354.553 166.458 354.06C165.938 353.553 165.678 352.82 165.678 351.86C165.678 350.873 165.978 350.1 166.578 349.54C167.178 348.967 168.005 348.68 169.058 348.68H173.698V359H172.098V355.02H169.598L168.178 357.68C167.938 358.12 167.678 358.453 167.398 358.68C167.132 358.893 166.785 359 166.358 359H165.258V357.64ZM172.098 350.04H169.298C168.698 350.04 168.225 350.16 167.878 350.4C167.545 350.64 167.378 351.027 167.378 351.56V352.18C167.378 352.713 167.545 353.1 167.878 353.34C168.225 353.58 168.698 353.7 169.298 353.7H172.098V350.04ZM181.031 356.28H183.611L181.311 361.82H179.971L181.031 356.28ZM205.875 359.24C205.155 359.24 204.502 359.113 203.915 358.86C203.342 358.607 202.848 358.247 202.435 357.78C202.035 357.3 201.728 356.733 201.515 356.08C201.302 355.413 201.195 354.667 201.195 353.84C201.195 353.027 201.302 352.287 201.515 351.62C201.728 350.953 202.035 350.387 202.435 349.92C202.848 349.44 203.342 349.073 203.915 348.82C204.502 348.567 205.155 348.44 205.875 348.44C206.595 348.44 207.242 348.567 207.815 348.82C208.402 349.073 208.895 349.44 209.295 349.92C209.708 350.387 210.022 350.953 210.235 351.62C210.448 352.287 210.555 353.027 210.555 353.84C210.555 354.667 210.448 355.413 210.235 356.08C210.022 356.733 209.708 357.3 209.295 357.78C208.895 358.247 208.402 358.607 207.815 358.86C207.242 359.113 206.595 359.24 205.875 359.24ZM205.875 357.86C206.768 357.86 207.488 357.593 208.035 357.06C208.582 356.527 208.855 355.7 208.855 354.58V353.1C208.855 351.98 208.582 351.153 208.035 350.62C207.488 350.087 206.768 349.82 205.875 349.82C204.982 349.82 204.262 350.087 203.715 350.62C203.168 351.153 202.895 351.98 202.895 353.1V354.58C202.895 355.7 203.168 356.527 203.715 357.06C204.262 357.593 204.982 357.86 205.875 357.86ZM220.067 354.26H219.967C219.594 354.673 219.167 354.987 218.687 355.2C218.221 355.4 217.621 355.5 216.887 355.5C215.767 355.5 214.914 355.24 214.327 354.72C213.754 354.187 213.467 353.387 213.467 352.32V348.68H215.067V352.18C215.067 352.82 215.247 353.293 215.607 353.6C215.967 353.907 216.554 354.06 217.367 354.06C218.167 354.06 218.814 353.96 219.307 353.76C219.814 353.547 220.067 353.227 220.067 352.8V348.68H221.667V359H220.067V354.26ZM225.759 348.68H227.359V353.94L227.199 356.58H227.279L232.459 348.68H233.959V359H232.359V353.74L232.519 351.1H232.439L227.259 359H225.759V348.68ZM246.452 359H236.932V348.68H238.412V357.68H241.112V348.68H242.592V357.68H245.292V348.68H246.772V357.64H247.852V361.8H246.452V359ZM257.744 359C257.117 359 256.67 358.84 256.404 358.52C256.137 358.2 255.97 357.8 255.904 357.32H255.804C255.577 357.92 255.21 358.393 254.704 358.74C254.21 359.073 253.544 359.24 252.704 359.24C251.624 359.24 250.764 358.96 250.124 358.4C249.484 357.84 249.164 357.073 249.164 356.1C249.164 355.14 249.51 354.4 250.204 353.88C250.91 353.36 252.044 353.1 253.604 353.1H255.804V352.08C255.804 351.32 255.59 350.753 255.164 350.38C254.737 349.993 254.13 349.8 253.344 349.8C252.65 349.8 252.084 349.94 251.644 350.22C251.204 350.487 250.85 350.853 250.584 351.32L249.504 350.52C249.637 350.253 249.817 349.993 250.044 349.74C250.27 349.487 250.55 349.267 250.884 349.08C251.217 348.88 251.597 348.727 252.024 348.62C252.45 348.5 252.924 348.44 253.444 348.44C254.657 348.44 255.617 348.747 256.324 349.36C257.044 349.973 257.404 350.827 257.404 351.92V357.6H258.844V359H257.744ZM252.984 357.9C253.397 357.9 253.77 357.853 254.104 357.76C254.45 357.653 254.75 357.52 255.004 357.36C255.257 357.187 255.45 356.987 255.584 356.76C255.73 356.52 255.804 356.267 255.804 356V354.3H253.604C252.644 354.3 251.944 354.433 251.504 354.7C251.064 354.967 250.844 355.353 250.844 355.86V356.28C250.844 356.813 251.03 357.22 251.404 357.5C251.79 357.767 252.317 357.9 252.984 357.9ZM266.016 359.24C265.269 359.24 264.596 359.113 263.996 358.86C263.409 358.607 262.903 358.247 262.476 357.78C262.063 357.3 261.743 356.733 261.516 356.08C261.289 355.413 261.176 354.673 261.176 353.86C261.176 353.033 261.289 352.287 261.516 351.62C261.756 350.953 262.083 350.387 262.496 349.92C262.909 349.44 263.403 349.073 263.976 348.82C264.563 348.567 265.209 348.44 265.916 348.44C266.609 348.44 267.236 348.567 267.796 348.82C268.369 349.073 268.856 349.427 269.256 349.88C269.656 350.32 269.963 350.847 270.176 351.46C270.389 352.073 270.496 352.747 270.496 353.48V354.24H262.856V354.72C262.856 355.173 262.929 355.593 263.076 355.98C263.223 356.367 263.429 356.7 263.696 356.98C263.976 357.26 264.309 357.48 264.696 357.64C265.096 357.787 265.536 357.86 266.016 357.86C266.709 357.86 267.309 357.7 267.816 357.38C268.323 357.06 268.709 356.62 268.976 356.06L270.156 356.86C269.849 357.553 269.336 358.127 268.616 358.58C267.909 359.02 267.043 359.24 266.016 359.24ZM265.916 349.76C265.476 349.76 265.069 349.84 264.696 350C264.323 350.16 263.996 350.38 263.716 350.66C263.449 350.94 263.236 351.273 263.076 351.66C262.929 352.033 262.856 352.447 262.856 352.9V353.04H268.776V352.82C268.776 352.367 268.703 351.953 268.556 351.58C268.423 351.207 268.229 350.887 267.976 350.62C267.736 350.34 267.436 350.127 267.076 349.98C266.729 349.833 266.343 349.76 265.916 349.76ZM277.028 350.04H273.228V348.68H282.428V350.04H278.628V359H277.028V350.04ZM297.713 348.68H299.313V353.94L299.153 356.58H299.233L304.413 348.68H305.912V359H304.313V353.74L304.473 351.1H304.393L299.213 359H297.713V348.68ZM14 410.24C13.28 410.24 12.6267 410.113 12.04 409.86C11.4667 409.607 10.9733 409.247 10.56 408.78C10.16 408.3 9.85333 407.733 9.64 407.08C9.42667 406.413 9.32 405.667 9.32 404.84C9.32 404.027 9.42667 403.287 9.64 402.62C9.85333 401.953 10.16 401.387 10.56 400.92C10.9733 400.44 11.4667 400.073 12.04 399.82C12.6267 399.567 13.28 399.44 14 399.44C14.72 399.44 15.3667 399.567 15.94 399.82C16.5267 400.073 17.02 400.44 17.42 400.92C17.8333 401.387 18.1467 401.953 18.36 402.62C18.5733 403.287 18.68 404.027 18.68 404.84C18.68 405.667 18.5733 406.413 18.36 407.08C18.1467 407.733 17.8333 408.3 17.42 408.78C17.02 409.247 16.5267 409.607 15.94 409.86C15.3667 410.113 14.72 410.24 14 410.24ZM14 408.86C14.8933 408.86 15.6133 408.593 16.16 408.06C16.7067 407.527 16.98 406.7 16.98 405.58V404.1C16.98 402.98 16.7067 402.153 16.16 401.62C15.6133 401.087 14.8933 400.82 14 400.82C13.1067 400.82 12.3867 401.087 11.84 401.62C11.2933 402.153 11.02 402.98 11.02 404.1V405.58C11.02 406.7 11.2933 407.527 11.84 408.06C12.3867 408.593 13.1067 408.86 14 408.86ZM26.0122 410.24C25.3189 410.24 24.6855 410.113 24.1122 409.86C23.5522 409.607 23.0655 409.22 22.6522 408.7C22.2522 408.18 21.9389 407.527 21.7122 406.74C21.4855 405.94 21.3722 404.993 21.3722 403.9C21.3722 402.38 21.4722 401.087 21.6722 400.02C21.8855 398.953 22.2055 398.073 22.6322 397.38C23.0722 396.687 23.6255 396.173 24.2922 395.84C24.9722 395.507 25.7789 395.307 26.7122 395.24L29.8722 395.04V396.62L26.5522 396.84C25.9789 396.88 25.4855 396.987 25.0722 397.16C24.6722 397.333 24.3322 397.613 24.0522 398C23.7855 398.373 23.5722 398.867 23.4122 399.48C23.2522 400.093 23.1322 400.86 23.0522 401.78H23.1522C23.4322 401.113 23.8255 400.6 24.3322 400.24C24.8389 399.867 25.4722 399.68 26.2322 399.68C26.8855 399.68 27.4855 399.8 28.0322 400.04C28.5789 400.28 29.0455 400.627 29.4322 401.08C29.8189 401.52 30.1189 402.073 30.3322 402.74C30.5589 403.393 30.6722 404.14 30.6722 404.98C30.6722 405.767 30.5589 406.48 30.3322 407.12C30.1055 407.76 29.7855 408.313 29.3722 408.78C28.9589 409.247 28.4655 409.607 27.8922 409.86C27.3322 410.113 26.7055 410.24 26.0122 410.24ZM26.0122 408.86C26.8789 408.86 27.5855 408.593 28.1322 408.06C28.6922 407.513 28.9722 406.72 28.9722 405.68V404.42C28.9722 403.3 28.6989 402.46 28.1522 401.9C27.6189 401.34 26.9189 401.06 26.0522 401.06C25.0389 401.06 24.2855 401.307 23.7922 401.8C23.3122 402.28 23.0722 402.9 23.0722 403.66V405.68C23.0722 406.72 23.3389 407.513 23.8722 408.06C24.4189 408.593 25.1322 408.86 26.0122 408.86ZM32.5044 408.64H33.7844C33.9844 408.387 34.1577 408.087 34.3044 407.74C34.4644 407.393 34.591 406.98 34.6844 406.5C34.791 406.02 34.871 405.467 34.9244 404.84C34.9777 404.2 35.0044 403.46 35.0044 402.62V399.68H41.8644V410H40.2644V401.04H36.5644V402.66C36.5644 404.527 36.4244 405.993 36.1444 407.06C35.8777 408.113 35.5177 408.867 35.0644 409.32C34.811 409.573 34.531 409.753 34.2244 409.86C33.9177 409.953 33.551 410 33.1244 410H32.5044V408.64ZM50.1566 410.24C49.4099 410.24 48.7366 410.113 48.1366 409.86C47.5499 409.607 47.0432 409.247 46.6166 408.78C46.2032 408.3 45.8832 407.733 45.6566 407.08C45.4299 406.413 45.3166 405.673 45.3166 404.86C45.3166 404.033 45.4299 403.287 45.6566 402.62C45.8966 401.953 46.2232 401.387 46.6366 400.92C47.0499 400.44 47.5432 400.073 48.1166 399.82C48.7032 399.567 49.3499 399.44 50.0566 399.44C50.7499 399.44 51.3766 399.567 51.9366 399.82C52.5099 400.073 52.9966 400.427 53.3966 400.88C53.7966 401.32 54.1032 401.847 54.3166 402.46C54.5299 403.073 54.6366 403.747 54.6366 404.48V405.24H46.9966V405.72C46.9966 406.173 47.0699 406.593 47.2166 406.98C47.3632 407.367 47.5699 407.7 47.8366 407.98C48.1166 408.26 48.4499 408.48 48.8366 408.64C49.2366 408.787 49.6766 408.86 50.1566 408.86C50.8499 408.86 51.4499 408.7 51.9566 408.38C52.4632 408.06 52.8499 407.62 53.1166 407.06L54.2966 407.86C53.9899 408.553 53.4766 409.127 52.7566 409.58C52.0499 410.02 51.1832 410.24 50.1566 410.24ZM50.0566 400.76C49.6166 400.76 49.2099 400.84 48.8366 401C48.4632 401.16 48.1366 401.38 47.8566 401.66C47.5899 401.94 47.3766 402.273 47.2166 402.66C47.0699 403.033 46.9966 403.447 46.9966 403.9V404.04H52.9166V403.82C52.9166 403.367 52.8432 402.953 52.6966 402.58C52.5632 402.207 52.3699 401.887 52.1166 401.62C51.8766 401.34 51.5766 401.127 51.2166 400.98C50.8699 400.833 50.4832 400.76 50.0566 400.76ZM58.6688 399.68H66.0687V401.04H60.2688V410H58.6688V399.68ZM76.1609 405.26H76.0609C75.6876 405.673 75.2609 405.987 74.7809 406.2C74.3143 406.4 73.7143 406.5 72.9809 406.5C71.8609 406.5 71.0076 406.24 70.4209 405.72C69.8476 405.187 69.5609 404.387 69.5609 403.32V399.68H71.1609V403.18C71.1609 403.82 71.3409 404.293 71.7009 404.6C72.0609 404.907 72.6476 405.06 73.4609 405.06C74.2609 405.06 74.9076 404.96 75.4009 404.76C75.9076 404.547 76.1609 404.227 76.1609 403.8V399.68H77.7609V410H76.1609V405.26ZM89.8531 410C89.2265 410 88.7798 409.84 88.5131 409.52C88.2465 409.2 88.0798 408.8 88.0131 408.32H87.9131C87.6865 408.92 87.3198 409.393 86.8131 409.74C86.3198 410.073 85.6531 410.24 84.8131 410.24C83.7331 410.24 82.8731 409.96 82.2331 409.4C81.5931 408.84 81.2731 408.073 81.2731 407.1C81.2731 406.14 81.6198 405.4 82.3131 404.88C83.0198 404.36 84.1531 404.1 85.7131 404.1H87.9131V403.08C87.9131 402.32 87.6998 401.753 87.2731 401.38C86.8465 400.993 86.2398 400.8 85.4531 400.8C84.7598 400.8 84.1931 400.94 83.7531 401.22C83.3131 401.487 82.9598 401.853 82.6931 402.32L81.6131 401.52C81.7465 401.253 81.9265 400.993 82.1531 400.74C82.3798 400.487 82.6598 400.267 82.9931 400.08C83.3265 399.88 83.7065 399.727 84.1331 399.62C84.5598 399.5 85.0331 399.44 85.5531 399.44C86.7665 399.44 87.7265 399.747 88.4331 400.36C89.1531 400.973 89.5131 401.827 89.5131 402.92V408.6H90.9531V410H89.8531ZM85.0931 408.9C85.5065 408.9 85.8798 408.853 86.2131 408.76C86.5598 408.653 86.8598 408.52 87.1131 408.36C87.3665 408.187 87.5598 407.987 87.6931 407.76C87.8398 407.52 87.9131 407.267 87.9131 407V405.3H85.7131C84.7531 405.3 84.0531 405.433 83.6131 405.7C83.1731 405.967 82.9531 406.353 82.9531 406.86V407.28C82.9531 407.813 83.1398 408.22 83.5131 408.5C83.8998 408.767 84.4265 408.9 85.0931 408.9ZM98.1253 410.24C97.3786 410.24 96.7053 410.113 96.1053 409.86C95.5186 409.607 95.012 409.247 94.5853 408.78C94.172 408.3 93.852 407.733 93.6253 407.08C93.3986 406.413 93.2853 405.673 93.2853 404.86C93.2853 404.033 93.3986 403.287 93.6253 402.62C93.8653 401.953 94.192 401.387 94.6053 400.92C95.0186 400.44 95.512 400.073 96.0853 399.82C96.672 399.567 97.3186 399.44 98.0253 399.44C98.7186 399.44 99.3453 399.567 99.9053 399.82C100.479 400.073 100.965 400.427 101.365 400.88C101.765 401.32 102.072 401.847 102.285 402.46C102.499 403.073 102.605 403.747 102.605 404.48V405.24H94.9653V405.72C94.9653 406.173 95.0386 406.593 95.1853 406.98C95.332 407.367 95.5386 407.7 95.8053 407.98C96.0853 408.26 96.4186 408.48 96.8053 408.64C97.2053 408.787 97.6453 408.86 98.1253 408.86C98.8186 408.86 99.4186 408.7 99.9253 408.38C100.432 408.06 100.819 407.62 101.085 407.06L102.265 407.86C101.959 408.553 101.445 409.127 100.725 409.58C100.019 410.02 99.152 410.24 98.1253 410.24ZM98.0253 400.76C97.5853 400.76 97.1786 400.84 96.8053 401C96.432 401.16 96.1053 401.38 95.8253 401.66C95.5586 401.94 95.3453 402.273 95.1853 402.66C95.0386 403.033 94.9653 403.447 94.9653 403.9V404.04H100.885V403.82C100.885 403.367 100.812 402.953 100.665 402.58C100.532 402.207 100.339 401.887 100.085 401.62C99.8453 401.34 99.5453 401.127 99.1853 400.98C98.8386 400.833 98.452 400.76 98.0253 400.76ZM109.138 401.04H105.338V399.68H114.538V401.04H110.738V410H109.138V401.04ZM130.062 399.68H135.322C136.162 399.68 136.822 399.92 137.302 400.4C137.782 400.867 138.022 401.5 138.022 402.3C138.022 403.593 137.349 404.32 136.002 404.48V404.56C136.802 404.627 137.395 404.88 137.782 405.32C138.182 405.747 138.382 406.28 138.382 406.92C138.382 407.333 138.315 407.727 138.182 408.1C138.049 408.473 137.855 408.8 137.602 409.08C137.349 409.36 137.035 409.587 136.662 409.76C136.289 409.92 135.862 410 135.382 410H130.062V399.68ZM134.982 408.72C135.529 408.72 135.949 408.587 136.242 408.32C136.535 408.053 136.682 407.687 136.682 407.22V406.76C136.682 406.293 136.535 405.933 136.242 405.68C135.962 405.413 135.582 405.28 135.102 405.28H131.662V408.72H134.982ZM134.902 404.02C135.342 404.02 135.689 403.907 135.942 403.68C136.195 403.453 136.322 403.133 136.322 402.72V402.28C136.322 401.867 136.195 401.547 135.942 401.32C135.689 401.08 135.342 400.96 134.902 400.96H131.662V404.02H134.902ZM145.914 410.24C145.194 410.24 144.541 410.113 143.954 409.86C143.381 409.607 142.887 409.247 142.474 408.78C142.074 408.3 141.767 407.733 141.554 407.08C141.341 406.413 141.234 405.667 141.234 404.84C141.234 404.027 141.341 403.287 141.554 402.62C141.767 401.953 142.074 401.387 142.474 400.92C142.887 400.44 143.381 400.073 143.954 399.82C144.541 399.567 145.194 399.44 145.914 399.44C146.634 399.44 147.281 399.567 147.854 399.82C148.441 400.073 148.934 400.44 149.334 400.92C149.747 401.387 150.061 401.953 150.274 402.62C150.487 403.287 150.594 404.027 150.594 404.84C150.594 405.667 150.487 406.413 150.274 407.08C150.061 407.733 149.747 408.3 149.334 408.78C148.934 409.247 148.441 409.607 147.854 409.86C147.281 410.113 146.634 410.24 145.914 410.24ZM145.914 408.86C146.807 408.86 147.527 408.593 148.074 408.06C148.621 407.527 148.894 406.7 148.894 405.58V404.1C148.894 402.98 148.621 402.153 148.074 401.62C147.527 401.087 146.807 400.82 145.914 400.82C145.021 400.82 144.301 401.087 143.754 401.62C143.207 402.153 142.934 402.98 142.934 404.1V405.58C142.934 406.7 143.207 407.527 143.754 408.06C144.301 408.593 145.021 408.86 145.914 408.86ZM157.486 410.24C156.42 410.24 155.533 410.067 154.826 409.72C154.133 409.373 153.566 408.88 153.126 408.24L154.306 407.28C154.626 407.787 155.046 408.18 155.566 408.46C156.086 408.727 156.726 408.86 157.486 408.86C158.446 408.86 159.14 408.707 159.566 408.4C159.993 408.093 160.206 407.7 160.206 407.22V406.94C160.206 406.42 160.033 406.027 159.686 405.76C159.353 405.48 158.866 405.34 158.226 405.34H155.446V404H158.026C159.333 404 159.986 403.513 159.986 402.54V402.3C159.986 401.86 159.8 401.507 159.426 401.24C159.066 400.96 158.433 400.82 157.526 400.82C156.726 400.82 156.08 400.953 155.586 401.22C155.106 401.487 154.713 401.86 154.406 402.34L153.286 401.58C153.753 400.9 154.32 400.373 154.986 400C155.653 399.627 156.526 399.44 157.606 399.44C158.98 399.44 160 399.687 160.666 400.18C161.346 400.673 161.686 401.353 161.686 402.22C161.686 402.86 161.52 403.367 161.186 403.74C160.853 404.113 160.386 404.373 159.786 404.52V404.6C160.48 404.707 161.006 404.973 161.366 405.4C161.726 405.813 161.906 406.347 161.906 407C161.906 408 161.52 408.793 160.746 409.38C159.986 409.953 158.9 410.24 157.486 410.24ZM164.338 408.64H165.498C165.925 407.96 166.258 407.16 166.498 406.24C166.752 405.307 166.878 404.213 166.878 402.96V399.68H173.538V408.64H175.238V412.8H173.778V410H165.798V412.8H164.338V408.64ZM171.938 408.64V401.04H168.438V403.04C168.438 404.28 168.338 405.347 168.138 406.24C167.938 407.12 167.638 407.92 167.238 408.64H171.938ZM185.231 399.68H186.831L181.711 412.26C181.591 412.553 181.457 412.807 181.311 413.02C181.164 413.247 180.991 413.427 180.791 413.56C180.591 413.707 180.351 413.813 180.071 413.88C179.791 413.96 179.457 414 179.071 414H177.551V412.64H179.951L181.111 409.8L176.951 399.68H178.591L180.331 404L181.871 407.92H181.951L183.491 404L185.231 399.68ZM189.103 410L192.943 404.76L189.203 399.68H191.123L192.683 401.86L193.923 403.58H194.003L195.203 401.86L196.743 399.68H198.583L194.803 404.74L198.683 410H196.763L195.023 407.58L193.843 405.94H193.763L192.623 407.58L190.943 410H189.103Z" fill="#26611D"/>
</svg>
