<svg width="322" height="485" viewBox="0 0 322 485" fill="none" xmlns="http://www.w3.org/2000/svg">
<rect x="0.743467" y="5.74347" width="320.513" height="478.513" fill="#D9D9D9" fill-opacity="0.33" stroke="black" stroke-width="1.48693"/>
<path d="M23.392 53L21.504 46.632H13.664L11.776 53H8.992L15.84 30.664H19.392L26.24 53H23.392ZM17.728 33.512H17.44L14.304 44.296H20.864L17.728 33.512ZM30.0675 53V30.664H43.8275V33H32.7555V40.52H43.4435V42.856H32.7555V50.664H43.8275V53H30.0675ZM51.943 53H49.255V30.664H57.383C59.4523 30.664 61.031 31.2293 62.119 32.36C63.207 33.4907 63.751 35.0693 63.751 37.096C63.751 38.9093 63.2817 40.36 62.343 41.448C61.4043 42.536 60.039 43.1653 58.247 43.336L63.943 53H60.935L55.495 43.464H51.943V53ZM57.319 41.192C58.4497 41.192 59.3243 40.9147 59.943 40.36C60.583 39.784 60.903 38.9733 60.903 37.928V36.264C60.903 35.2187 60.583 34.4187 59.943 33.864C59.3243 33.288 58.4497 33 57.319 33H51.943V41.192H57.319ZM68.2505 53V50.856H73.8185V32.808H68.2505V30.664H82.0745V32.808H76.5065V50.856H82.0745V53H68.2505ZM94.286 53.384C92.2807 53.384 90.638 53.0213 89.358 52.296C88.078 51.5493 87.022 50.6 86.19 49.448L88.142 47.848C89.0167 48.936 89.934 49.7467 90.894 50.28C91.8753 50.8133 93.038 51.08 94.382 51.08C96.0033 51.08 97.2407 50.7067 98.094 49.96C98.9473 49.2133 99.374 48.168 99.374 46.824C99.374 45.736 99.0647 44.8933 98.446 44.296C97.8273 43.6773 96.75 43.24 95.214 42.984L92.718 42.568C91.63 42.376 90.7127 42.088 89.966 41.704C89.2407 41.32 88.654 40.8613 88.206 40.328C87.758 39.7733 87.438 39.176 87.246 38.536C87.054 37.8747 86.958 37.192 86.958 36.488C86.958 34.44 87.63 32.8933 88.974 31.848C90.318 30.8027 92.1313 30.28 94.414 30.28C96.206 30.28 97.71 30.5787 98.926 31.176C100.163 31.7733 101.155 32.616 101.902 33.704L100.014 35.336C99.3953 34.5253 98.6487 33.864 97.774 33.352C96.8993 32.84 95.7687 32.584 94.382 32.584C92.8673 32.584 91.7047 32.904 90.894 33.544C90.0833 34.184 89.678 35.144 89.678 36.424C89.678 37.4267 89.9767 38.248 90.574 38.888C91.1927 39.5067 92.2913 39.9547 93.87 40.232L96.27 40.648C97.358 40.84 98.2753 41.128 99.022 41.512C99.7687 41.896 100.366 42.3547 100.814 42.888C101.283 43.4213 101.614 44.0187 101.806 44.68C101.998 45.3413 102.094 46.0347 102.094 46.76C102.094 48.8293 101.411 50.4507 100.046 51.624C98.702 52.7973 96.782 53.384 94.286 53.384ZM105.858 44.456V42.088H121.218V44.456H105.858ZM126.965 53V30.664H129.653V50.664H140.245V53H126.965ZM145.033 53V50.664H151.433V32.648H151.209L145.577 37.896L144.009 36.2L149.929 30.664H154.121V50.664H160.009V53H145.033ZM19.5 257H17.6L15.94 254.22L14.1 251.18H14.02L12.12 254.22L10.36 257H8.52L13.08 249.88L8.78 243.04H10.68L12.3 245.74L14.04 248.56H14.12L15.84 245.74L17.52 243.04H19.36L15.04 249.86L19.5 257ZM25.9922 257.24C25.2722 257.24 24.6189 257.113 24.0322 256.86C23.4589 256.607 22.9655 256.247 22.5522 255.78C22.1522 255.3 21.8455 254.733 21.6322 254.08C21.4189 253.413 21.3122 252.667 21.3122 251.84C21.3122 251.027 21.4189 250.287 21.6322 249.62C21.8455 248.953 22.1522 248.387 22.5522 247.92C22.9655 247.44 23.4589 247.073 24.0322 246.82C24.6189 246.567 25.2722 246.44 25.9922 246.44C26.7122 246.44 27.3589 246.567 27.9322 246.82C28.5189 247.073 29.0122 247.44 29.4122 247.92C29.8255 248.387 30.1389 248.953 30.3522 249.62C30.5655 250.287 30.6722 251.027 30.6722 251.84C30.6722 252.667 30.5655 253.413 30.3522 254.08C30.1389 254.733 29.8255 255.3 29.4122 255.78C29.0122 256.247 28.5189 256.607 27.9322 256.86C27.3589 257.113 26.7122 257.24 25.9922 257.24ZM25.9922 255.86C26.8855 255.86 27.6055 255.593 28.1522 255.06C28.6989 254.527 28.9722 253.7 28.9722 252.58V251.1C28.9722 249.98 28.6989 249.153 28.1522 248.62C27.6055 248.087 26.8855 247.82 25.9922 247.82C25.0989 247.82 24.3789 248.087 23.8322 248.62C23.2855 249.153 23.0122 249.98 23.0122 251.1V252.58C23.0122 253.7 23.2855 254.527 23.8322 255.06C24.3789 255.593 25.0989 255.86 25.9922 255.86ZM32.5044 255.64H33.7844C33.9844 255.387 34.1577 255.087 34.3044 254.74C34.4644 254.393 34.591 253.98 34.6844 253.5C34.791 253.02 34.871 252.467 34.9244 251.84C34.9777 251.2 35.0044 250.46 35.0044 249.62V246.68H41.8644V257H40.2644V248.04H36.5644V249.66C36.5644 251.527 36.4244 252.993 36.1444 254.06C35.8777 255.113 35.5177 255.867 35.0644 256.32C34.811 256.573 34.531 256.753 34.2244 256.86C33.9177 256.953 33.551 257 33.1244 257H32.5044V255.64ZM49.9766 257.24C49.2566 257.24 48.6032 257.113 48.0166 256.86C47.4432 256.607 46.9499 256.247 46.5366 255.78C46.1366 255.3 45.8299 254.733 45.6166 254.08C45.4032 253.413 45.2966 252.667 45.2966 251.84C45.2966 251.027 45.4032 250.287 45.6166 249.62C45.8299 248.953 46.1366 248.387 46.5366 247.92C46.9499 247.44 47.4432 247.073 48.0166 246.82C48.6032 246.567 49.2566 246.44 49.9766 246.44C50.6966 246.44 51.3432 246.567 51.9166 246.82C52.5032 247.073 52.9966 247.44 53.3966 247.92C53.8099 248.387 54.1232 248.953 54.3366 249.62C54.5499 250.287 54.6566 251.027 54.6566 251.84C54.6566 252.667 54.5499 253.413 54.3366 254.08C54.1232 254.733 53.8099 255.3 53.3966 255.78C52.9966 256.247 52.5032 256.607 51.9166 256.86C51.3432 257.113 50.6966 257.24 49.9766 257.24ZM49.9766 255.86C50.8699 255.86 51.5899 255.593 52.1366 255.06C52.6832 254.527 52.9566 253.7 52.9566 252.58V251.1C52.9566 249.98 52.6832 249.153 52.1366 248.62C51.5899 248.087 50.8699 247.82 49.9766 247.82C49.0832 247.82 48.3632 248.087 47.8166 248.62C47.2699 249.153 46.9966 249.98 46.9966 251.1V252.58C46.9966 253.7 47.2699 254.527 47.8166 255.06C48.3632 255.593 49.0832 255.86 49.9766 255.86ZM56.4088 255.64H57.5688C57.9954 254.96 58.3288 254.16 58.5688 253.24C58.8221 252.307 58.9488 251.213 58.9488 249.96V246.68H65.6088V255.64H67.3088V259.8H65.8488V257H57.8688V259.8H56.4088V255.64ZM64.0088 255.64V248.04H60.5088V250.04C60.5088 251.28 60.4088 252.347 60.2088 253.24C60.0088 254.12 59.7088 254.92 59.3088 255.64H64.0088ZM69.8609 246.68H71.4609V251H76.4609V246.68H78.0609V257H76.4609V252.36H71.4609V257H69.8609V246.68ZM89.8531 257C89.2265 257 88.7798 256.84 88.5131 256.52C88.2465 256.2 88.0798 255.8 88.0131 255.32H87.9131C87.6865 255.92 87.3198 256.393 86.8131 256.74C86.3198 257.073 85.6531 257.24 84.8131 257.24C83.7331 257.24 82.8731 256.96 82.2331 256.4C81.5931 255.84 81.2731 255.073 81.2731 254.1C81.2731 253.14 81.6198 252.4 82.3131 251.88C83.0198 251.36 84.1531 251.1 85.7131 251.1H87.9131V250.08C87.9131 249.32 87.6998 248.753 87.2731 248.38C86.8465 247.993 86.2398 247.8 85.4531 247.8C84.7598 247.8 84.1931 247.94 83.7531 248.22C83.3131 248.487 82.9598 248.853 82.6931 249.32L81.6131 248.52C81.7465 248.253 81.9265 247.993 82.1531 247.74C82.3798 247.487 82.6598 247.267 82.9931 247.08C83.3265 246.88 83.7065 246.727 84.1331 246.62C84.5598 246.5 85.0331 246.44 85.5531 246.44C86.7665 246.44 87.7265 246.747 88.4331 247.36C89.1531 247.973 89.5131 248.827 89.5131 249.92V255.6H90.9531V257H89.8531ZM85.0931 255.9C85.5065 255.9 85.8798 255.853 86.2131 255.76C86.5598 255.653 86.8598 255.52 87.1131 255.36C87.3665 255.187 87.5598 254.987 87.6931 254.76C87.8398 254.52 87.9131 254.267 87.9131 254V252.3H85.7131C84.7531 252.3 84.0531 252.433 83.6131 252.7C83.1731 252.967 82.9531 253.353 82.9531 253.86V254.28C82.9531 254.813 83.1398 255.22 83.5131 255.5C83.8998 255.767 84.4265 255.9 85.0931 255.9ZM93.3053 255.64H94.4653L95.3653 253.94C95.5253 253.633 95.6986 253.4 95.8853 253.24C96.072 253.08 96.2986 252.98 96.5653 252.94V252.86C95.7253 252.82 95.0386 252.553 94.5053 252.06C93.9853 251.553 93.7253 250.82 93.7253 249.86C93.7253 248.873 94.0253 248.1 94.6253 247.54C95.2253 246.967 96.052 246.68 97.1053 246.68H101.745V257H100.145V253.02H97.6453L96.2253 255.68C95.9853 256.12 95.7253 256.453 95.4453 256.68C95.1786 256.893 94.832 257 94.4053 257H93.3053V255.64ZM100.145 248.04H97.3453C96.7453 248.04 96.272 248.16 95.9253 248.4C95.592 248.64 95.4253 249.027 95.4253 249.56V250.18C95.4253 250.713 95.592 251.1 95.9253 251.34C96.272 251.58 96.7453 251.7 97.3453 251.7H100.145V248.04ZM122.29 257.24C121.543 257.24 120.876 257.113 120.29 256.86C119.716 256.593 119.23 256.227 118.83 255.76C118.43 255.293 118.123 254.727 117.91 254.06C117.71 253.393 117.61 252.653 117.61 251.84C117.61 251.027 117.716 250.287 117.93 249.62C118.143 248.953 118.45 248.387 118.85 247.92C119.25 247.44 119.736 247.073 120.31 246.82C120.883 246.567 121.536 246.44 122.27 246.44C123.27 246.44 124.083 246.66 124.71 247.1C125.336 247.54 125.796 248.113 126.09 248.82L124.81 249.5C124.623 248.967 124.31 248.553 123.87 248.26C123.443 247.967 122.91 247.82 122.27 247.82C121.803 247.82 121.383 247.9 121.01 248.06C120.65 248.207 120.343 248.42 120.09 248.7C119.836 248.98 119.643 249.313 119.51 249.7C119.39 250.087 119.33 250.507 119.33 250.96V252.72C119.33 253.173 119.39 253.593 119.51 253.98C119.643 254.367 119.836 254.7 120.09 254.98C120.343 255.26 120.656 255.48 121.03 255.64C121.403 255.787 121.83 255.86 122.31 255.86C123.003 255.86 123.576 255.7 124.03 255.38C124.483 255.06 124.843 254.62 125.11 254.06L126.25 254.84C125.943 255.533 125.463 256.107 124.81 256.56C124.17 257.013 123.33 257.24 122.29 257.24ZM133.122 248.04H129.322V246.68H138.522V248.04H134.722V257H133.122V248.04ZM149.814 257C149.187 257 148.741 256.84 148.474 256.52C148.207 256.2 148.041 255.8 147.974 255.32H147.874C147.647 255.92 147.281 256.393 146.774 256.74C146.281 257.073 145.614 257.24 144.774 257.24C143.694 257.24 142.834 256.96 142.194 256.4C141.554 255.84 141.234 255.073 141.234 254.1C141.234 253.14 141.581 252.4 142.274 251.88C142.981 251.36 144.114 251.1 145.674 251.1H147.874V250.08C147.874 249.32 147.661 248.753 147.234 248.38C146.807 247.993 146.201 247.8 145.414 247.8C144.721 247.8 144.154 247.94 143.714 248.22C143.274 248.487 142.921 248.853 142.654 249.32L141.574 248.52C141.707 248.253 141.887 247.993 142.114 247.74C142.341 247.487 142.621 247.267 142.954 247.08C143.287 246.88 143.667 246.727 144.094 246.62C144.521 246.5 144.994 246.44 145.514 246.44C146.727 246.44 147.687 246.747 148.394 247.36C149.114 247.973 149.474 248.827 149.474 249.92V255.6H150.914V257H149.814ZM145.054 255.9C145.467 255.9 145.841 255.853 146.174 255.76C146.521 255.653 146.821 255.52 147.074 255.36C147.327 255.187 147.521 254.987 147.654 254.76C147.801 254.52 147.874 254.267 147.874 254V252.3H145.674C144.714 252.3 144.014 252.433 143.574 252.7C143.134 252.967 142.914 253.353 142.914 253.86V254.28C142.914 254.813 143.101 255.22 143.474 255.5C143.861 255.767 144.387 255.9 145.054 255.9ZM157.926 257.24C157.233 257.24 156.6 257.113 156.026 256.86C155.466 256.607 154.98 256.22 154.566 255.7C154.166 255.18 153.853 254.527 153.626 253.74C153.4 252.94 153.286 251.993 153.286 250.9C153.286 249.38 153.386 248.087 153.586 247.02C153.8 245.953 154.12 245.073 154.546 244.38C154.986 243.687 155.54 243.173 156.206 242.84C156.886 242.507 157.693 242.307 158.626 242.24L161.786 242.04V243.62L158.466 243.84C157.893 243.88 157.4 243.987 156.986 244.16C156.586 244.333 156.246 244.613 155.966 245C155.7 245.373 155.486 245.867 155.326 246.48C155.166 247.093 155.046 247.86 154.966 248.78H155.066C155.346 248.113 155.74 247.6 156.246 247.24C156.753 246.867 157.386 246.68 158.146 246.68C158.8 246.68 159.4 246.8 159.946 247.04C160.493 247.28 160.96 247.627 161.346 248.08C161.733 248.52 162.033 249.073 162.246 249.74C162.473 250.393 162.586 251.14 162.586 251.98C162.586 252.767 162.473 253.48 162.246 254.12C162.02 254.76 161.7 255.313 161.286 255.78C160.873 256.247 160.38 256.607 159.806 256.86C159.246 257.113 158.62 257.24 157.926 257.24ZM157.926 255.86C158.793 255.86 159.5 255.593 160.046 255.06C160.606 254.513 160.886 253.72 160.886 252.68V251.42C160.886 250.3 160.613 249.46 160.066 248.9C159.533 248.34 158.833 248.06 157.966 248.06C156.953 248.06 156.2 248.307 155.706 248.8C155.226 249.28 154.986 249.9 154.986 250.66V252.68C154.986 253.72 155.253 254.513 155.786 255.06C156.333 255.593 157.046 255.86 157.926 255.86ZM165.798 246.68H167.398V251.94L167.238 254.58H167.318L172.498 246.68H173.998V257H172.398V251.74L172.558 249.1H172.478L167.298 257H165.798V246.68ZM176.411 255.64H177.691C177.891 255.387 178.064 255.087 178.211 254.74C178.371 254.393 178.497 253.98 178.591 253.5C178.697 253.02 178.777 252.467 178.831 251.84C178.884 251.2 178.911 250.46 178.911 249.62V246.68H185.771V257H184.171V248.04H180.471V249.66C180.471 251.527 180.331 252.993 180.051 254.06C179.784 255.113 179.424 255.867 178.971 256.32C178.717 256.573 178.437 256.753 178.131 256.86C177.824 256.953 177.457 257 177.031 257H176.411V255.64ZM189.783 246.68H191.383V251.94L191.223 254.58H191.303L196.483 246.68H197.983V257H196.383V251.74L196.543 249.1H196.463L191.283 257H189.783V246.68ZM205.455 257.24C204.388 257.24 203.502 257.067 202.795 256.72C202.102 256.373 201.535 255.88 201.095 255.24L202.275 254.28C202.595 254.787 203.015 255.18 203.535 255.46C204.055 255.727 204.695 255.86 205.455 255.86C206.415 255.86 207.108 255.707 207.535 255.4C207.962 255.093 208.175 254.7 208.175 254.22V253.94C208.175 253.42 208.002 253.027 207.655 252.76C207.322 252.48 206.835 252.34 206.195 252.34H203.415V251H205.995C207.302 251 207.955 250.513 207.955 249.54V249.3C207.955 248.86 207.768 248.507 207.395 248.24C207.035 247.96 206.402 247.82 205.495 247.82C204.695 247.82 204.048 247.953 203.555 248.22C203.075 248.487 202.682 248.86 202.375 249.34L201.255 248.58C201.722 247.9 202.288 247.373 202.955 247C203.622 246.627 204.495 246.44 205.575 246.44C206.948 246.44 207.968 246.687 208.635 247.18C209.315 247.673 209.655 248.353 209.655 249.22C209.655 249.86 209.488 250.367 209.155 250.74C208.822 251.113 208.355 251.373 207.755 251.52V251.6C208.448 251.707 208.975 251.973 209.335 252.4C209.695 252.813 209.875 253.347 209.875 254C209.875 255 209.488 255.793 208.715 256.38C207.955 256.953 206.868 257.24 205.455 257.24ZM221.767 257C221.141 257 220.694 256.84 220.427 256.52C220.161 256.2 219.994 255.8 219.927 255.32H219.827C219.601 255.92 219.234 256.393 218.727 256.74C218.234 257.073 217.567 257.24 216.727 257.24C215.647 257.24 214.787 256.96 214.147 256.4C213.507 255.84 213.187 255.073 213.187 254.1C213.187 253.14 213.534 252.4 214.227 251.88C214.934 251.36 216.067 251.1 217.627 251.1H219.827V250.08C219.827 249.32 219.614 248.753 219.187 248.38C218.761 247.993 218.154 247.8 217.367 247.8C216.674 247.8 216.107 247.94 215.667 248.22C215.227 248.487 214.874 248.853 214.607 249.32L213.527 248.52C213.661 248.253 213.841 247.993 214.067 247.74C214.294 247.487 214.574 247.267 214.907 247.08C215.241 246.88 215.621 246.727 216.047 246.62C216.474 246.5 216.947 246.44 217.467 246.44C218.681 246.44 219.641 246.747 220.347 247.36C221.067 247.973 221.427 248.827 221.427 249.92V255.6H222.867V257H221.767ZM217.007 255.9C217.421 255.9 217.794 255.853 218.127 255.76C218.474 255.653 218.774 255.52 219.027 255.36C219.281 255.187 219.474 254.987 219.607 254.76C219.754 254.52 219.827 254.267 219.827 254V252.3H217.627C216.667 252.3 215.967 252.433 215.527 252.7C215.087 252.967 214.867 253.353 214.867 253.86V254.28C214.867 254.813 215.054 255.22 215.427 255.5C215.814 255.767 216.341 255.9 217.007 255.9ZM233.799 257H225.539V246.68H227.139V255.64H231.959V246.68H233.559V255.64H235.259V259.8H233.799V257ZM237.752 246.68H239.352V251.94L239.192 254.58H239.272L244.452 246.68H245.952V257H244.352V251.74L244.512 249.1H244.432L239.252 257H237.752V246.68ZM249.204 255.64H250.364L251.264 253.94C251.424 253.633 251.597 253.4 251.784 253.24C251.97 253.08 252.197 252.98 252.464 252.94V252.86C251.624 252.82 250.937 252.553 250.404 252.06C249.884 251.553 249.624 250.82 249.624 249.86C249.624 248.873 249.924 248.1 250.524 247.54C251.124 246.967 251.95 246.68 253.004 246.68H257.644V257H256.044V253.02H253.544L252.124 255.68C251.884 256.12 251.624 256.453 251.344 256.68C251.077 256.893 250.73 257 250.304 257H249.204V255.64ZM256.044 248.04H253.244C252.644 248.04 252.17 248.16 251.824 248.4C251.49 248.64 251.324 249.027 251.324 249.56V250.18C251.324 250.713 251.49 251.1 251.824 251.34C252.17 251.58 252.644 251.7 253.244 251.7H256.044V248.04ZM16.74 346.5H12.82V349.02C12.82 350.46 12.7733 351.693 12.68 352.72C12.6 353.747 12.48 354.613 12.32 355.32C12.16 356.027 11.96 356.607 11.72 357.06C11.48 357.513 11.2067 357.893 10.9 358.2C10.62 358.48 10.3067 358.687 9.96 358.82C9.61333 358.94 9.2 359 8.72 359H8.1V357.54H9.44C9.74667 357.247 10.0067 356.893 10.22 356.48C10.4467 356.053 10.6267 355.513 10.76 354.86C10.9067 354.193 11.0133 353.38 11.08 352.42C11.1467 351.46 11.18 350.287 11.18 348.9V345.04H18.42V359H16.74V346.5ZM26.1722 359.24C25.4255 359.24 24.7522 359.113 24.1522 358.86C23.5655 358.607 23.0589 358.247 22.6322 357.78C22.2189 357.3 21.8989 356.733 21.6722 356.08C21.4455 355.413 21.3322 354.673 21.3322 353.86C21.3322 353.033 21.4455 352.287 21.6722 351.62C21.9122 350.953 22.2389 350.387 22.6522 349.92C23.0655 349.44 23.5589 349.073 24.1322 348.82C24.7189 348.567 25.3655 348.44 26.0722 348.44C26.7655 348.44 27.3922 348.567 27.9522 348.82C28.5255 349.073 29.0122 349.427 29.4122 349.88C29.8122 350.32 30.1189 350.847 30.3322 351.46C30.5455 352.073 30.6522 352.747 30.6522 353.48V354.24H23.0122V354.72C23.0122 355.173 23.0855 355.593 23.2322 355.98C23.3789 356.367 23.5855 356.7 23.8522 356.98C24.1322 357.26 24.4655 357.48 24.8522 357.64C25.2522 357.787 25.6922 357.86 26.1722 357.86C26.8655 357.86 27.4655 357.7 27.9722 357.38C28.4789 357.06 28.8655 356.62 29.1322 356.06L30.3122 356.86C30.0055 357.553 29.4922 358.127 28.7722 358.58C28.0655 359.02 27.1989 359.24 26.1722 359.24ZM26.0722 349.76C25.6322 349.76 25.2255 349.84 24.8522 350C24.4789 350.16 24.1522 350.38 23.8722 350.66C23.6055 350.94 23.3922 351.273 23.2322 351.66C23.0855 352.033 23.0122 352.447 23.0122 352.9V353.04H28.9322V352.82C28.9322 352.367 28.8589 351.953 28.7122 351.58C28.5789 351.207 28.3855 350.887 28.1322 350.62C27.8922 350.34 27.5922 350.127 27.2322 349.98C26.8855 349.833 26.4989 349.76 26.0722 349.76ZM24.1722 346.64C23.7589 346.64 23.4655 346.553 23.2922 346.38C23.1189 346.207 23.0322 345.987 23.0322 345.72V345.44C23.0322 345.173 23.1189 344.953 23.2922 344.78C23.4655 344.607 23.7589 344.52 24.1722 344.52C24.5855 344.52 24.8789 344.607 25.0522 344.78C25.2255 344.953 25.3122 345.173 25.3122 345.44V345.72C25.3122 345.987 25.2255 346.207 25.0522 346.38C24.8789 346.553 24.5855 346.64 24.1722 346.64ZM27.8922 346.64C27.4789 346.64 27.1855 346.553 27.0122 346.38C26.8389 346.207 26.7522 345.987 26.7522 345.72V345.44C26.7522 345.173 26.8389 344.953 27.0122 344.78C27.1855 344.607 27.4789 344.52 27.8922 344.52C28.3055 344.52 28.5989 344.607 28.7722 344.78C28.9455 344.953 29.0322 345.173 29.0322 345.44V345.72C29.0322 345.987 28.9455 346.207 28.7722 346.38C28.5989 346.553 28.3055 346.64 27.8922 346.64ZM34.6844 348.68H42.0844V350.04H36.2844V359H34.6844V348.68ZM46.1166 348.68H47.7166V353H49.9166L52.6966 348.68H54.3566L51.8366 352.6C51.6099 352.947 51.4099 353.193 51.2366 353.34C51.0632 353.473 50.8566 353.573 50.6166 353.64V353.72C50.8832 353.76 51.1099 353.853 51.2966 354C51.4832 354.133 51.6766 354.373 51.8766 354.72L53.5566 357.64H54.7166V359H53.5566C53.2099 359 52.9099 358.907 52.6566 358.72C52.4032 358.533 52.1499 358.227 51.8966 357.8L49.9166 354.36H47.7166V359H46.1166V348.68ZM65.8688 359C65.2421 359 64.7954 358.84 64.5288 358.52C64.2621 358.2 64.0954 357.8 64.0288 357.32H63.9288C63.7021 357.92 63.3354 358.393 62.8288 358.74C62.3354 359.073 61.6688 359.24 60.8288 359.24C59.7488 359.24 58.8888 358.96 58.2488 358.4C57.6088 357.84 57.2887 357.073 57.2887 356.1C57.2887 355.14 57.6354 354.4 58.3288 353.88C59.0354 353.36 60.1688 353.1 61.7288 353.1H63.9288V352.08C63.9288 351.32 63.7154 350.753 63.2888 350.38C62.8621 349.993 62.2554 349.8 61.4688 349.8C60.7754 349.8 60.2088 349.94 59.7688 350.22C59.3288 350.487 58.9754 350.853 58.7088 351.32L57.6288 350.52C57.7621 350.253 57.9421 349.993 58.1688 349.74C58.3954 349.487 58.6754 349.267 59.0088 349.08C59.3421 348.88 59.7221 348.727 60.1488 348.62C60.5754 348.5 61.0488 348.44 61.5688 348.44C62.7821 348.44 63.7421 348.747 64.4488 349.36C65.1688 349.973 65.5288 350.827 65.5288 351.92V357.6H66.9688V359H65.8688ZM61.1087 357.9C61.5221 357.9 61.8954 357.853 62.2288 357.76C62.5754 357.653 62.8754 357.52 63.1288 357.36C63.3821 357.187 63.5754 356.987 63.7088 356.76C63.8554 356.52 63.9288 356.267 63.9288 356V354.3H61.7288C60.7688 354.3 60.0688 354.433 59.6288 354.7C59.1888 354.967 58.9688 355.353 58.9688 355.86V356.28C58.9688 356.813 59.1554 357.22 59.5288 357.5C59.9154 357.767 60.4421 357.9 61.1087 357.9ZM69.3209 357.64H70.4809L71.3809 355.94C71.5409 355.633 71.7143 355.4 71.9009 355.24C72.0876 355.08 72.3143 354.98 72.5809 354.94V354.86C71.7409 354.82 71.0543 354.553 70.5209 354.06C70.0009 353.553 69.7409 352.82 69.7409 351.86C69.7409 350.873 70.0409 350.1 70.6409 349.54C71.2409 348.967 72.0676 348.68 73.1209 348.68H77.7609V359H76.1609V355.02H73.6609L72.2409 357.68C72.0009 358.12 71.7409 358.453 71.4609 358.68C71.1943 358.893 70.8476 359 70.4209 359H69.3209V357.64ZM76.1609 350.04H73.3609C72.7609 350.04 72.2876 350.16 71.9409 350.4C71.6076 350.64 71.4409 351.027 71.4409 351.56V352.18C71.4409 352.713 71.6076 353.1 71.9409 353.34C72.2876 353.58 72.7609 353.7 73.3609 353.7H76.1609V350.04ZM98.3053 359.24C97.5586 359.24 96.892 359.113 96.3053 358.86C95.732 358.593 95.2453 358.227 94.8453 357.76C94.4453 357.293 94.1386 356.727 93.9253 356.06C93.7253 355.393 93.6253 354.653 93.6253 353.84C93.6253 353.027 93.732 352.287 93.9453 351.62C94.1586 350.953 94.4653 350.387 94.8653 349.92C95.2653 349.44 95.752 349.073 96.3253 348.82C96.8986 348.567 97.552 348.44 98.2853 348.44C99.2853 348.44 100.099 348.66 100.725 349.1C101.352 349.54 101.812 350.113 102.105 350.82L100.825 351.5C100.639 350.967 100.325 350.553 99.8853 350.26C99.4586 349.967 98.9253 349.82 98.2853 349.82C97.8186 349.82 97.3986 349.9 97.0253 350.06C96.6653 350.207 96.3586 350.42 96.1053 350.7C95.852 350.98 95.6586 351.313 95.5253 351.7C95.4053 352.087 95.3453 352.507 95.3453 352.96V354.72C95.3453 355.173 95.4053 355.593 95.5253 355.98C95.6586 356.367 95.852 356.7 96.1053 356.98C96.3586 357.26 96.672 357.48 97.0453 357.64C97.4186 357.787 97.8453 357.86 98.3253 357.86C99.0186 357.86 99.592 357.7 100.045 357.38C100.499 357.06 100.859 356.62 101.125 356.06L102.265 356.84C101.959 357.533 101.479 358.107 100.825 358.56C100.185 359.013 99.3453 359.24 98.3053 359.24ZM109.138 350.04H105.338V348.68H114.538V350.04H110.738V359H109.138V350.04ZM117.83 348.68H119.43V350.36H119.51C120.176 349.08 121.236 348.44 122.69 348.44C123.956 348.44 124.943 348.913 125.65 349.86C126.37 350.807 126.73 352.133 126.73 353.84C126.73 355.547 126.37 356.873 125.65 357.82C124.943 358.767 123.956 359.24 122.69 359.24C121.236 359.24 120.176 358.6 119.51 357.32H119.43V363H117.83V348.68ZM122.07 357.82C123.003 357.82 123.723 357.54 124.23 356.98C124.75 356.407 125.01 355.653 125.01 354.72V352.96C125.01 352.027 124.75 351.28 124.23 350.72C123.723 350.147 123.003 349.86 122.07 349.86C121.71 349.86 121.37 349.907 121.05 350C120.73 350.093 120.45 350.233 120.21 350.42C119.97 350.593 119.776 350.813 119.63 351.08C119.496 351.333 119.43 351.633 119.43 351.98V355.7C119.43 356.047 119.496 356.353 119.63 356.62C119.776 356.873 119.97 357.093 120.21 357.28C120.45 357.453 120.73 357.587 121.05 357.68C121.37 357.773 121.71 357.82 122.07 357.82ZM137.262 348.68H138.862L133.742 361.26C133.622 361.553 133.489 361.807 133.342 362.02C133.195 362.247 133.022 362.427 132.822 362.56C132.622 362.707 132.382 362.813 132.102 362.88C131.822 362.96 131.489 363 131.102 363H129.582V361.64H131.982L133.142 358.8L128.982 348.68H130.622L132.362 353L133.902 356.92H133.982L135.522 353L137.262 348.68ZM142.054 348.68H143.654V353H145.854L148.634 348.68H150.294L147.774 352.6C147.547 352.947 147.347 353.193 147.174 353.34C147.001 353.473 146.794 353.573 146.554 353.64V353.72C146.821 353.76 147.047 353.853 147.234 354C147.421 354.133 147.614 354.373 147.814 354.72L149.494 357.64H150.654V359H149.494C149.147 359 148.847 358.907 148.594 358.72C148.341 358.533 148.087 358.227 147.834 357.8L145.854 354.36H143.654V359H142.054V348.68ZM157.106 350.04H153.306V348.68H162.506V350.04H158.706V359H157.106V350.04ZM173.238 348.68H174.838L169.718 361.26C169.598 361.553 169.465 361.807 169.318 362.02C169.172 362.247 168.998 362.427 168.798 362.56C168.598 362.707 168.358 362.813 168.078 362.88C167.798 362.96 167.465 363 167.078 363H165.558V361.64H167.958L169.118 358.8L164.958 348.68H166.598L168.338 353L169.878 356.92H169.958L171.498 353L173.238 348.68ZM177.791 348.68H179.391V350.36H179.471C180.137 349.08 181.197 348.44 182.651 348.44C183.917 348.44 184.904 348.913 185.611 349.86C186.331 350.807 186.691 352.133 186.691 353.84C186.691 355.547 186.331 356.873 185.611 357.82C184.904 358.767 183.917 359.24 182.651 359.24C181.197 359.24 180.137 358.6 179.471 357.32H179.391V363H177.791V348.68ZM182.031 357.82C182.964 357.82 183.684 357.54 184.191 356.98C184.711 356.407 184.971 355.653 184.971 354.72V352.96C184.971 352.027 184.711 351.28 184.191 350.72C183.684 350.147 182.964 349.86 182.031 349.86C181.671 349.86 181.331 349.907 181.011 350C180.691 350.093 180.411 350.233 180.171 350.42C179.931 350.593 179.737 350.813 179.591 351.08C179.457 351.333 179.391 351.633 179.391 351.98V355.7C179.391 356.047 179.457 356.353 179.591 356.62C179.737 356.873 179.931 357.093 180.171 357.28C180.411 357.453 180.691 357.587 181.011 357.68C181.331 357.773 181.671 357.82 182.031 357.82ZM197.783 359C197.156 359 196.709 358.84 196.443 358.52C196.176 358.2 196.009 357.8 195.943 357.32H195.843C195.616 357.92 195.249 358.393 194.743 358.74C194.249 359.073 193.583 359.24 192.743 359.24C191.663 359.24 190.803 358.96 190.163 358.4C189.523 357.84 189.203 357.073 189.203 356.1C189.203 355.14 189.549 354.4 190.243 353.88C190.949 353.36 192.083 353.1 193.643 353.1H195.843V352.08C195.843 351.32 195.629 350.753 195.203 350.38C194.776 349.993 194.169 349.8 193.383 349.8C192.689 349.8 192.123 349.94 191.683 350.22C191.243 350.487 190.889 350.853 190.623 351.32L189.543 350.52C189.676 350.253 189.856 349.993 190.083 349.74C190.309 349.487 190.589 349.267 190.923 349.08C191.256 348.88 191.636 348.727 192.063 348.62C192.489 348.5 192.963 348.44 193.483 348.44C194.696 348.44 195.656 348.747 196.363 349.36C197.083 349.973 197.443 350.827 197.443 351.92V357.6H198.883V359H197.783ZM193.023 357.9C193.436 357.9 193.809 357.853 194.143 357.76C194.489 357.653 194.789 357.52 195.043 357.36C195.296 357.187 195.489 356.987 195.623 356.76C195.769 356.52 195.843 356.267 195.843 356V354.3H193.643C192.683 354.3 191.983 354.433 191.543 354.7C191.103 354.967 190.883 355.353 190.883 355.86V356.28C190.883 356.813 191.069 357.22 191.443 357.5C191.829 357.767 192.356 357.9 193.023 357.9ZM205.015 356.28H207.595L205.295 361.82H203.955L205.015 356.28ZM9.9 399.68H11.5V401.36H11.58C12.2467 400.08 13.3067 399.44 14.76 399.44C16.0267 399.44 17.0133 399.913 17.72 400.86C18.44 401.807 18.8 403.133 18.8 404.84C18.8 406.547 18.44 407.873 17.72 408.82C17.0133 409.767 16.0267 410.24 14.76 410.24C13.3067 410.24 12.2467 409.6 11.58 408.32H11.5V414H9.9V399.68ZM14.14 408.82C15.0733 408.82 15.7933 408.54 16.3 407.98C16.82 407.407 17.08 406.653 17.08 405.72V403.96C17.08 403.027 16.82 402.28 16.3 401.72C15.7933 401.147 15.0733 400.86 14.14 400.86C13.78 400.86 13.44 400.907 13.12 401C12.8 401.093 12.52 401.233 12.28 401.42C12.04 401.593 11.8467 401.813 11.7 402.08C11.5667 402.333 11.5 402.633 11.5 402.98V406.7C11.5 407.047 11.5667 407.353 11.7 407.62C11.8467 407.873 12.04 408.093 12.28 408.28C12.52 408.453 12.8 408.587 13.12 408.68C13.44 408.773 13.78 408.82 14.14 408.82ZM29.8922 410C29.2655 410 28.8189 409.84 28.5522 409.52C28.2855 409.2 28.1189 408.8 28.0522 408.32H27.9522C27.7255 408.92 27.3589 409.393 26.8522 409.74C26.3589 410.073 25.6922 410.24 24.8522 410.24C23.7722 410.24 22.9122 409.96 22.2722 409.4C21.6322 408.84 21.3122 408.073 21.3122 407.1C21.3122 406.14 21.6589 405.4 22.3522 404.88C23.0589 404.36 24.1922 404.1 25.7522 404.1H27.9522V403.08C27.9522 402.32 27.7389 401.753 27.3122 401.38C26.8855 400.993 26.2789 400.8 25.4922 400.8C24.7989 400.8 24.2322 400.94 23.7922 401.22C23.3522 401.487 22.9989 401.853 22.7322 402.32L21.6522 401.52C21.7855 401.253 21.9655 400.993 22.1922 400.74C22.4189 400.487 22.6989 400.267 23.0322 400.08C23.3655 399.88 23.7455 399.727 24.1722 399.62C24.5989 399.5 25.0722 399.44 25.5922 399.44C26.8055 399.44 27.7655 399.747 28.4722 400.36C29.1922 400.973 29.5522 401.827 29.5522 402.92V408.6H30.9922V410H29.8922ZM25.1322 408.9C25.5455 408.9 25.9189 408.853 26.2522 408.76C26.5989 408.653 26.8989 408.52 27.1522 408.36C27.4055 408.187 27.5989 407.987 27.7322 407.76C27.8789 407.52 27.9522 407.267 27.9522 407V405.3H25.7522C24.7922 405.3 24.0922 405.433 23.6522 405.7C23.2122 405.967 22.9922 406.353 22.9922 406.86V407.28C22.9922 407.813 23.1789 408.22 23.5522 408.5C23.9389 408.767 24.4655 408.9 25.1322 408.9ZM34.1244 399.68H39.3844C40.2244 399.68 40.8844 399.92 41.3644 400.4C41.8444 400.867 42.0844 401.5 42.0844 402.3C42.0844 403.593 41.411 404.32 40.0644 404.48V404.56C40.8644 404.627 41.4577 404.88 41.8444 405.32C42.2444 405.747 42.4444 406.28 42.4444 406.92C42.4444 407.333 42.3777 407.727 42.2444 408.1C42.111 408.473 41.9177 408.8 41.6644 409.08C41.411 409.36 41.0977 409.587 40.7244 409.76C40.351 409.92 39.9244 410 39.4444 410H34.1244V399.68ZM39.0444 408.72C39.591 408.72 40.011 408.587 40.3044 408.32C40.5977 408.053 40.7444 407.687 40.7444 407.22V406.76C40.7444 406.293 40.5977 405.933 40.3044 405.68C40.0244 405.413 39.6444 405.28 39.1644 405.28H35.7244V408.72H39.0444ZM38.9644 404.02C39.4044 404.02 39.751 403.907 40.0044 403.68C40.2577 403.453 40.3844 403.133 40.3844 402.72V402.28C40.3844 401.867 40.2577 401.547 40.0044 401.32C39.751 401.08 39.4044 400.96 38.9644 400.96H35.7244V404.02H38.9644ZM45.8766 399.68H47.4766V404H52.4766V399.68H54.0766V410H52.4766V405.36H47.4766V410H45.8766V399.68ZM61.9688 410.24C61.2488 410.24 60.5954 410.113 60.0088 409.86C59.4354 409.607 58.9421 409.247 58.5288 408.78C58.1288 408.3 57.8221 407.733 57.6088 407.08C57.3954 406.413 57.2887 405.667 57.2887 404.84C57.2887 404.027 57.3954 403.287 57.6088 402.62C57.8221 401.953 58.1288 401.387 58.5288 400.92C58.9421 400.44 59.4354 400.073 60.0088 399.82C60.5954 399.567 61.2488 399.44 61.9688 399.44C62.6888 399.44 63.3354 399.567 63.9088 399.82C64.4954 400.073 64.9888 400.44 65.3888 400.92C65.8021 401.387 66.1154 401.953 66.3288 402.62C66.5421 403.287 66.6488 404.027 66.6488 404.84C66.6488 405.667 66.5421 406.413 66.3288 407.08C66.1154 407.733 65.8021 408.3 65.3888 408.78C64.9888 409.247 64.4954 409.607 63.9088 409.86C63.3354 410.113 62.6888 410.24 61.9688 410.24ZM61.9688 408.86C62.8621 408.86 63.5821 408.593 64.1288 408.06C64.6754 407.527 64.9488 406.7 64.9488 405.58V404.1C64.9488 402.98 64.6754 402.153 64.1288 401.62C63.5821 401.087 62.8621 400.82 61.9688 400.82C61.0754 400.82 60.3554 401.087 59.8088 401.62C59.2621 402.153 58.9888 402.98 58.9888 404.1V405.58C58.9888 406.7 59.2621 407.527 59.8088 408.06C60.3554 408.593 61.0754 408.86 61.9688 408.86ZM69.4009 399.68H71.6009L73.9809 404.94H74.1009L76.4809 399.68H78.5209V410H76.9809V403.54L77.0409 401.7H76.9209L73.9609 408.24L71.0009 401.7H70.8809L70.9409 403.54V410H69.4009V399.68ZM86.1331 410.24C85.3865 410.24 84.7131 410.113 84.1131 409.86C83.5265 409.607 83.0198 409.247 82.5931 408.78C82.1798 408.3 81.8598 407.733 81.6331 407.08C81.4065 406.413 81.2931 405.673 81.2931 404.86C81.2931 404.033 81.4065 403.287 81.6331 402.62C81.8731 401.953 82.1998 401.387 82.6131 400.92C83.0265 400.44 83.5198 400.073 84.0931 399.82C84.6798 399.567 85.3265 399.44 86.0331 399.44C86.7265 399.44 87.3531 399.567 87.9131 399.82C88.4865 400.073 88.9731 400.427 89.3731 400.88C89.7731 401.32 90.0798 401.847 90.2931 402.46C90.5065 403.073 90.6131 403.747 90.6131 404.48V405.24H82.9731V405.72C82.9731 406.173 83.0465 406.593 83.1931 406.98C83.3398 407.367 83.5465 407.7 83.8131 407.98C84.0931 408.26 84.4265 408.48 84.8131 408.64C85.2131 408.787 85.6531 408.86 86.1331 408.86C86.8265 408.86 87.4265 408.7 87.9331 408.38C88.4398 408.06 88.8265 407.62 89.0931 407.06L90.2731 407.86C89.9665 408.553 89.4531 409.127 88.7331 409.58C88.0265 410.02 87.1598 410.24 86.1331 410.24ZM86.0331 400.76C85.5931 400.76 85.1865 400.84 84.8131 401C84.4398 401.16 84.1131 401.38 83.8331 401.66C83.5665 401.94 83.3531 402.273 83.1931 402.66C83.0465 403.033 82.9731 403.447 82.9731 403.9V404.04H88.8931V403.82C88.8931 403.367 88.8198 402.953 88.6731 402.58C88.5398 402.207 88.3465 401.887 88.0931 401.62C87.8531 401.34 87.5531 401.127 87.1931 400.98C86.8465 400.833 86.4598 400.76 86.0331 400.76ZM93.8453 399.68H95.4453V401.36H95.5253C96.192 400.08 97.252 399.44 98.7053 399.44C99.972 399.44 100.959 399.913 101.665 400.86C102.385 401.807 102.745 403.133 102.745 404.84C102.745 406.547 102.385 407.873 101.665 408.82C100.959 409.767 99.972 410.24 98.7053 410.24C97.252 410.24 96.192 409.6 95.5253 408.32H95.4453V414H93.8453V399.68ZM98.0853 408.82C99.0186 408.82 99.7386 408.54 100.245 407.98C100.765 407.407 101.025 406.653 101.025 405.72V403.96C101.025 403.027 100.765 402.28 100.245 401.72C99.7386 401.147 99.0186 400.86 98.0853 400.86C97.7253 400.86 97.3853 400.907 97.0653 401C96.7453 401.093 96.4653 401.233 96.2253 401.42C95.9853 401.593 95.792 401.813 95.6453 402.08C95.512 402.333 95.4453 402.633 95.4453 402.98V406.7C95.4453 407.047 95.512 407.353 95.6453 407.62C95.792 407.873 95.9853 408.093 96.2253 408.28C96.4653 408.453 96.7453 408.587 97.0653 408.68C97.3853 408.773 97.7253 408.82 98.0853 408.82ZM105.838 399.68H107.438V404H112.438V399.68H114.037V410H112.438V405.36H107.438V410H105.838V399.68ZM121.93 410.24C121.21 410.24 120.556 410.113 119.97 409.86C119.396 409.607 118.903 409.247 118.49 408.78C118.09 408.3 117.783 407.733 117.57 407.08C117.356 406.413 117.25 405.667 117.25 404.84C117.25 404.027 117.356 403.287 117.57 402.62C117.783 401.953 118.09 401.387 118.49 400.92C118.903 400.44 119.396 400.073 119.97 399.82C120.556 399.567 121.21 399.44 121.93 399.44C122.65 399.44 123.296 399.567 123.87 399.82C124.456 400.073 124.95 400.44 125.35 400.92C125.763 401.387 126.076 401.953 126.29 402.62C126.503 403.287 126.61 404.027 126.61 404.84C126.61 405.667 126.503 406.413 126.29 407.08C126.076 407.733 125.763 408.3 125.35 408.78C124.95 409.247 124.456 409.607 123.87 409.86C123.296 410.113 122.65 410.24 121.93 410.24ZM121.93 408.86C122.823 408.86 123.543 408.593 124.09 408.06C124.636 407.527 124.91 406.7 124.91 405.58V404.1C124.91 402.98 124.636 402.153 124.09 401.62C123.543 401.087 122.823 400.82 121.93 400.82C121.036 400.82 120.316 401.087 119.77 401.62C119.223 402.153 118.95 402.98 118.95 404.1V405.58C118.95 406.7 119.223 407.527 119.77 408.06C120.316 408.593 121.036 408.86 121.93 408.86ZM145.914 410.24C145.194 410.24 144.541 410.113 143.954 409.86C143.381 409.607 142.887 409.247 142.474 408.78C142.074 408.3 141.767 407.733 141.554 407.08C141.341 406.413 141.234 405.667 141.234 404.84C141.234 404.027 141.341 403.287 141.554 402.62C141.767 401.953 142.074 401.387 142.474 400.92C142.887 400.44 143.381 400.073 143.954 399.82C144.541 399.567 145.194 399.44 145.914 399.44C146.634 399.44 147.281 399.567 147.854 399.82C148.441 400.073 148.934 400.44 149.334 400.92C149.747 401.387 150.061 401.953 150.274 402.62C150.487 403.287 150.594 404.027 150.594 404.84C150.594 405.667 150.487 406.413 150.274 407.08C150.061 407.733 149.747 408.3 149.334 408.78C148.934 409.247 148.441 409.607 147.854 409.86C147.281 410.113 146.634 410.24 145.914 410.24ZM145.914 408.86C146.807 408.86 147.527 408.593 148.074 408.06C148.621 407.527 148.894 406.7 148.894 405.58V404.1C148.894 402.98 148.621 402.153 148.074 401.62C147.527 401.087 146.807 400.82 145.914 400.82C145.021 400.82 144.301 401.087 143.754 401.62C143.207 402.153 142.934 402.98 142.934 404.1V405.58C142.934 406.7 143.207 407.527 143.754 408.06C144.301 408.593 145.021 408.86 145.914 408.86ZM153.126 410L156.966 404.76L153.226 399.68H155.146L156.706 401.86L157.946 403.58H158.026L159.226 401.86L160.766 399.68H162.606L158.826 404.74L162.706 410H160.786L159.046 407.58L157.866 405.94H157.786L156.646 407.58L154.966 410H153.126ZM164.418 408.64H165.698C165.898 408.387 166.072 408.087 166.218 407.74C166.378 407.393 166.505 406.98 166.598 406.5C166.705 406.02 166.785 405.467 166.838 404.84C166.892 404.2 166.918 403.46 166.918 402.62V399.68H173.778V410H172.178V401.04H168.478V402.66C168.478 404.527 168.338 405.993 168.058 407.06C167.792 408.113 167.432 408.867 166.978 409.32C166.725 409.573 166.445 409.753 166.138 409.86C165.832 409.953 165.465 410 165.038 410H164.418V408.64ZM185.791 410C185.164 410 184.717 409.84 184.451 409.52C184.184 409.2 184.017 408.8 183.951 408.32H183.851C183.624 408.92 183.257 409.393 182.751 409.74C182.257 410.073 181.591 410.24 180.751 410.24C179.671 410.24 178.811 409.96 178.171 409.4C177.531 408.84 177.211 408.073 177.211 407.1C177.211 406.14 177.557 405.4 178.251 404.88C178.957 404.36 180.091 404.1 181.651 404.1H183.851V403.08C183.851 402.32 183.637 401.753 183.211 401.38C182.784 400.993 182.177 400.8 181.391 400.8C180.697 400.8 180.131 400.94 179.691 401.22C179.251 401.487 178.897 401.853 178.631 402.32L177.551 401.52C177.684 401.253 177.864 400.993 178.091 400.74C178.317 400.487 178.597 400.267 178.931 400.08C179.264 399.88 179.644 399.727 180.071 399.62C180.497 399.5 180.971 399.44 181.491 399.44C182.704 399.44 183.664 399.747 184.371 400.36C185.091 400.973 185.451 401.827 185.451 402.92V408.6H186.891V410H185.791ZM181.031 408.9C181.444 408.9 181.817 408.853 182.151 408.76C182.497 408.653 182.797 408.52 183.051 408.36C183.304 408.187 183.497 407.987 183.631 407.76C183.777 407.52 183.851 407.267 183.851 407V405.3H181.651C180.691 405.3 179.991 405.433 179.551 405.7C179.111 405.967 178.891 406.353 178.891 406.86V407.28C178.891 407.813 179.077 408.22 179.451 408.5C179.837 408.767 180.364 408.9 181.031 408.9ZM193.143 405.34H191.383L190.083 410H188.483L189.623 405.94C189.836 405.207 190.209 404.8 190.743 404.72V404.64C190.236 404.52 189.889 404.127 189.703 403.46L188.603 399.68H190.123L191.383 404.02H193.143V399.68H194.623V404.02H196.383L197.663 399.68H199.163L198.043 403.46C197.936 403.807 197.803 404.073 197.643 404.26C197.496 404.447 197.289 404.573 197.023 404.64V404.72C197.596 404.8 197.976 405.207 198.163 405.94L199.283 410H197.663L196.383 405.34H194.623V410H193.143V405.34ZM200.315 408.64H201.475C201.902 407.96 202.235 407.16 202.475 406.24C202.728 405.307 202.855 404.213 202.855 402.96V399.68H209.515V408.64H211.215V412.8H209.755V410H201.775V412.8H200.315V408.64ZM207.915 408.64V401.04H204.415V403.04C204.415 404.28 204.315 405.347 204.115 406.24C203.915 407.12 203.615 407.92 203.215 408.64H207.915ZM221.767 410C221.141 410 220.694 409.84 220.427 409.52C220.161 409.2 219.994 408.8 219.927 408.32H219.827C219.601 408.92 219.234 409.393 218.727 409.74C218.234 410.073 217.567 410.24 216.727 410.24C215.647 410.24 214.787 409.96 214.147 409.4C213.507 408.84 213.187 408.073 213.187 407.1C213.187 406.14 213.534 405.4 214.227 404.88C214.934 404.36 216.067 404.1 217.627 404.1H219.827V403.08C219.827 402.32 219.614 401.753 219.187 401.38C218.761 400.993 218.154 400.8 217.367 400.8C216.674 400.8 216.107 400.94 215.667 401.22C215.227 401.487 214.874 401.853 214.607 402.32L213.527 401.52C213.661 401.253 213.841 400.993 214.067 400.74C214.294 400.487 214.574 400.267 214.907 400.08C215.241 399.88 215.621 399.727 216.047 399.62C216.474 399.5 216.947 399.44 217.467 399.44C218.681 399.44 219.641 399.747 220.347 400.36C221.067 400.973 221.427 401.827 221.427 402.92V408.6H222.867V410H221.767ZM217.007 408.9C217.421 408.9 217.794 408.853 218.127 408.76C218.474 408.653 218.774 408.52 219.027 408.36C219.281 408.187 219.474 407.987 219.607 407.76C219.754 407.52 219.827 407.267 219.827 407V405.3H217.627C216.667 405.3 215.967 405.433 215.527 405.7C215.087 405.967 214.867 406.353 214.867 406.86V407.28C214.867 407.813 215.054 408.22 215.427 408.5C215.814 408.767 216.341 408.9 217.007 408.9ZM230.039 410.24C229.293 410.24 228.619 410.113 228.019 409.86C227.433 409.607 226.926 409.247 226.499 408.78C226.086 408.3 225.766 407.733 225.539 407.08C225.313 406.413 225.199 405.673 225.199 404.86C225.199 404.033 225.313 403.287 225.539 402.62C225.779 401.953 226.106 401.387 226.519 400.92C226.933 400.44 227.426 400.073 227.999 399.82C228.586 399.567 229.233 399.44 229.939 399.44C230.633 399.44 231.259 399.567 231.819 399.82C232.393 400.073 232.879 400.427 233.279 400.88C233.679 401.32 233.986 401.847 234.199 402.46C234.413 403.073 234.519 403.747 234.519 404.48V405.24H226.879V405.72C226.879 406.173 226.953 406.593 227.099 406.98C227.246 407.367 227.453 407.7 227.719 407.98C227.999 408.26 228.333 408.48 228.719 408.64C229.119 408.787 229.559 408.86 230.039 408.86C230.733 408.86 231.333 408.7 231.839 408.38C232.346 408.06 232.733 407.62 232.999 407.06L234.179 407.86C233.873 408.553 233.359 409.127 232.639 409.58C231.933 410.02 231.066 410.24 230.039 410.24ZM229.939 400.76C229.499 400.76 229.093 400.84 228.719 401C228.346 401.16 228.019 401.38 227.739 401.66C227.473 401.94 227.259 402.273 227.099 402.66C226.953 403.033 226.879 403.447 226.879 403.9V404.04H232.799V403.82C232.799 403.367 232.726 402.953 232.579 402.58C232.446 402.207 232.253 401.887 231.999 401.62C231.759 401.34 231.459 401.127 231.099 400.98C230.753 400.833 230.366 400.76 229.939 400.76ZM241.052 401.04H237.252V399.68H246.452V401.04H242.652V410H241.052V401.04ZM10.14 450.68H15.4C16.24 450.68 16.9 450.92 17.38 451.4C17.86 451.867 18.1 452.5 18.1 453.3C18.1 454.593 17.4267 455.32 16.08 455.48V455.56C16.88 455.627 17.4733 455.88 17.86 456.32C18.26 456.747 18.46 457.28 18.46 457.92C18.46 458.333 18.3933 458.727 18.26 459.1C18.1267 459.473 17.9333 459.8 17.68 460.08C17.4267 460.36 17.1133 460.587 16.74 460.76C16.3667 460.92 15.94 461 15.46 461H10.14V450.68ZM15.06 459.72C15.6067 459.72 16.0267 459.587 16.32 459.32C16.6133 459.053 16.76 458.687 16.76 458.22V457.76C16.76 457.293 16.6133 456.933 16.32 456.68C16.04 456.413 15.66 456.28 15.18 456.28H11.74V459.72H15.06ZM14.98 455.02C15.42 455.02 15.7667 454.907 16.02 454.68C16.2733 454.453 16.4 454.133 16.4 453.72V453.28C16.4 452.867 16.2733 452.547 16.02 452.32C15.7667 452.08 15.42 451.96 14.98 451.96H11.74V455.02H14.98ZM25.9922 461.24C25.2722 461.24 24.6189 461.113 24.0322 460.86C23.4589 460.607 22.9655 460.247 22.5522 459.78C22.1522 459.3 21.8455 458.733 21.6322 458.08C21.4189 457.413 21.3122 456.667 21.3122 455.84C21.3122 455.027 21.4189 454.287 21.6322 453.62C21.8455 452.953 22.1522 452.387 22.5522 451.92C22.9655 451.44 23.4589 451.073 24.0322 450.82C24.6189 450.567 25.2722 450.44 25.9922 450.44C26.7122 450.44 27.3589 450.567 27.9322 450.82C28.5189 451.073 29.0122 451.44 29.4122 451.92C29.8255 452.387 30.1389 452.953 30.3522 453.62C30.5655 454.287 30.6722 455.027 30.6722 455.84C30.6722 456.667 30.5655 457.413 30.3522 458.08C30.1389 458.733 29.8255 459.3 29.4122 459.78C29.0122 460.247 28.5189 460.607 27.9322 460.86C27.3589 461.113 26.7122 461.24 25.9922 461.24ZM25.9922 459.86C26.8855 459.86 27.6055 459.593 28.1522 459.06C28.6989 458.527 28.9722 457.7 28.9722 456.58V455.1C28.9722 453.98 28.6989 453.153 28.1522 452.62C27.6055 452.087 26.8855 451.82 25.9922 451.82C25.0989 451.82 24.3789 452.087 23.8322 452.62C23.2855 453.153 23.0122 453.98 23.0122 455.1V456.58C23.0122 457.7 23.2855 458.527 23.8322 459.06C24.3789 459.593 25.0989 459.86 25.9922 459.86ZM37.5644 461.24C36.4977 461.24 35.611 461.067 34.9044 460.72C34.211 460.373 33.6444 459.88 33.2044 459.24L34.3844 458.28C34.7044 458.787 35.1244 459.18 35.6444 459.46C36.1644 459.727 36.8044 459.86 37.5644 459.86C38.5244 459.86 39.2177 459.707 39.6444 459.4C40.071 459.093 40.2844 458.7 40.2844 458.22V457.94C40.2844 457.42 40.111 457.027 39.7644 456.76C39.431 456.48 38.9444 456.34 38.3044 456.34H35.5244V455H38.1044C39.411 455 40.0644 454.513 40.0644 453.54V453.3C40.0644 452.86 39.8777 452.507 39.5044 452.24C39.1444 451.96 38.511 451.82 37.6044 451.82C36.8044 451.82 36.1577 451.953 35.6644 452.22C35.1844 452.487 34.791 452.86 34.4844 453.34L33.3644 452.58C33.831 451.9 34.3977 451.373 35.0644 451C35.731 450.627 36.6044 450.44 37.6844 450.44C39.0577 450.44 40.0777 450.687 40.7444 451.18C41.4244 451.673 41.7644 452.353 41.7644 453.22C41.7644 453.86 41.5977 454.367 41.2644 454.74C40.931 455.113 40.4644 455.373 39.8644 455.52V455.6C40.5577 455.707 41.0844 455.973 41.4444 456.4C41.8044 456.813 41.9844 457.347 41.9844 458C41.9844 459 41.5977 459.793 40.8244 460.38C40.0644 460.953 38.9777 461.24 37.5644 461.24ZM44.4166 459.64H45.5766C46.0032 458.96 46.3366 458.16 46.5766 457.24C46.8299 456.307 46.9566 455.213 46.9566 453.96V450.68H53.6166V459.64H55.3166V463.8H53.8566V461H45.8766V463.8H44.4166V459.64ZM52.0166 459.64V452.04H48.5166V454.04C48.5166 455.28 48.4166 456.347 48.2166 457.24C48.0166 458.12 47.7166 458.92 47.3166 459.64H52.0166ZM65.3088 450.68H66.9088L61.7888 463.26C61.6688 463.553 61.5354 463.807 61.3888 464.02C61.2421 464.247 61.0688 464.427 60.8688 464.56C60.6688 464.707 60.4288 464.813 60.1488 464.88C59.8688 464.96 59.5354 465 59.1488 465H57.6288V463.64H60.0288L61.1888 460.8L57.0288 450.68H58.6688L60.4088 455L61.9488 458.92H62.0288L63.5688 455L65.3088 450.68ZM69.1809 461L73.0209 455.76L69.2809 450.68H71.2009L72.7609 452.86L74.0009 454.58H74.0809L75.2809 452.86L76.8209 450.68H78.6609L74.8809 455.74L78.7609 461H76.8409L75.1009 458.58L73.9209 456.94H73.8409L72.7009 458.58L71.0209 461H69.1809Z" fill="#26611D"/>
</svg>
