<svg width="322" height="485" viewBox="0 0 322 485" fill="none" xmlns="http://www.w3.org/2000/svg">
<rect x="0.743467" y="5.74347" width="320.513" height="478.513" fill="#D9D9D9" fill-opacity="0.33" stroke="black" stroke-width="1.48693"/>
<path d="M17.536 53.384C15.5307 53.384 13.888 53.0213 12.608 52.296C11.328 51.5493 10.272 50.6 9.44 49.448L11.392 47.848C12.2667 48.936 13.184 49.7467 14.144 50.28C15.1253 50.8133 16.288 51.08 17.632 51.08C19.2533 51.08 20.4907 50.7067 21.344 49.96C22.1973 49.2133 22.624 48.168 22.624 46.824C22.624 45.736 22.3147 44.8933 21.696 44.296C21.0773 43.6773 20 43.24 18.464 42.984L15.968 42.568C14.88 42.376 13.9627 42.088 13.216 41.704C12.4907 41.32 11.904 40.8613 11.456 40.328C11.008 39.7733 10.688 39.176 10.496 38.536C10.304 37.8747 10.208 37.192 10.208 36.488C10.208 34.44 10.88 32.8933 12.224 31.848C13.568 30.8027 15.3813 30.28 17.664 30.28C19.456 30.28 20.96 30.5787 22.176 31.176C23.4133 31.7733 24.4053 32.616 25.152 33.704L23.264 35.336C22.6453 34.5253 21.8987 33.864 21.024 33.352C20.1493 32.84 19.0187 32.584 17.632 32.584C16.1173 32.584 14.9547 32.904 14.144 33.544C13.3333 34.184 12.928 35.144 12.928 36.424C12.928 37.4267 13.2267 38.248 13.824 38.888C14.4427 39.5067 15.5413 39.9547 17.12 40.232L19.52 40.648C20.608 40.84 21.5253 41.128 22.272 41.512C23.0187 41.896 23.616 42.3547 24.064 42.888C24.5333 43.4213 24.864 44.0187 25.056 44.68C25.248 45.3413 25.344 46.0347 25.344 46.76C25.344 48.8293 24.6613 50.4507 23.296 51.624C21.952 52.7973 20.032 53.384 17.536 53.384ZM36.7875 53.384C35.4222 53.384 34.2488 53.128 33.2675 52.616C32.2862 52.0827 31.4755 51.3253 30.8355 50.344C30.1955 49.3627 29.7262 48.1573 29.4275 46.728C29.1288 45.2987 28.9795 43.6667 28.9795 41.832C28.9795 40.0187 29.1288 38.3973 29.4275 36.968C29.7262 35.5173 30.1955 34.3013 30.8355 33.32C31.4755 32.3387 32.2862 31.592 33.2675 31.08C34.2488 30.5467 35.4222 30.28 36.7875 30.28C38.1528 30.28 39.3262 30.5467 40.3075 31.08C41.2888 31.592 42.0995 32.3387 42.7395 33.32C43.3795 34.3013 43.8488 35.5173 44.1475 36.968C44.4462 38.3973 44.5955 40.0187 44.5955 41.832C44.5955 43.6667 44.4462 45.2987 44.1475 46.728C43.8488 48.1573 43.3795 49.3627 42.7395 50.344C42.0995 51.3253 41.2888 52.0827 40.3075 52.616C39.3262 53.128 38.1528 53.384 36.7875 53.384ZM36.7875 51.048C37.6835 51.048 38.4408 50.8773 39.0595 50.536C39.6782 50.1733 40.1902 49.672 40.5955 49.032C41.0008 48.392 41.2888 47.624 41.4595 46.728C41.6515 45.8107 41.7475 44.7867 41.7475 43.656V40.008C41.7475 38.8987 41.6515 37.8853 41.4595 36.968C41.2888 36.0507 41.0008 35.272 40.5955 34.632C40.1902 33.992 39.6782 33.5013 39.0595 33.16C38.4408 32.7973 37.6835 32.616 36.7875 32.616C35.8915 32.616 35.1342 32.7973 34.5155 33.16C33.8968 33.5013 33.3848 33.992 32.9795 34.632C32.5742 35.272 32.2755 36.0507 32.0835 36.968C31.9128 37.8853 31.8275 38.8987 31.8275 40.008V43.656C31.8275 44.7867 31.9128 45.8107 32.0835 46.728C32.2755 47.624 32.5742 48.392 32.9795 49.032C33.3848 49.672 33.8968 50.1733 34.5155 50.536C35.1342 50.8773 35.8915 51.048 36.7875 51.048ZM50.215 53V30.664H52.903V50.664H63.495V53H50.215ZM68.2505 53V50.856H73.8185V32.808H68.2505V30.664H82.0745V32.808H76.5065V50.856H82.0745V53H68.2505ZM94.286 53.384C92.2807 53.384 90.638 53.0213 89.358 52.296C88.078 51.5493 87.022 50.6 86.19 49.448L88.142 47.848C89.0167 48.936 89.934 49.7467 90.894 50.28C91.8753 50.8133 93.038 51.08 94.382 51.08C96.0033 51.08 97.2407 50.7067 98.094 49.96C98.9473 49.2133 99.374 48.168 99.374 46.824C99.374 45.736 99.0647 44.8933 98.446 44.296C97.8273 43.6773 96.75 43.24 95.214 42.984L92.718 42.568C91.63 42.376 90.7127 42.088 89.966 41.704C89.2407 41.32 88.654 40.8613 88.206 40.328C87.758 39.7733 87.438 39.176 87.246 38.536C87.054 37.8747 86.958 37.192 86.958 36.488C86.958 34.44 87.63 32.8933 88.974 31.848C90.318 30.8027 92.1313 30.28 94.414 30.28C96.206 30.28 97.71 30.5787 98.926 31.176C100.163 31.7733 101.155 32.616 101.902 33.704L100.014 35.336C99.3953 34.5253 98.6487 33.864 97.774 33.352C96.8993 32.84 95.7687 32.584 94.382 32.584C92.8673 32.584 91.7047 32.904 90.894 33.544C90.0833 34.184 89.678 35.144 89.678 36.424C89.678 37.4267 89.9767 38.248 90.574 38.888C91.1927 39.5067 92.2913 39.9547 93.87 40.232L96.27 40.648C97.358 40.84 98.2753 41.128 99.022 41.512C99.7687 41.896 100.366 42.3547 100.814 42.888C101.283 43.4213 101.614 44.0187 101.806 44.68C101.998 45.3413 102.094 46.0347 102.094 46.76C102.094 48.8293 101.411 50.4507 100.046 51.624C98.702 52.7973 96.782 53.384 94.286 53.384ZM105.858 44.456V42.088H121.218V44.456H105.858ZM134.069 33V53H131.381V33H123.925V30.664H141.525V33H134.069ZM151.945 53.384C150.771 53.384 149.715 53.192 148.777 52.808C147.838 52.4027 147.038 51.8373 146.377 51.112C145.737 50.3653 145.235 49.4587 144.873 48.392C144.531 47.3253 144.361 46.1307 144.361 44.808C144.361 43.144 144.606 41.5867 145.097 40.136C145.609 38.664 146.249 37.3307 147.016 36.136C147.806 34.92 148.681 33.8533 149.641 32.936C150.601 31.9973 151.539 31.24 152.457 30.664H155.913C154.697 31.5387 153.609 32.392 152.649 33.224C151.71 34.056 150.878 34.9307 150.153 35.848C149.427 36.744 148.819 37.7147 148.329 38.76C147.838 39.784 147.433 40.9467 147.113 42.248L147.273 42.312C147.806 41.3947 148.51 40.6373 149.385 40.04C150.259 39.4213 151.39 39.112 152.777 39.112C153.758 39.112 154.654 39.272 155.465 39.592C156.275 39.912 156.979 40.3707 157.577 40.968C158.174 41.5653 158.633 42.2907 158.953 43.144C159.294 43.9973 159.465 44.9467 159.465 45.992C159.465 47.08 159.283 48.0827 158.921 49C158.558 49.896 158.046 50.6747 157.385 51.336C156.745 51.976 155.955 52.4773 155.017 52.84C154.099 53.2027 153.075 53.384 151.945 53.384ZM151.913 51.112C153.449 51.112 154.633 50.696 155.465 49.864C156.318 49.032 156.745 47.8587 156.745 46.344V46.088C156.745 44.5733 156.318 43.4 155.465 42.568C154.633 41.736 153.449 41.32 151.913 41.32C150.377 41.32 149.182 41.736 148.329 42.568C147.497 43.4 147.081 44.5733 147.081 46.088V46.344C147.081 47.8587 147.497 49.032 148.329 49.864C149.182 50.696 150.377 51.112 151.913 51.112ZM14.84 244.5V257H13.16V244.5H8.5V243.04H19.5V244.5H14.84ZM26.1722 257.24C25.4255 257.24 24.7522 257.113 24.1522 256.86C23.5655 256.607 23.0589 256.247 22.6322 255.78C22.2189 255.3 21.8989 254.733 21.6722 254.08C21.4455 253.413 21.3322 252.673 21.3322 251.86C21.3322 251.033 21.4455 250.287 21.6722 249.62C21.9122 248.953 22.2389 248.387 22.6522 247.92C23.0655 247.44 23.5589 247.073 24.1322 246.82C24.7189 246.567 25.3655 246.44 26.0722 246.44C26.7655 246.44 27.3922 246.567 27.9522 246.82C28.5255 247.073 29.0122 247.427 29.4122 247.88C29.8122 248.32 30.1189 248.847 30.3322 249.46C30.5455 250.073 30.6522 250.747 30.6522 251.48V252.24H23.0122V252.72C23.0122 253.173 23.0855 253.593 23.2322 253.98C23.3789 254.367 23.5855 254.7 23.8522 254.98C24.1322 255.26 24.4655 255.48 24.8522 255.64C25.2522 255.787 25.6922 255.86 26.1722 255.86C26.8655 255.86 27.4655 255.7 27.9722 255.38C28.4789 255.06 28.8655 254.62 29.1322 254.06L30.3122 254.86C30.0055 255.553 29.4922 256.127 28.7722 256.58C28.0655 257.02 27.1989 257.24 26.1722 257.24ZM26.0722 247.76C25.6322 247.76 25.2255 247.84 24.8522 248C24.4789 248.16 24.1522 248.38 23.8722 248.66C23.6055 248.94 23.3922 249.273 23.2322 249.66C23.0855 250.033 23.0122 250.447 23.0122 250.9V251.04H28.9322V250.82C28.9322 250.367 28.8589 249.953 28.7122 249.58C28.5789 249.207 28.3855 248.887 28.1322 248.62C27.8922 248.34 27.5922 248.127 27.2322 247.98C26.8855 247.833 26.4989 247.76 26.0722 247.76ZM33.9244 246.68H42.0444V257H40.4444V248.04H35.5244V257H33.9244V246.68ZM44.4966 255.64H45.7766C45.9766 255.387 46.1499 255.087 46.2966 254.74C46.4566 254.393 46.5832 253.98 46.6766 253.5C46.7832 253.02 46.8632 252.467 46.9166 251.84C46.9699 251.2 46.9966 250.46 46.9966 249.62V246.68H53.8566V257H52.2566V248.04H48.5566V249.66C48.5566 251.527 48.4166 252.993 48.1366 254.06C47.8699 255.113 47.5099 255.867 47.0566 256.32C46.8032 256.573 46.5232 256.753 46.2166 256.86C45.9099 256.953 45.5432 257 45.1166 257H44.4966V255.64ZM61.9688 257.24C61.2488 257.24 60.5954 257.113 60.0088 256.86C59.4354 256.607 58.9421 256.247 58.5288 255.78C58.1288 255.3 57.8221 254.733 57.6088 254.08C57.3954 253.413 57.2887 252.667 57.2887 251.84C57.2887 251.027 57.3954 250.287 57.6088 249.62C57.8221 248.953 58.1288 248.387 58.5288 247.92C58.9421 247.44 59.4354 247.073 60.0088 246.82C60.5954 246.567 61.2488 246.44 61.9688 246.44C62.6888 246.44 63.3354 246.567 63.9088 246.82C64.4954 247.073 64.9888 247.44 65.3888 247.92C65.8021 248.387 66.1154 248.953 66.3288 249.62C66.5421 250.287 66.6488 251.027 66.6488 251.84C66.6488 252.667 66.5421 253.413 66.3288 254.08C66.1154 254.733 65.8021 255.3 65.3888 255.78C64.9888 256.247 64.4954 256.607 63.9088 256.86C63.3354 257.113 62.6888 257.24 61.9688 257.24ZM61.9688 255.86C62.8621 255.86 63.5821 255.593 64.1288 255.06C64.6754 254.527 64.9488 253.7 64.9488 252.58V251.1C64.9488 249.98 64.6754 249.153 64.1288 248.62C63.5821 248.087 62.8621 247.82 61.9688 247.82C61.0754 247.82 60.3554 248.087 59.8088 248.62C59.2621 249.153 58.9888 249.98 58.9888 251.1V252.58C58.9888 253.7 59.2621 254.527 59.8088 255.06C60.3554 255.593 61.0754 255.86 61.9688 255.86ZM70.1009 246.68H75.3609C76.2009 246.68 76.8609 246.92 77.3409 247.4C77.8209 247.867 78.0609 248.5 78.0609 249.3C78.0609 250.593 77.3876 251.32 76.0409 251.48V251.56C76.8409 251.627 77.4343 251.88 77.8209 252.32C78.2209 252.747 78.4209 253.28 78.4209 253.92C78.4209 254.333 78.3543 254.727 78.2209 255.1C78.0876 255.473 77.8943 255.8 77.6409 256.08C77.3876 256.36 77.0743 256.587 76.7009 256.76C76.3276 256.92 75.9009 257 75.4209 257H70.1009V246.68ZM75.0209 255.72C75.5676 255.72 75.9876 255.587 76.2809 255.32C76.5743 255.053 76.7209 254.687 76.7209 254.22V253.76C76.7209 253.293 76.5743 252.933 76.2809 252.68C76.0009 252.413 75.6209 252.28 75.1409 252.28H71.7009V255.72H75.0209ZM74.9409 251.02C75.3809 251.02 75.7276 250.907 75.9809 250.68C76.2343 250.453 76.3609 250.133 76.3609 249.72V249.28C76.3609 248.867 76.2343 248.547 75.9809 248.32C75.7276 248.08 75.3809 247.96 74.9409 247.96H71.7009V251.02H74.9409ZM89.8531 257C89.2265 257 88.7798 256.84 88.5131 256.52C88.2465 256.2 88.0798 255.8 88.0131 255.32H87.9131C87.6865 255.92 87.3198 256.393 86.8131 256.74C86.3198 257.073 85.6531 257.24 84.8131 257.24C83.7331 257.24 82.8731 256.96 82.2331 256.4C81.5931 255.84 81.2731 255.073 81.2731 254.1C81.2731 253.14 81.6198 252.4 82.3131 251.88C83.0198 251.36 84.1531 251.1 85.7131 251.1H87.9131V250.08C87.9131 249.32 87.6998 248.753 87.2731 248.38C86.8465 247.993 86.2398 247.8 85.4531 247.8C84.7598 247.8 84.1931 247.94 83.7531 248.22C83.3131 248.487 82.9598 248.853 82.6931 249.32L81.6131 248.52C81.7465 248.253 81.9265 247.993 82.1531 247.74C82.3798 247.487 82.6598 247.267 82.9931 247.08C83.3265 246.88 83.7065 246.727 84.1331 246.62C84.5598 246.5 85.0331 246.44 85.5531 246.44C86.7665 246.44 87.7265 246.747 88.4331 247.36C89.1531 247.973 89.5131 248.827 89.5131 249.92V255.6H90.9531V257H89.8531ZM85.0931 255.9C85.5065 255.9 85.8798 255.853 86.2131 255.76C86.5598 255.653 86.8598 255.52 87.1131 255.36C87.3665 255.187 87.5598 254.987 87.6931 254.76C87.8398 254.52 87.9131 254.267 87.9131 254V252.3H85.7131C84.7531 252.3 84.0531 252.433 83.6131 252.7C83.1731 252.967 82.9531 253.353 82.9531 253.86V254.28C82.9531 254.813 83.1398 255.22 83.5131 255.5C83.8998 255.767 84.4265 255.9 85.0931 255.9ZM93.3053 255.64H94.4653L95.3653 253.94C95.5253 253.633 95.6986 253.4 95.8853 253.24C96.072 253.08 96.2986 252.98 96.5653 252.94V252.86C95.7253 252.82 95.0386 252.553 94.5053 252.06C93.9853 251.553 93.7253 250.82 93.7253 249.86C93.7253 248.873 94.0253 248.1 94.6253 247.54C95.2253 246.967 96.052 246.68 97.1053 246.68H101.745V257H100.145V253.02H97.6453L96.2253 255.68C95.9853 256.12 95.7253 256.453 95.4453 256.68C95.1786 256.893 94.832 257 94.4053 257H93.3053V255.64ZM100.145 248.04H97.3453C96.7453 248.04 96.272 248.16 95.9253 248.4C95.592 248.64 95.4253 249.027 95.4253 249.56V250.18C95.4253 250.713 95.592 251.1 95.9253 251.34C96.272 251.58 96.7453 251.7 97.3453 251.7H100.145V248.04ZM122.29 257.24C121.543 257.24 120.876 257.113 120.29 256.86C119.716 256.593 119.23 256.227 118.83 255.76C118.43 255.293 118.123 254.727 117.91 254.06C117.71 253.393 117.61 252.653 117.61 251.84C117.61 251.027 117.716 250.287 117.93 249.62C118.143 248.953 118.45 248.387 118.85 247.92C119.25 247.44 119.736 247.073 120.31 246.82C120.883 246.567 121.536 246.44 122.27 246.44C123.27 246.44 124.083 246.66 124.71 247.1C125.336 247.54 125.796 248.113 126.09 248.82L124.81 249.5C124.623 248.967 124.31 248.553 123.87 248.26C123.443 247.967 122.91 247.82 122.27 247.82C121.803 247.82 121.383 247.9 121.01 248.06C120.65 248.207 120.343 248.42 120.09 248.7C119.836 248.98 119.643 249.313 119.51 249.7C119.39 250.087 119.33 250.507 119.33 250.96V252.72C119.33 253.173 119.39 253.593 119.51 253.98C119.643 254.367 119.836 254.7 120.09 254.98C120.343 255.26 120.656 255.48 121.03 255.64C121.403 255.787 121.83 255.86 122.31 255.86C123.003 255.86 123.576 255.7 124.03 255.38C124.483 255.06 124.843 254.62 125.11 254.06L126.25 254.84C125.943 255.533 125.463 256.107 124.81 256.56C124.17 257.013 123.33 257.24 122.29 257.24ZM133.122 248.04H129.322V246.68H138.522V248.04H134.722V257H133.122V248.04ZM149.814 257C149.187 257 148.741 256.84 148.474 256.52C148.207 256.2 148.041 255.8 147.974 255.32H147.874C147.647 255.92 147.281 256.393 146.774 256.74C146.281 257.073 145.614 257.24 144.774 257.24C143.694 257.24 142.834 256.96 142.194 256.4C141.554 255.84 141.234 255.073 141.234 254.1C141.234 253.14 141.581 252.4 142.274 251.88C142.981 251.36 144.114 251.1 145.674 251.1H147.874V250.08C147.874 249.32 147.661 248.753 147.234 248.38C146.807 247.993 146.201 247.8 145.414 247.8C144.721 247.8 144.154 247.94 143.714 248.22C143.274 248.487 142.921 248.853 142.654 249.32L141.574 248.52C141.707 248.253 141.887 247.993 142.114 247.74C142.341 247.487 142.621 247.267 142.954 247.08C143.287 246.88 143.667 246.727 144.094 246.62C144.521 246.5 144.994 246.44 145.514 246.44C146.727 246.44 147.687 246.747 148.394 247.36C149.114 247.973 149.474 248.827 149.474 249.92V255.6H150.914V257H149.814ZM145.054 255.9C145.467 255.9 145.841 255.853 146.174 255.76C146.521 255.653 146.821 255.52 147.074 255.36C147.327 255.187 147.521 254.987 147.654 254.76C147.801 254.52 147.874 254.267 147.874 254V252.3H145.674C144.714 252.3 144.014 252.433 143.574 252.7C143.134 252.967 142.914 253.353 142.914 253.86V254.28C142.914 254.813 143.101 255.22 143.474 255.5C143.861 255.767 144.387 255.9 145.054 255.9ZM157.926 257.24C157.233 257.24 156.6 257.113 156.026 256.86C155.466 256.607 154.98 256.22 154.566 255.7C154.166 255.18 153.853 254.527 153.626 253.74C153.4 252.94 153.286 251.993 153.286 250.9C153.286 249.38 153.386 248.087 153.586 247.02C153.8 245.953 154.12 245.073 154.546 244.38C154.986 243.687 155.54 243.173 156.206 242.84C156.886 242.507 157.693 242.307 158.626 242.24L161.786 242.04V243.62L158.466 243.84C157.893 243.88 157.4 243.987 156.986 244.16C156.586 244.333 156.246 244.613 155.966 245C155.7 245.373 155.486 245.867 155.326 246.48C155.166 247.093 155.046 247.86 154.966 248.78H155.066C155.346 248.113 155.74 247.6 156.246 247.24C156.753 246.867 157.386 246.68 158.146 246.68C158.8 246.68 159.4 246.8 159.946 247.04C160.493 247.28 160.96 247.627 161.346 248.08C161.733 248.52 162.033 249.073 162.246 249.74C162.473 250.393 162.586 251.14 162.586 251.98C162.586 252.767 162.473 253.48 162.246 254.12C162.02 254.76 161.7 255.313 161.286 255.78C160.873 256.247 160.38 256.607 159.806 256.86C159.246 257.113 158.62 257.24 157.926 257.24ZM157.926 255.86C158.793 255.86 159.5 255.593 160.046 255.06C160.606 254.513 160.886 253.72 160.886 252.68V251.42C160.886 250.3 160.613 249.46 160.066 248.9C159.533 248.34 158.833 248.06 157.966 248.06C156.953 248.06 156.2 248.307 155.706 248.8C155.226 249.28 154.986 249.9 154.986 250.66V252.68C154.986 253.72 155.253 254.513 155.786 255.06C156.333 255.593 157.046 255.86 157.926 255.86ZM165.798 246.68H167.398V251.94L167.238 254.58H167.318L172.498 246.68H173.998V257H172.398V251.74L172.558 249.1H172.478L167.298 257H165.798V246.68ZM176.411 255.64H177.691C177.891 255.387 178.064 255.087 178.211 254.74C178.371 254.393 178.497 253.98 178.591 253.5C178.697 253.02 178.777 252.467 178.831 251.84C178.884 251.2 178.911 250.46 178.911 249.62V246.68H185.771V257H184.171V248.04H180.471V249.66C180.471 251.527 180.331 252.993 180.051 254.06C179.784 255.113 179.424 255.867 178.971 256.32C178.717 256.573 178.437 256.753 178.131 256.86C177.824 256.953 177.457 257 177.031 257H176.411V255.64ZM189.783 246.68H191.383V251.94L191.223 254.58H191.303L196.483 246.68H197.983V257H196.383V251.74L196.543 249.1H196.463L191.283 257H189.783V246.68ZM205.455 257.24C204.388 257.24 203.502 257.067 202.795 256.72C202.102 256.373 201.535 255.88 201.095 255.24L202.275 254.28C202.595 254.787 203.015 255.18 203.535 255.46C204.055 255.727 204.695 255.86 205.455 255.86C206.415 255.86 207.108 255.707 207.535 255.4C207.962 255.093 208.175 254.7 208.175 254.22V253.94C208.175 253.42 208.002 253.027 207.655 252.76C207.322 252.48 206.835 252.34 206.195 252.34H203.415V251H205.995C207.302 251 207.955 250.513 207.955 249.54V249.3C207.955 248.86 207.768 248.507 207.395 248.24C207.035 247.96 206.402 247.82 205.495 247.82C204.695 247.82 204.048 247.953 203.555 248.22C203.075 248.487 202.682 248.86 202.375 249.34L201.255 248.58C201.722 247.9 202.288 247.373 202.955 247C203.622 246.627 204.495 246.44 205.575 246.44C206.948 246.44 207.968 246.687 208.635 247.18C209.315 247.673 209.655 248.353 209.655 249.22C209.655 249.86 209.488 250.367 209.155 250.74C208.822 251.113 208.355 251.373 207.755 251.52V251.6C208.448 251.707 208.975 251.973 209.335 252.4C209.695 252.813 209.875 253.347 209.875 254C209.875 255 209.488 255.793 208.715 256.38C207.955 256.953 206.868 257.24 205.455 257.24ZM221.767 257C221.141 257 220.694 256.84 220.427 256.52C220.161 256.2 219.994 255.8 219.927 255.32H219.827C219.601 255.92 219.234 256.393 218.727 256.74C218.234 257.073 217.567 257.24 216.727 257.24C215.647 257.24 214.787 256.96 214.147 256.4C213.507 255.84 213.187 255.073 213.187 254.1C213.187 253.14 213.534 252.4 214.227 251.88C214.934 251.36 216.067 251.1 217.627 251.1H219.827V250.08C219.827 249.32 219.614 248.753 219.187 248.38C218.761 247.993 218.154 247.8 217.367 247.8C216.674 247.8 216.107 247.94 215.667 248.22C215.227 248.487 214.874 248.853 214.607 249.32L213.527 248.52C213.661 248.253 213.841 247.993 214.067 247.74C214.294 247.487 214.574 247.267 214.907 247.08C215.241 246.88 215.621 246.727 216.047 246.62C216.474 246.5 216.947 246.44 217.467 246.44C218.681 246.44 219.641 246.747 220.347 247.36C221.067 247.973 221.427 248.827 221.427 249.92V255.6H222.867V257H221.767ZM217.007 255.9C217.421 255.9 217.794 255.853 218.127 255.76C218.474 255.653 218.774 255.52 219.027 255.36C219.281 255.187 219.474 254.987 219.607 254.76C219.754 254.52 219.827 254.267 219.827 254V252.3H217.627C216.667 252.3 215.967 252.433 215.527 252.7C215.087 252.967 214.867 253.353 214.867 253.86V254.28C214.867 254.813 215.054 255.22 215.427 255.5C215.814 255.767 216.341 255.9 217.007 255.9ZM233.799 257H225.539V246.68H227.139V255.64H231.959V246.68H233.559V255.64H235.259V259.8H233.799V257ZM237.752 246.68H239.352V251.94L239.192 254.58H239.272L244.452 246.68H245.952V257H244.352V251.74L244.512 249.1H244.432L239.252 257H237.752V246.68ZM249.204 255.64H250.364L251.264 253.94C251.424 253.633 251.597 253.4 251.784 253.24C251.97 253.08 252.197 252.98 252.464 252.94V252.86C251.624 252.82 250.937 252.553 250.404 252.06C249.884 251.553 249.624 250.82 249.624 249.86C249.624 248.873 249.924 248.1 250.524 247.54C251.124 246.967 251.95 246.68 253.004 246.68H257.644V257H256.044V253.02H253.544L252.124 255.68C251.884 256.12 251.624 256.453 251.344 256.68C251.077 256.893 250.73 257 250.304 257H249.204V255.64ZM256.044 248.04H253.244C252.644 248.04 252.17 248.16 251.824 248.4C251.49 248.64 251.324 249.027 251.324 249.56V250.18C251.324 250.713 251.49 251.1 251.824 251.34C252.17 251.58 252.644 251.7 253.244 251.7H256.044V248.04ZM9.66 345.04H18.34V359H16.66V346.5H11.34V359H9.66V345.04ZM20.5122 357.64H21.7922C21.9922 357.387 22.1655 357.087 22.3122 356.74C22.4722 356.393 22.5989 355.98 22.6922 355.5C22.7989 355.02 22.8789 354.467 22.9322 353.84C22.9855 353.2 23.0122 352.46 23.0122 351.62V348.68H29.8722V359H28.2722V350.04H24.5722V351.66C24.5722 353.527 24.4322 354.993 24.1522 356.06C23.8855 357.113 23.5255 357.867 23.0722 358.32C22.8189 358.573 22.5389 358.753 22.2322 358.86C21.9255 358.953 21.5589 359 21.1322 359H20.5122V357.64ZM37.9844 359.24C37.2644 359.24 36.611 359.113 36.0244 358.86C35.451 358.607 34.9577 358.247 34.5444 357.78C34.1444 357.3 33.8377 356.733 33.6244 356.08C33.411 355.413 33.3044 354.667 33.3044 353.84C33.3044 353.027 33.411 352.287 33.6244 351.62C33.8377 350.953 34.1444 350.387 34.5444 349.92C34.9577 349.44 35.451 349.073 36.0244 348.82C36.611 348.567 37.2644 348.44 37.9844 348.44C38.7044 348.44 39.351 348.567 39.9244 348.82C40.511 349.073 41.0044 349.44 41.4044 349.92C41.8177 350.387 42.131 350.953 42.3444 351.62C42.5577 352.287 42.6644 353.027 42.6644 353.84C42.6644 354.667 42.5577 355.413 42.3444 356.08C42.131 356.733 41.8177 357.3 41.4044 357.78C41.0044 358.247 40.511 358.607 39.9244 358.86C39.351 359.113 38.7044 359.24 37.9844 359.24ZM37.9844 357.86C38.8777 357.86 39.5977 357.593 40.1444 357.06C40.691 356.527 40.9644 355.7 40.9644 354.58V353.1C40.9644 351.98 40.691 351.153 40.1444 350.62C39.5977 350.087 38.8777 349.82 37.9844 349.82C37.091 349.82 36.371 350.087 35.8244 350.62C35.2777 351.153 35.0044 351.98 35.0044 353.1V354.58C35.0044 355.7 35.2777 356.527 35.8244 357.06C36.371 357.593 37.091 357.86 37.9844 357.86ZM49.1766 350.04H45.3766V348.68H54.5766V350.04H50.7766V359H49.1766V350.04ZM57.8688 348.68H59.4688V353H64.4688V348.68H66.0687V359H64.4688V354.36H59.4688V359H57.8688V348.68ZM69.0409 348.68H70.6409V352.42H72.3809C73.4209 352.42 74.2476 352.713 74.8609 353.3C75.4743 353.887 75.7809 354.693 75.7809 355.72C75.7809 356.76 75.4809 357.567 74.8809 358.14C74.2809 358.713 73.4543 359 72.4009 359H69.0409V348.68ZM72.1609 357.64C72.7609 357.64 73.2276 357.52 73.5609 357.28C73.9076 357.04 74.0809 356.653 74.0809 356.12V355.28C74.0809 354.747 73.9076 354.367 73.5609 354.14C73.2276 353.9 72.7609 353.78 72.1609 353.78H70.6409V357.64H72.1609ZM77.2809 348.68H78.8809V359H77.2809V348.68ZM86.1331 359.24C85.3865 359.24 84.7131 359.113 84.1131 358.86C83.5265 358.607 83.0198 358.247 82.5931 357.78C82.1798 357.3 81.8598 356.733 81.6331 356.08C81.4065 355.413 81.2931 354.673 81.2931 353.86C81.2931 353.033 81.4065 352.287 81.6331 351.62C81.8731 350.953 82.1998 350.387 82.6131 349.92C83.0265 349.44 83.5198 349.073 84.0931 348.82C84.6798 348.567 85.3265 348.44 86.0331 348.44C86.7265 348.44 87.3531 348.567 87.9131 348.82C88.4865 349.073 88.9731 349.427 89.3731 349.88C89.7731 350.32 90.0798 350.847 90.2931 351.46C90.5065 352.073 90.6131 352.747 90.6131 353.48V354.24H82.9731V354.72C82.9731 355.173 83.0465 355.593 83.1931 355.98C83.3398 356.367 83.5465 356.7 83.8131 356.98C84.0931 357.26 84.4265 357.48 84.8131 357.64C85.2131 357.787 85.6531 357.86 86.1331 357.86C86.8265 357.86 87.4265 357.7 87.9331 357.38C88.4398 357.06 88.8265 356.62 89.0931 356.06L90.2731 356.86C89.9665 357.553 89.4531 358.127 88.7331 358.58C88.0265 359.02 87.1598 359.24 86.1331 359.24ZM86.0331 349.76C85.5931 349.76 85.1865 349.84 84.8131 350C84.4398 350.16 84.1131 350.38 83.8331 350.66C83.5665 350.94 83.3531 351.273 83.1931 351.66C83.0465 352.033 82.9731 352.447 82.9731 352.9V353.04H88.8931V352.82C88.8931 352.367 88.8198 351.953 88.6731 351.58C88.5398 351.207 88.3465 350.887 88.0931 350.62C87.8531 350.34 87.5531 350.127 87.1931 349.98C86.8465 349.833 86.4598 349.76 86.0331 349.76ZM104.458 357.64H105.738C105.938 357.387 106.111 357.087 106.258 356.74C106.418 356.393 106.544 355.98 106.638 355.5C106.744 355.02 106.824 354.467 106.877 353.84C106.931 353.2 106.958 352.46 106.958 351.62V348.68H113.818V359H112.218V350.04H108.518V351.66C108.518 353.527 108.378 354.993 108.098 356.06C107.831 357.113 107.471 357.867 107.018 358.32C106.764 358.573 106.484 358.753 106.178 358.86C105.871 358.953 105.504 359 105.078 359H104.458V357.64ZM117.83 348.68H119.43V353.94L119.27 356.58H119.35L124.53 348.68H126.03V359H124.43V353.74L124.59 351.1H124.51L119.33 359H117.83V348.68ZM134.282 359.24C133.535 359.24 132.869 359.113 132.282 358.86C131.709 358.593 131.222 358.227 130.822 357.76C130.422 357.293 130.115 356.727 129.902 356.06C129.702 355.393 129.602 354.653 129.602 353.84C129.602 353.027 129.709 352.287 129.922 351.62C130.135 350.953 130.442 350.387 130.842 349.92C131.242 349.44 131.729 349.073 132.302 348.82C132.875 348.567 133.529 348.44 134.262 348.44C135.262 348.44 136.075 348.66 136.702 349.1C137.329 349.54 137.789 350.113 138.082 350.82L136.802 351.5C136.615 350.967 136.302 350.553 135.862 350.26C135.435 349.967 134.902 349.82 134.262 349.82C133.795 349.82 133.375 349.9 133.002 350.06C132.642 350.207 132.335 350.42 132.082 350.7C131.829 350.98 131.635 351.313 131.502 351.7C131.382 352.087 131.322 352.507 131.322 352.96V354.72C131.322 355.173 131.382 355.593 131.502 355.98C131.635 356.367 131.829 356.7 132.082 356.98C132.335 357.26 132.649 357.48 133.022 357.64C133.395 357.787 133.822 357.86 134.302 357.86C134.995 357.86 135.569 357.7 136.022 357.38C136.475 357.06 136.835 356.62 137.102 356.06L138.242 356.84C137.935 357.533 137.455 358.107 136.802 358.56C136.162 359.013 135.322 359.24 134.282 359.24ZM145.114 350.04H141.314V348.68H150.514V350.04H146.714V359H145.114V350.04ZM154.126 348.68H155.726V352.42H158.926C159.966 352.42 160.793 352.713 161.406 353.3C162.02 353.887 162.326 354.693 162.326 355.72C162.326 356.76 162.026 357.567 161.426 358.14C160.826 358.713 160 359 158.946 359H154.126V348.68ZM158.706 357.64C159.306 357.64 159.773 357.52 160.106 357.28C160.453 357.04 160.626 356.653 160.626 356.12V355.28C160.626 354.747 160.453 354.367 160.106 354.14C159.773 353.9 159.306 353.78 158.706 353.78H155.726V357.64H158.706ZM165.258 357.64H166.418L167.318 355.94C167.478 355.633 167.652 355.4 167.838 355.24C168.025 355.08 168.252 354.98 168.518 354.94V354.86C167.678 354.82 166.992 354.553 166.458 354.06C165.938 353.553 165.678 352.82 165.678 351.86C165.678 350.873 165.978 350.1 166.578 349.54C167.178 348.967 168.005 348.68 169.058 348.68H173.698V359H172.098V355.02H169.598L168.178 357.68C167.938 358.12 167.678 358.453 167.398 358.68C167.132 358.893 166.785 359 166.358 359H165.258V357.64ZM172.098 350.04H169.298C168.698 350.04 168.225 350.16 167.878 350.4C167.545 350.64 167.378 351.027 167.378 351.56V352.18C167.378 352.713 167.545 353.1 167.878 353.34C168.225 353.58 168.698 353.7 169.298 353.7H172.098V350.04ZM181.031 356.28H183.611L181.311 361.82H179.971L181.031 356.28ZM209.215 348.68H210.815L205.695 361.26C205.575 361.553 205.442 361.807 205.295 362.02C205.148 362.247 204.975 362.427 204.775 362.56C204.575 362.707 204.335 362.813 204.055 362.88C203.775 362.96 203.442 363 203.055 363H201.535V361.64H203.935L205.095 358.8L200.935 348.68H202.575L204.315 353L205.855 356.92H205.935L207.475 353L209.215 348.68ZM212.307 357.64H213.467C213.894 356.96 214.227 356.16 214.467 355.24C214.721 354.307 214.847 353.213 214.847 351.96V348.68H221.507V357.64H223.207V361.8H221.747V359H213.767V361.8H212.307V357.64ZM219.907 357.64V350.04H216.407V352.04C216.407 353.28 216.307 354.347 216.107 355.24C215.907 356.12 215.607 356.92 215.207 357.64H219.907ZM230.039 359.24C229.293 359.24 228.619 359.113 228.019 358.86C227.433 358.607 226.926 358.247 226.499 357.78C226.086 357.3 225.766 356.733 225.539 356.08C225.313 355.413 225.199 354.673 225.199 353.86C225.199 353.033 225.313 352.287 225.539 351.62C225.779 350.953 226.106 350.387 226.519 349.92C226.933 349.44 227.426 349.073 227.999 348.82C228.586 348.567 229.233 348.44 229.939 348.44C230.633 348.44 231.259 348.567 231.819 348.82C232.393 349.073 232.879 349.427 233.279 349.88C233.679 350.32 233.986 350.847 234.199 351.46C234.413 352.073 234.519 352.747 234.519 353.48V354.24H226.879V354.72C226.879 355.173 226.953 355.593 227.099 355.98C227.246 356.367 227.453 356.7 227.719 356.98C227.999 357.26 228.333 357.48 228.719 357.64C229.119 357.787 229.559 357.86 230.039 357.86C230.733 357.86 231.333 357.7 231.839 357.38C232.346 357.06 232.733 356.62 232.999 356.06L234.179 356.86C233.873 357.553 233.359 358.127 232.639 358.58C231.933 359.02 231.066 359.24 230.039 359.24ZM229.939 349.76C229.499 349.76 229.093 349.84 228.719 350C228.346 350.16 228.019 350.38 227.739 350.66C227.473 350.94 227.259 351.273 227.099 351.66C226.953 352.033 226.879 352.447 226.879 352.9V353.04H232.799V352.82C232.799 352.367 232.726 351.953 232.579 351.58C232.446 351.207 232.253 350.887 231.999 350.62C231.759 350.34 231.459 350.127 231.099 349.98C230.753 349.833 230.366 349.76 229.939 349.76ZM237.752 348.68H239.352V350.36H239.432C240.098 349.08 241.158 348.44 242.612 348.44C243.878 348.44 244.865 348.913 245.572 349.86C246.292 350.807 246.652 352.133 246.652 353.84C246.652 355.547 246.292 356.873 245.572 357.82C244.865 358.767 243.878 359.24 242.612 359.24C241.158 359.24 240.098 358.6 239.432 357.32H239.352V363H237.752V348.68ZM241.992 357.82C242.925 357.82 243.645 357.54 244.152 356.98C244.672 356.407 244.932 355.653 244.932 354.72V352.96C244.932 352.027 244.672 351.28 244.152 350.72C243.645 350.147 242.925 349.86 241.992 349.86C241.632 349.86 241.292 349.907 240.972 350C240.652 350.093 240.372 350.233 240.132 350.42C239.892 350.593 239.698 350.813 239.552 351.08C239.418 351.333 239.352 351.633 239.352 351.98V355.7C239.352 356.047 239.418 356.353 239.552 356.62C239.698 356.873 239.892 357.093 240.132 357.28C240.372 357.453 240.652 357.587 240.972 357.68C241.292 357.773 241.632 357.82 241.992 357.82ZM253.104 354.34H251.344L250.044 359H248.444L249.584 354.94C249.797 354.207 250.17 353.8 250.704 353.72V353.64C250.197 353.52 249.85 353.127 249.664 352.46L248.564 348.68H250.084L251.344 353.02H253.104V348.68H254.584V353.02H256.344L257.624 348.68H259.124L258.004 352.46C257.897 352.807 257.764 353.073 257.604 353.26C257.457 353.447 257.25 353.573 256.984 353.64V353.72C257.557 353.8 257.937 354.207 258.124 354.94L259.244 359H257.624L256.344 354.34H254.584V359H253.104V354.34ZM261.736 348.68H263.336V353.94L263.176 356.58H263.256L268.436 348.68H269.936V359H268.336V353.74L268.496 351.1H268.416L263.236 359H261.736V348.68ZM273.968 348.68H279.228C280.068 348.68 280.728 348.92 281.208 349.4C281.688 349.867 281.928 350.5 281.928 351.3C281.928 352.593 281.255 353.32 279.908 353.48V353.56C280.708 353.627 281.301 353.88 281.688 354.32C282.088 354.747 282.288 355.28 282.288 355.92C282.288 356.333 282.221 356.727 282.088 357.1C281.955 357.473 281.761 357.8 281.508 358.08C281.255 358.36 280.941 358.587 280.568 358.76C280.195 358.92 279.768 359 279.288 359H273.968V348.68ZM278.888 357.72C279.435 357.72 279.855 357.587 280.148 357.32C280.441 357.053 280.588 356.687 280.588 356.22V355.76C280.588 355.293 280.441 354.933 280.148 354.68C279.868 354.413 279.488 354.28 279.008 354.28H275.568V357.72H278.888ZM278.808 353.02C279.248 353.02 279.595 352.907 279.848 352.68C280.101 352.453 280.228 352.133 280.228 351.72V351.28C280.228 350.867 280.101 350.547 279.848 350.32C279.595 350.08 279.248 349.96 278.808 349.96H275.568V353.02H278.808ZM293.72 359C293.094 359 292.647 358.84 292.38 358.52C292.114 358.2 291.947 357.8 291.88 357.32H291.78C291.554 357.92 291.187 358.393 290.68 358.74C290.187 359.073 289.52 359.24 288.68 359.24C287.6 359.24 286.74 358.96 286.1 358.4C285.46 357.84 285.14 357.073 285.14 356.1C285.14 355.14 285.487 354.4 286.18 353.88C286.887 353.36 288.02 353.1 289.58 353.1H291.78V352.08C291.78 351.32 291.567 350.753 291.14 350.38C290.714 349.993 290.107 349.8 289.32 349.8C288.627 349.8 288.06 349.94 287.62 350.22C287.18 350.487 286.827 350.853 286.56 351.32L285.48 350.52C285.614 350.253 285.794 349.993 286.02 349.74C286.247 349.487 286.527 349.267 286.86 349.08C287.194 348.88 287.574 348.727 288 348.62C288.427 348.5 288.9 348.44 289.42 348.44C290.634 348.44 291.594 348.747 292.3 349.36C293.02 349.973 293.38 350.827 293.38 351.92V357.6H294.82V359H293.72ZM288.96 357.9C289.374 357.9 289.747 357.853 290.08 357.76C290.427 357.653 290.727 357.52 290.98 357.36C291.234 357.187 291.427 356.987 291.56 356.76C291.707 356.52 291.78 356.267 291.78 356V354.3H289.58C288.62 354.3 287.92 354.433 287.48 354.7C287.04 354.967 286.82 355.353 286.82 355.86V356.28C286.82 356.813 287.007 357.22 287.38 357.5C287.767 357.767 288.294 357.9 288.96 357.9ZM301.993 359.24C301.246 359.24 300.573 359.113 299.973 358.86C299.386 358.607 298.879 358.247 298.452 357.78C298.039 357.3 297.719 356.733 297.493 356.08C297.266 355.413 297.153 354.673 297.153 353.86C297.153 353.033 297.266 352.287 297.493 351.62C297.733 350.953 298.059 350.387 298.473 349.92C298.886 349.44 299.379 349.073 299.953 348.82C300.539 348.567 301.186 348.44 301.893 348.44C302.586 348.44 303.213 348.567 303.773 348.82C304.346 349.073 304.833 349.427 305.233 349.88C305.633 350.32 305.939 350.847 306.153 351.46C306.366 352.073 306.473 352.747 306.473 353.48V354.24H298.833V354.72C298.833 355.173 298.906 355.593 299.053 355.98C299.199 356.367 299.406 356.7 299.673 356.98C299.953 357.26 300.286 357.48 300.673 357.64C301.073 357.787 301.513 357.86 301.993 357.86C302.686 357.86 303.286 357.7 303.793 357.38C304.299 357.06 304.686 356.62 304.953 356.06L306.133 356.86C305.826 357.553 305.313 358.127 304.593 358.58C303.886 359.02 303.019 359.24 301.993 359.24ZM301.893 349.76C301.453 349.76 301.046 349.84 300.673 350C300.299 350.16 299.973 350.38 299.693 350.66C299.426 350.94 299.213 351.273 299.053 351.66C298.906 352.033 298.833 352.447 298.833 352.9V353.04H304.753V352.82C304.753 352.367 304.679 351.953 304.533 351.58C304.399 351.207 304.206 350.887 303.953 350.62C303.713 350.34 303.413 350.127 303.053 349.98C302.706 349.833 302.319 349.76 301.893 349.76ZM313.005 350.04H309.205V348.68H318.405V350.04H314.605V359H313.005V350.04ZM13.2 401.04H9.4V399.68H18.6V401.04H14.8V410H13.2V401.04ZM26.1722 410.24C25.4255 410.24 24.7522 410.113 24.1522 409.86C23.5655 409.607 23.0589 409.247 22.6322 408.78C22.2189 408.3 21.8989 407.733 21.6722 407.08C21.4455 406.413 21.3322 405.673 21.3322 404.86C21.3322 404.033 21.4455 403.287 21.6722 402.62C21.9122 401.953 22.2389 401.387 22.6522 400.92C23.0655 400.44 23.5589 400.073 24.1322 399.82C24.7189 399.567 25.3655 399.44 26.0722 399.44C26.7655 399.44 27.3922 399.567 27.9522 399.82C28.5255 400.073 29.0122 400.427 29.4122 400.88C29.8122 401.32 30.1189 401.847 30.3322 402.46C30.5455 403.073 30.6522 403.747 30.6522 404.48V405.24H23.0122V405.72C23.0122 406.173 23.0855 406.593 23.2322 406.98C23.3789 407.367 23.5855 407.7 23.8522 407.98C24.1322 408.26 24.4655 408.48 24.8522 408.64C25.2522 408.787 25.6922 408.86 26.1722 408.86C26.8655 408.86 27.4655 408.7 27.9722 408.38C28.4789 408.06 28.8655 407.62 29.1322 407.06L30.3122 407.86C30.0055 408.553 29.4922 409.127 28.7722 409.58C28.0655 410.02 27.1989 410.24 26.1722 410.24ZM26.0722 400.76C25.6322 400.76 25.2255 400.84 24.8522 401C24.4789 401.16 24.1522 401.38 23.8722 401.66C23.6055 401.94 23.3922 402.273 23.2322 402.66C23.0855 403.033 23.0122 403.447 23.0122 403.9V404.04H28.9322V403.82C28.9322 403.367 28.8589 402.953 28.7122 402.58C28.5789 402.207 28.3855 401.887 28.1322 401.62C27.8922 401.34 27.5922 401.127 27.2322 400.98C26.8855 400.833 26.4989 400.76 26.0722 400.76ZM33.9244 399.68H42.0444V410H40.4444V401.04H35.5244V410H33.9244V399.68ZM44.4966 408.64H45.7766C45.9766 408.387 46.1499 408.087 46.2966 407.74C46.4566 407.393 46.5832 406.98 46.6766 406.5C46.7832 406.02 46.8632 405.467 46.9166 404.84C46.9699 404.2 46.9966 403.46 46.9966 402.62V399.68H53.8566V410H52.2566V401.04H48.5566V402.66C48.5566 404.527 48.4166 405.993 48.1366 407.06C47.8699 408.113 47.5099 408.867 47.0566 409.32C46.8032 409.573 46.5232 409.753 46.2166 409.86C45.9099 409.953 45.5432 410 45.1166 410H44.4966V408.64ZM61.9688 410.24C61.2488 410.24 60.5954 410.113 60.0088 409.86C59.4354 409.607 58.9421 409.247 58.5288 408.78C58.1288 408.3 57.8221 407.733 57.6088 407.08C57.3954 406.413 57.2887 405.667 57.2887 404.84C57.2887 404.027 57.3954 403.287 57.6088 402.62C57.8221 401.953 58.1288 401.387 58.5288 400.92C58.9421 400.44 59.4354 400.073 60.0088 399.82C60.5954 399.567 61.2488 399.44 61.9688 399.44C62.6888 399.44 63.3354 399.567 63.9088 399.82C64.4954 400.073 64.9888 400.44 65.3888 400.92C65.8021 401.387 66.1154 401.953 66.3288 402.62C66.5421 403.287 66.6488 404.027 66.6488 404.84C66.6488 405.667 66.5421 406.413 66.3288 407.08C66.1154 407.733 65.8021 408.3 65.3888 408.78C64.9888 409.247 64.4954 409.607 63.9088 409.86C63.3354 410.113 62.6888 410.24 61.9688 410.24ZM61.9688 408.86C62.8621 408.86 63.5821 408.593 64.1288 408.06C64.6754 407.527 64.9488 406.7 64.9488 405.58V404.1C64.9488 402.98 64.6754 402.153 64.1288 401.62C63.5821 401.087 62.8621 400.82 61.9688 400.82C61.0754 400.82 60.3554 401.087 59.8088 401.62C59.2621 402.153 58.9888 402.98 58.9888 404.1V405.58C58.9888 406.7 59.2621 407.527 59.8088 408.06C60.3554 408.593 61.0754 408.86 61.9688 408.86Z" fill="#26611D"/>
</svg>
