<svg width="322" height="485" viewBox="0 0 322 485" fill="none" xmlns="http://www.w3.org/2000/svg">
<rect x="0.743467" y="5.74347" width="320.513" height="478.513" fill="#D9D9D9" fill-opacity="0.33" stroke="black" stroke-width="1.48693"/>
<path d="M21.952 42.856H13.248V53H10.56V30.664H13.248V40.52H21.952V30.664H24.64V53H21.952V42.856ZM30.0675 53V30.664H43.8275V33H32.7555V40.52H43.4435V42.856H32.7555V50.664H43.8275V53H30.0675ZM50.215 53V30.664H52.903V50.664H63.495V53H50.215ZM68.2505 53V50.856H73.8185V32.808H68.2505V30.664H82.0745V32.808H76.5065V50.856H82.0745V53H68.2505ZM100.142 53L98.254 46.632H90.414L88.526 53H85.742L92.59 30.664H96.142L102.99 53H100.142ZM94.478 33.512H94.19L91.054 44.296H97.614L94.478 33.512ZM105.858 44.456V42.088H121.218V44.456H105.858ZM134.069 33V53H131.381V33H123.925V30.664H141.525V33H134.069ZM158.345 33H148.361L147.721 41.544H147.945C148.499 40.7973 149.118 40.2107 149.801 39.784C150.483 39.336 151.422 39.112 152.617 39.112C153.598 39.112 154.494 39.272 155.305 39.592C156.137 39.8907 156.851 40.3387 157.449 40.936C158.046 41.5333 158.515 42.2587 158.857 43.112C159.198 43.944 159.369 44.904 159.369 45.992C159.369 47.08 159.198 48.0827 158.857 49C158.515 49.896 158.014 50.6747 157.353 51.336C156.691 51.976 155.891 52.4773 154.953 52.84C154.014 53.2027 152.947 53.384 151.753 53.384C150.814 53.384 149.971 53.2773 149.225 53.064C148.499 52.8507 147.849 52.5627 147.273 52.2C146.718 51.8373 146.227 51.432 145.801 50.984C145.374 50.536 144.99 50.0667 144.649 49.576L146.665 48.04C146.963 48.488 147.262 48.8933 147.561 49.256C147.881 49.6187 148.243 49.9387 148.649 50.216C149.054 50.472 149.513 50.6747 150.025 50.824C150.537 50.9733 151.134 51.048 151.817 51.048C153.353 51.048 154.526 50.632 155.337 49.8C156.169 48.968 156.585 47.816 156.585 46.344V46.088C156.585 44.616 156.169 43.464 155.337 42.632C154.505 41.8 153.31 41.384 151.753 41.384C150.686 41.384 149.854 41.5653 149.257 41.928C148.681 42.2907 148.147 42.7387 147.657 43.272L145.385 42.952L146.185 30.664H158.345V33ZM14.84 244.5V257H13.16V244.5H8.5V243.04H19.5V244.5H14.84ZM26.1722 257.24C25.4255 257.24 24.7522 257.113 24.1522 256.86C23.5655 256.607 23.0589 256.247 22.6322 255.78C22.2189 255.3 21.8989 254.733 21.6722 254.08C21.4455 253.413 21.3322 252.673 21.3322 251.86C21.3322 251.033 21.4455 250.287 21.6722 249.62C21.9122 248.953 22.2389 248.387 22.6522 247.92C23.0655 247.44 23.5589 247.073 24.1322 246.82C24.7189 246.567 25.3655 246.44 26.0722 246.44C26.7655 246.44 27.3922 246.567 27.9522 246.82C28.5255 247.073 29.0122 247.427 29.4122 247.88C29.8122 248.32 30.1189 248.847 30.3322 249.46C30.5455 250.073 30.6522 250.747 30.6522 251.48V252.24H23.0122V252.72C23.0122 253.173 23.0855 253.593 23.2322 253.98C23.3789 254.367 23.5855 254.7 23.8522 254.98C24.1322 255.26 24.4655 255.48 24.8522 255.64C25.2522 255.787 25.6922 255.86 26.1722 255.86C26.8655 255.86 27.4655 255.7 27.9722 255.38C28.4789 255.06 28.8655 254.62 29.1322 254.06L30.3122 254.86C30.0055 255.553 29.4922 256.127 28.7722 256.58C28.0655 257.02 27.1989 257.24 26.1722 257.24ZM26.0722 247.76C25.6322 247.76 25.2255 247.84 24.8522 248C24.4789 248.16 24.1522 248.38 23.8722 248.66C23.6055 248.94 23.3922 249.273 23.2322 249.66C23.0855 250.033 23.0122 250.447 23.0122 250.9V251.04H28.9322V250.82C28.9322 250.367 28.8589 249.953 28.7122 249.58C28.5789 249.207 28.3855 248.887 28.1322 248.62C27.8922 248.34 27.5922 248.127 27.2322 247.98C26.8855 247.833 26.4989 247.76 26.0722 247.76ZM24.1722 244.64C23.7589 244.64 23.4655 244.553 23.2922 244.38C23.1189 244.207 23.0322 243.987 23.0322 243.72V243.44C23.0322 243.173 23.1189 242.953 23.2922 242.78C23.4655 242.607 23.7589 242.52 24.1722 242.52C24.5855 242.52 24.8789 242.607 25.0522 242.78C25.2255 242.953 25.3122 243.173 25.3122 243.44V243.72C25.3122 243.987 25.2255 244.207 25.0522 244.38C24.8789 244.553 24.5855 244.64 24.1722 244.64ZM27.8922 244.64C27.4789 244.64 27.1855 244.553 27.0122 244.38C26.8389 244.207 26.7522 243.987 26.7522 243.72V243.44C26.7522 243.173 26.8389 242.953 27.0122 242.78C27.1855 242.607 27.4789 242.52 27.8922 242.52C28.3055 242.52 28.5989 242.607 28.7722 242.78C28.9455 242.953 29.0322 243.173 29.0322 243.44V243.72C29.0322 243.987 28.9455 244.207 28.7722 244.38C28.5989 244.553 28.3055 244.64 27.8922 244.64ZM33.9244 246.68H42.0444V257H40.4444V248.04H35.5244V257H33.9244V246.68ZM44.4966 255.64H45.7766C45.9766 255.387 46.1499 255.087 46.2966 254.74C46.4566 254.393 46.5832 253.98 46.6766 253.5C46.7832 253.02 46.8632 252.467 46.9166 251.84C46.9699 251.2 46.9966 250.46 46.9966 249.62V246.68H53.8566V257H52.2566V248.04H48.5566V249.66C48.5566 251.527 48.4166 252.993 48.1366 254.06C47.8699 255.113 47.5099 255.867 47.0566 256.32C46.8032 256.573 46.5232 256.753 46.2166 256.86C45.9099 256.953 45.5432 257 45.1166 257H44.4966V255.64ZM57.0488 246.68H58.6488V250.42H60.3888C61.4288 250.42 62.2554 250.713 62.8688 251.3C63.4821 251.887 63.7888 252.693 63.7888 253.72C63.7888 254.76 63.4888 255.567 62.8888 256.14C62.2888 256.713 61.4621 257 60.4088 257H57.0488V246.68ZM60.1688 255.64C60.7688 255.64 61.2354 255.52 61.5688 255.28C61.9154 255.04 62.0888 254.653 62.0888 254.12V253.28C62.0888 252.747 61.9154 252.367 61.5688 252.14C61.2354 251.9 60.7688 251.78 60.1688 251.78H58.6488V255.64H60.1688ZM65.2888 246.68H66.8888V257H65.2888V246.68ZM69.8609 246.68H71.4609V251.94L71.3009 254.58H71.3809L76.5609 246.68H78.0609V257H76.4609V251.74L76.6209 249.1H76.5409L71.3609 257H69.8609V246.68ZM73.9009 245.1C73.2209 245.1 72.6676 244.953 72.2409 244.66C71.8143 244.353 71.4409 243.88 71.1209 243.24L70.5609 242.1L72.0009 241.64L72.8009 243.76C72.9476 243.813 73.1276 243.847 73.3409 243.86C73.5543 243.873 73.7409 243.88 73.9009 243.88C74.0609 243.88 74.2476 243.873 74.4609 243.86C74.6743 243.847 74.8543 243.813 75.0009 243.76L75.8009 241.64L77.2409 242.1L76.6809 243.24C76.3609 243.88 75.9876 244.353 75.5609 244.66C75.1343 244.953 74.5809 245.1 73.9009 245.1ZM94.0853 246.68H95.6853V251H97.8853L100.665 246.68H102.325L99.8053 250.6C99.5786 250.947 99.3786 251.193 99.2053 251.34C99.032 251.473 98.8253 251.573 98.5853 251.64V251.72C98.852 251.76 99.0786 251.853 99.2653 252C99.452 252.133 99.6453 252.373 99.8453 252.72L101.525 255.64H102.685V257H101.525C101.179 257 100.879 256.907 100.625 256.72C100.372 256.533 100.119 256.227 99.8653 255.8L97.8853 252.36H95.6853V257H94.0853V246.68ZM104.458 255.64H105.738C105.938 255.387 106.111 255.087 106.258 254.74C106.418 254.393 106.544 253.98 106.638 253.5C106.744 253.02 106.824 252.467 106.877 251.84C106.931 251.2 106.958 250.46 106.958 249.62V246.68H113.818V257H112.218V248.04H108.518V249.66C108.518 251.527 108.378 252.993 108.098 254.06C107.831 255.113 107.471 255.867 107.018 256.32C106.764 256.573 106.484 256.753 106.178 256.86C105.871 256.953 105.504 257 105.078 257H104.458V255.64ZM117.83 246.68H119.43V251.94L119.27 254.58H119.35L124.53 246.68H126.03V257H124.43V251.74L124.59 249.1H124.51L119.33 257H117.83V246.68ZM129.362 246.68H131.562L133.942 251.94H134.062L136.442 246.68H138.482V257H136.942V250.54L137.002 248.7H136.882L133.922 255.24L130.962 248.7H130.842L130.902 250.54V257H129.362V246.68ZM149.814 257C149.187 257 148.741 256.84 148.474 256.52C148.207 256.2 148.041 255.8 147.974 255.32H147.874C147.647 255.92 147.281 256.393 146.774 256.74C146.281 257.073 145.614 257.24 144.774 257.24C143.694 257.24 142.834 256.96 142.194 256.4C141.554 255.84 141.234 255.073 141.234 254.1C141.234 253.14 141.581 252.4 142.274 251.88C142.981 251.36 144.114 251.1 145.674 251.1H147.874V250.08C147.874 249.32 147.661 248.753 147.234 248.38C146.807 247.993 146.201 247.8 145.414 247.8C144.721 247.8 144.154 247.94 143.714 248.22C143.274 248.487 142.921 248.853 142.654 249.32L141.574 248.52C141.707 248.253 141.887 247.993 142.114 247.74C142.341 247.487 142.621 247.267 142.954 247.08C143.287 246.88 143.667 246.727 144.094 246.62C144.521 246.5 144.994 246.44 145.514 246.44C146.727 246.44 147.687 246.747 148.394 247.36C149.114 247.973 149.474 248.827 149.474 249.92V255.6H150.914V257H149.814ZM145.054 255.9C145.467 255.9 145.841 255.853 146.174 255.76C146.521 255.653 146.821 255.52 147.074 255.36C147.327 255.187 147.521 254.987 147.654 254.76C147.801 254.52 147.874 254.267 147.874 254V252.3H145.674C144.714 252.3 144.014 252.433 143.574 252.7C143.134 252.967 142.914 253.353 142.914 253.86V254.28C142.914 254.813 143.101 255.22 143.474 255.5C143.861 255.767 144.387 255.9 145.054 255.9ZM157.106 248.04H153.306V246.68H162.506V248.04H158.706V257H157.106V248.04ZM17.62 359L16.44 355.02H11.54L10.36 359H8.62L12.9 345.04H15.12L19.4 359H17.62ZM14.08 346.82H13.9L11.94 353.56H16.04L14.08 346.82ZM22.1322 348.68H23.7322V353H25.9322L28.7122 348.68H30.3722L27.8522 352.6C27.6255 352.947 27.4255 353.193 27.2522 353.34C27.0789 353.473 26.8722 353.573 26.6322 353.64V353.72C26.8989 353.76 27.1255 353.853 27.3122 354C27.4989 354.133 27.6922 354.373 27.8922 354.72L29.5722 357.64H30.7322V359H29.5722C29.2255 359 28.9255 358.907 28.6722 358.72C28.4189 358.533 28.1655 358.227 27.9122 357.8L25.9322 354.36H23.7322V359H22.1322V348.68ZM37.1844 350.04H33.3844V348.68H42.5844V350.04H38.7844V359H37.1844V350.04ZM45.8766 348.68H47.4766V353.94L47.3166 356.58H47.3966L52.5766 348.68H54.0766V359H52.4766V353.74L52.6366 351.1H52.5566L47.3766 359H45.8766V348.68ZM58.1088 348.68H63.3688C64.2088 348.68 64.8688 348.92 65.3488 349.4C65.8288 349.867 66.0687 350.5 66.0687 351.3C66.0687 352.593 65.3954 353.32 64.0488 353.48V353.56C64.8488 353.627 65.4421 353.88 65.8288 354.32C66.2288 354.747 66.4288 355.28 66.4288 355.92C66.4288 356.333 66.3621 356.727 66.2288 357.1C66.0954 357.473 65.9021 357.8 65.6488 358.08C65.3954 358.36 65.0821 358.587 64.7088 358.76C64.3354 358.92 63.9088 359 63.4288 359H58.1088V348.68ZM63.0288 357.72C63.5754 357.72 63.9954 357.587 64.2888 357.32C64.5821 357.053 64.7288 356.687 64.7288 356.22V355.76C64.7288 355.293 64.5821 354.933 64.2888 354.68C64.0088 354.413 63.6288 354.28 63.1488 354.28H59.7088V357.72H63.0288ZM62.9488 353.02C63.3888 353.02 63.7354 352.907 63.9888 352.68C64.2421 352.453 64.3688 352.133 64.3688 351.72V351.28C64.3688 350.867 64.2421 350.547 63.9888 350.32C63.7354 350.08 63.3888 349.96 62.9488 349.96H59.7088V353.02H62.9488ZM69.8609 348.68H71.4609V353H76.4609V348.68H78.0609V359H76.4609V354.36H71.4609V359H69.8609V348.68ZM89.8531 359C89.2265 359 88.7798 358.84 88.5131 358.52C88.2465 358.2 88.0798 357.8 88.0131 357.32H87.9131C87.6865 357.92 87.3198 358.393 86.8131 358.74C86.3198 359.073 85.6531 359.24 84.8131 359.24C83.7331 359.24 82.8731 358.96 82.2331 358.4C81.5931 357.84 81.2731 357.073 81.2731 356.1C81.2731 355.14 81.6198 354.4 82.3131 353.88C83.0198 353.36 84.1531 353.1 85.7131 353.1H87.9131V352.08C87.9131 351.32 87.6998 350.753 87.2731 350.38C86.8465 349.993 86.2398 349.8 85.4531 349.8C84.7598 349.8 84.1931 349.94 83.7531 350.22C83.3131 350.487 82.9598 350.853 82.6931 351.32L81.6131 350.52C81.7465 350.253 81.9265 349.993 82.1531 349.74C82.3798 349.487 82.6598 349.267 82.9931 349.08C83.3265 348.88 83.7065 348.727 84.1331 348.62C84.5598 348.5 85.0331 348.44 85.5531 348.44C86.7665 348.44 87.7265 348.747 88.4331 349.36C89.1531 349.973 89.5131 350.827 89.5131 351.92V357.6H90.9531V359H89.8531ZM85.0931 357.9C85.5065 357.9 85.8798 357.853 86.2131 357.76C86.5598 357.653 86.8598 357.52 87.1131 357.36C87.3665 357.187 87.5598 356.987 87.6931 356.76C87.8398 356.52 87.9131 356.267 87.9131 356V354.3H85.7131C84.7531 354.3 84.0531 354.433 83.6131 354.7C83.1731 354.967 82.9531 355.353 82.9531 355.86V356.28C82.9531 356.813 83.1398 357.22 83.5131 357.5C83.8998 357.767 84.4265 357.9 85.0931 357.9ZM93.3053 357.64H94.4653L95.3653 355.94C95.5253 355.633 95.6986 355.4 95.8853 355.24C96.072 355.08 96.2986 354.98 96.5653 354.94V354.86C95.7253 354.82 95.0386 354.553 94.5053 354.06C93.9853 353.553 93.7253 352.82 93.7253 351.86C93.7253 350.873 94.0253 350.1 94.6253 349.54C95.2253 348.967 96.052 348.68 97.1053 348.68H101.745V359H100.145V355.02H97.6453L96.2253 357.68C95.9853 358.12 95.7253 358.453 95.4453 358.68C95.1786 358.893 94.832 359 94.4053 359H93.3053V357.64ZM100.145 350.04H97.3453C96.7453 350.04 96.272 350.16 95.9253 350.4C95.592 350.64 95.4253 351.027 95.4253 351.56V352.18C95.4253 352.713 95.592 353.1 95.9253 353.34C96.272 353.58 96.7453 353.7 97.3453 353.7H100.145V350.04ZM119.81 357.9C120.25 357.9 120.59 357.773 120.83 357.52C121.07 357.267 121.19 356.887 121.19 356.38V351.3C121.19 350.793 121.07 350.413 120.83 350.16C120.59 349.907 120.25 349.78 119.81 349.78C119.57 349.78 119.356 349.827 119.17 349.92C118.983 350.013 118.83 350.18 118.71 350.42C118.59 350.66 118.496 350.987 118.43 351.4C118.363 351.8 118.33 352.313 118.33 352.94V354.74C118.33 355.367 118.363 355.887 118.43 356.3C118.496 356.7 118.59 357.02 118.71 357.26C118.83 357.5 118.983 357.667 119.17 357.76C119.356 357.853 119.57 357.9 119.81 357.9ZM121.19 357.94H121.13C120.903 358.407 120.636 358.74 120.33 358.94C120.036 359.14 119.696 359.24 119.31 359.24C118.91 359.24 118.55 359.16 118.23 359C117.923 358.827 117.663 358.533 117.45 358.12C117.236 357.707 117.076 357.153 116.97 356.46C116.863 355.767 116.81 354.893 116.81 353.84C116.81 352.787 116.863 351.913 116.97 351.22C117.076 350.527 117.236 349.973 117.45 349.56C117.663 349.147 117.923 348.86 118.23 348.7C118.55 348.527 118.91 348.44 119.31 348.44C119.696 348.44 120.036 348.54 120.33 348.74C120.636 348.94 120.903 349.273 121.13 349.74H121.19V344.8H122.67V349.74H122.73C122.956 349.273 123.216 348.94 123.51 348.74C123.816 348.54 124.163 348.44 124.55 348.44C124.95 348.44 125.303 348.527 125.61 348.7C125.93 348.86 126.196 349.147 126.41 349.56C126.623 349.973 126.783 350.527 126.89 351.22C126.996 351.913 127.05 352.787 127.05 353.84C127.05 354.893 126.996 355.767 126.89 356.46C126.783 357.153 126.623 357.707 126.41 358.12C126.196 358.533 125.93 358.827 125.61 359C125.303 359.16 124.95 359.24 124.55 359.24C124.163 359.24 123.816 359.14 123.51 358.94C123.216 358.74 122.956 358.407 122.73 357.94H122.67V363H121.19V357.94ZM124.05 357.9C124.29 357.9 124.503 357.853 124.69 357.76C124.876 357.667 125.03 357.5 125.15 357.26C125.27 357.02 125.363 356.7 125.43 356.3C125.496 355.887 125.53 355.367 125.53 354.74V352.94C125.53 352.313 125.496 351.8 125.43 351.4C125.363 350.987 125.27 350.66 125.15 350.42C125.03 350.18 124.876 350.013 124.69 349.92C124.503 349.827 124.29 349.78 124.05 349.78C123.61 349.78 123.27 349.907 123.03 350.16C122.79 350.413 122.67 350.793 122.67 351.3V356.38C122.67 356.887 122.79 357.267 123.03 357.52C123.27 357.773 123.61 357.9 124.05 357.9ZM133.922 359.24C133.202 359.24 132.549 359.113 131.962 358.86C131.389 358.607 130.895 358.247 130.482 357.78C130.082 357.3 129.775 356.733 129.562 356.08C129.349 355.413 129.242 354.667 129.242 353.84C129.242 353.027 129.349 352.287 129.562 351.62C129.775 350.953 130.082 350.387 130.482 349.92C130.895 349.44 131.389 349.073 131.962 348.82C132.549 348.567 133.202 348.44 133.922 348.44C134.642 348.44 135.289 348.567 135.862 348.82C136.449 349.073 136.942 349.44 137.342 349.92C137.755 350.387 138.069 350.953 138.282 351.62C138.495 352.287 138.602 353.027 138.602 353.84C138.602 354.667 138.495 355.413 138.282 356.08C138.069 356.733 137.755 357.3 137.342 357.78C136.942 358.247 136.449 358.607 135.862 358.86C135.289 359.113 134.642 359.24 133.922 359.24ZM133.922 357.86C134.815 357.86 135.535 357.593 136.082 357.06C136.629 356.527 136.902 355.7 136.902 354.58V353.1C136.902 351.98 136.629 351.153 136.082 350.62C135.535 350.087 134.815 349.82 133.922 349.82C133.029 349.82 132.309 350.087 131.762 350.62C131.215 351.153 130.942 351.98 130.942 353.1V354.58C130.942 355.7 131.215 356.527 131.762 357.06C132.309 357.593 133.029 357.86 133.922 357.86ZM141.814 348.68H143.414V350.36H143.494C144.161 349.08 145.221 348.44 146.674 348.44C147.941 348.44 148.927 348.913 149.634 349.86C150.354 350.807 150.714 352.133 150.714 353.84C150.714 355.547 150.354 356.873 149.634 357.82C148.927 358.767 147.941 359.24 146.674 359.24C145.221 359.24 144.161 358.6 143.494 357.32H143.414V363H141.814V348.68ZM146.054 357.82C146.987 357.82 147.707 357.54 148.214 356.98C148.734 356.407 148.994 355.653 148.994 354.72V352.96C148.994 352.027 148.734 351.28 148.214 350.72C147.707 350.147 146.987 349.86 146.054 349.86C145.694 349.86 145.354 349.907 145.034 350C144.714 350.093 144.434 350.233 144.194 350.42C143.954 350.593 143.761 350.813 143.614 351.08C143.481 351.333 143.414 351.633 143.414 351.98V355.7C143.414 356.047 143.481 356.353 143.614 356.62C143.761 356.873 143.954 357.093 144.194 357.28C144.434 357.453 144.714 357.587 145.034 357.68C145.354 357.773 145.694 357.82 146.054 357.82ZM153.346 348.68H155.546L157.926 353.94H158.046L160.426 348.68H162.466V359H160.926V352.54L160.986 350.7H160.866L157.906 357.24L154.946 350.7H154.826L154.886 352.54V359H153.346V348.68ZM173.798 359C173.172 359 172.725 358.84 172.458 358.52C172.192 358.2 172.025 357.8 171.958 357.32H171.858C171.632 357.92 171.265 358.393 170.758 358.74C170.265 359.073 169.598 359.24 168.758 359.24C167.678 359.24 166.818 358.96 166.178 358.4C165.538 357.84 165.218 357.073 165.218 356.1C165.218 355.14 165.565 354.4 166.258 353.88C166.965 353.36 168.098 353.1 169.658 353.1H171.858V352.08C171.858 351.32 171.645 350.753 171.218 350.38C170.792 349.993 170.185 349.8 169.398 349.8C168.705 349.8 168.138 349.94 167.698 350.22C167.258 350.487 166.905 350.853 166.638 351.32L165.558 350.52C165.692 350.253 165.872 349.993 166.098 349.74C166.325 349.487 166.605 349.267 166.938 349.08C167.272 348.88 167.652 348.727 168.078 348.62C168.505 348.5 168.978 348.44 169.498 348.44C170.712 348.44 171.672 348.747 172.378 349.36C173.098 349.973 173.458 350.827 173.458 351.92V357.6H174.898V359H173.798ZM169.038 357.9C169.452 357.9 169.825 357.853 170.158 357.76C170.505 357.653 170.805 357.52 171.058 357.36C171.312 357.187 171.505 356.987 171.638 356.76C171.785 356.52 171.858 356.267 171.858 356V354.3H169.658C168.698 354.3 167.998 354.433 167.558 354.7C167.118 354.967 166.898 355.353 166.898 355.86V356.28C166.898 356.813 167.085 357.22 167.458 357.5C167.845 357.767 168.372 357.9 169.038 357.9ZM181.031 356.28H183.611L181.311 361.82H179.971L181.031 356.28ZM206.235 359.24C205.488 359.24 204.822 359.113 204.235 358.86C203.662 358.593 203.175 358.227 202.775 357.76C202.375 357.293 202.068 356.727 201.855 356.06C201.655 355.393 201.555 354.653 201.555 353.84C201.555 353.027 201.662 352.287 201.875 351.62C202.088 350.953 202.395 350.387 202.795 349.92C203.195 349.44 203.682 349.073 204.255 348.82C204.828 348.567 205.482 348.44 206.215 348.44C207.215 348.44 208.028 348.66 208.655 349.1C209.282 349.54 209.742 350.113 210.035 350.82L208.755 351.5C208.568 350.967 208.255 350.553 207.815 350.26C207.388 349.967 206.855 349.82 206.215 349.82C205.748 349.82 205.328 349.9 204.955 350.06C204.595 350.207 204.288 350.42 204.035 350.7C203.782 350.98 203.588 351.313 203.455 351.7C203.335 352.087 203.275 352.507 203.275 352.96V354.72C203.275 355.173 203.335 355.593 203.455 355.98C203.588 356.367 203.782 356.7 204.035 356.98C204.288 357.26 204.602 357.48 204.975 357.64C205.348 357.787 205.775 357.86 206.255 357.86C206.948 357.86 207.522 357.7 207.975 357.38C208.428 357.06 208.788 356.62 209.055 356.06L210.195 356.84C209.888 357.533 209.408 358.107 208.755 358.56C208.115 359.013 207.275 359.24 206.235 359.24ZM213.307 348.68H215.507L217.887 353.94H218.007L220.387 348.68H222.427V359H220.887V352.54L220.947 350.7H220.827L217.867 357.24L214.907 350.7H214.787L214.847 352.54V359H213.307V348.68ZM225.219 357.64H226.379L227.279 355.94C227.439 355.633 227.613 355.4 227.799 355.24C227.986 355.08 228.213 354.98 228.479 354.94V354.86C227.639 354.82 226.953 354.553 226.419 354.06C225.899 353.553 225.639 352.82 225.639 351.86C225.639 350.873 225.939 350.1 226.539 349.54C227.139 348.967 227.966 348.68 229.019 348.68H233.659V359H232.059V355.02H229.559L228.139 357.68C227.899 358.12 227.639 358.453 227.359 358.68C227.093 358.893 226.746 359 226.319 359H225.219V357.64ZM232.059 350.04H229.259C228.659 350.04 228.186 350.16 227.839 350.4C227.506 350.64 227.339 351.027 227.339 351.56V352.18C227.339 352.713 227.506 353.1 227.839 353.34C228.186 353.58 228.659 353.7 229.259 353.7H232.059V350.04ZM238.552 348.68H245.952V350.04H240.152V359H238.552V348.68ZM256.044 354.26H255.944C255.57 354.673 255.144 354.987 254.664 355.2C254.197 355.4 253.597 355.5 252.864 355.5C251.744 355.5 250.89 355.24 250.304 354.72C249.73 354.187 249.444 353.387 249.444 352.32V348.68H251.044V352.18C251.044 352.82 251.224 353.293 251.584 353.6C251.944 353.907 252.53 354.06 253.344 354.06C254.144 354.06 254.79 353.96 255.284 353.76C255.79 353.547 256.044 353.227 256.044 352.8V348.68H257.644V359H256.044V354.26ZM269.736 359C269.109 359 268.663 358.84 268.396 358.52C268.129 358.2 267.963 357.8 267.896 357.32H267.796C267.569 357.92 267.203 358.393 266.696 358.74C266.203 359.073 265.536 359.24 264.696 359.24C263.616 359.24 262.756 358.96 262.116 358.4C261.476 357.84 261.156 357.073 261.156 356.1C261.156 355.14 261.503 354.4 262.196 353.88C262.903 353.36 264.036 353.1 265.596 353.1H267.796V352.08C267.796 351.32 267.583 350.753 267.156 350.38C266.729 349.993 266.123 349.8 265.336 349.8C264.643 349.8 264.076 349.94 263.636 350.22C263.196 350.487 262.843 350.853 262.576 351.32L261.496 350.52C261.629 350.253 261.809 349.993 262.036 349.74C262.263 349.487 262.543 349.267 262.876 349.08C263.209 348.88 263.589 348.727 264.016 348.62C264.443 348.5 264.916 348.44 265.436 348.44C266.649 348.44 267.609 348.747 268.316 349.36C269.036 349.973 269.396 350.827 269.396 351.92V357.6H270.836V359H269.736ZM264.976 357.9C265.389 357.9 265.763 357.853 266.096 357.76C266.443 357.653 266.743 357.52 266.996 357.36C267.249 357.187 267.443 356.987 267.576 356.76C267.723 356.52 267.796 356.267 267.796 356V354.3H265.596C264.636 354.3 263.936 354.433 263.496 354.7C263.056 354.967 262.836 355.353 262.836 355.86V356.28C262.836 356.813 263.023 357.22 263.396 357.5C263.783 357.767 264.309 357.9 264.976 357.9ZM278.008 359.24C277.261 359.24 276.588 359.113 275.988 358.86C275.401 358.607 274.895 358.247 274.468 357.78C274.055 357.3 273.735 356.733 273.508 356.08C273.281 355.413 273.168 354.673 273.168 353.86C273.168 353.033 273.281 352.287 273.508 351.62C273.748 350.953 274.075 350.387 274.488 349.92C274.901 349.44 275.395 349.073 275.968 348.82C276.555 348.567 277.201 348.44 277.908 348.44C278.601 348.44 279.228 348.567 279.788 348.82C280.361 349.073 280.848 349.427 281.248 349.88C281.648 350.32 281.955 350.847 282.168 351.46C282.381 352.073 282.488 352.747 282.488 353.48V354.24H274.848V354.72C274.848 355.173 274.921 355.593 275.068 355.98C275.215 356.367 275.421 356.7 275.688 356.98C275.968 357.26 276.301 357.48 276.688 357.64C277.088 357.787 277.528 357.86 278.008 357.86C278.701 357.86 279.301 357.7 279.808 357.38C280.315 357.06 280.701 356.62 280.968 356.06L282.148 356.86C281.841 357.553 281.328 358.127 280.608 358.58C279.901 359.02 279.035 359.24 278.008 359.24ZM277.908 349.76C277.468 349.76 277.061 349.84 276.688 350C276.315 350.16 275.988 350.38 275.708 350.66C275.441 350.94 275.228 351.273 275.068 351.66C274.921 352.033 274.848 352.447 274.848 352.9V353.04H280.768V352.82C280.768 352.367 280.695 351.953 280.548 351.58C280.415 351.207 280.221 350.887 279.968 350.62C279.728 350.34 279.428 350.127 279.068 349.98C278.721 349.833 278.335 349.76 277.908 349.76ZM289.02 350.04H285.22V348.68H294.42V350.04H290.62V359H289.02V350.04ZM13.2 401.04H9.4V399.68H18.6V401.04H14.8V410H13.2V401.04ZM26.1722 410.24C25.4255 410.24 24.7522 410.113 24.1522 409.86C23.5655 409.607 23.0589 409.247 22.6322 408.78C22.2189 408.3 21.8989 407.733 21.6722 407.08C21.4455 406.413 21.3322 405.673 21.3322 404.86C21.3322 404.033 21.4455 403.287 21.6722 402.62C21.9122 401.953 22.2389 401.387 22.6522 400.92C23.0655 400.44 23.5589 400.073 24.1322 399.82C24.7189 399.567 25.3655 399.44 26.0722 399.44C26.7655 399.44 27.3922 399.567 27.9522 399.82C28.5255 400.073 29.0122 400.427 29.4122 400.88C29.8122 401.32 30.1189 401.847 30.3322 402.46C30.5455 403.073 30.6522 403.747 30.6522 404.48V405.24H23.0122V405.72C23.0122 406.173 23.0855 406.593 23.2322 406.98C23.3789 407.367 23.5855 407.7 23.8522 407.98C24.1322 408.26 24.4655 408.48 24.8522 408.64C25.2522 408.787 25.6922 408.86 26.1722 408.86C26.8655 408.86 27.4655 408.7 27.9722 408.38C28.4789 408.06 28.8655 407.62 29.1322 407.06L30.3122 407.86C30.0055 408.553 29.4922 409.127 28.7722 409.58C28.0655 410.02 27.1989 410.24 26.1722 410.24ZM26.0722 400.76C25.6322 400.76 25.2255 400.84 24.8522 401C24.4789 401.16 24.1522 401.38 23.8722 401.66C23.6055 401.94 23.3922 402.273 23.2322 402.66C23.0855 403.033 23.0122 403.447 23.0122 403.9V404.04H28.9322V403.82C28.9322 403.367 28.8589 402.953 28.7122 402.58C28.5789 402.207 28.3855 401.887 28.1322 401.62C27.8922 401.34 27.5922 401.127 27.2322 400.98C26.8855 400.833 26.4989 400.76 26.0722 400.76ZM33.9244 399.68H42.0444V410H40.4444V401.04H35.5244V410H33.9244V399.68ZM44.4966 408.64H45.7766C45.9766 408.387 46.1499 408.087 46.2966 407.74C46.4566 407.393 46.5832 406.98 46.6766 406.5C46.7832 406.02 46.8632 405.467 46.9166 404.84C46.9699 404.2 46.9966 403.46 46.9966 402.62V399.68H53.8566V410H52.2566V401.04H48.5566V402.66C48.5566 404.527 48.4166 405.993 48.1366 407.06C47.8699 408.113 47.5099 408.867 47.0566 409.32C46.8032 409.573 46.5232 409.753 46.2166 409.86C45.9099 409.953 45.5432 410 45.1166 410H44.4966V408.64ZM61.9688 410.24C61.2488 410.24 60.5954 410.113 60.0088 409.86C59.4354 409.607 58.9421 409.247 58.5288 408.78C58.1288 408.3 57.8221 407.733 57.6088 407.08C57.3954 406.413 57.2887 405.667 57.2887 404.84C57.2887 404.027 57.3954 403.287 57.6088 402.62C57.8221 401.953 58.1288 401.387 58.5288 400.92C58.9421 400.44 59.4354 400.073 60.0088 399.82C60.5954 399.567 61.2488 399.44 61.9688 399.44C62.6888 399.44 63.3354 399.567 63.9088 399.82C64.4954 400.073 64.9888 400.44 65.3888 400.92C65.8021 401.387 66.1154 401.953 66.3288 402.62C66.5421 403.287 66.6488 404.027 66.6488 404.84C66.6488 405.667 66.5421 406.413 66.3288 407.08C66.1154 407.733 65.8021 408.3 65.3888 408.78C64.9888 409.247 64.4954 409.607 63.9088 409.86C63.3354 410.113 62.6888 410.24 61.9688 410.24ZM61.9688 408.86C62.8621 408.86 63.5821 408.593 64.1288 408.06C64.6754 407.527 64.9488 406.7 64.9488 405.58V404.1C64.9488 402.98 64.6754 402.153 64.1288 401.62C63.5821 401.087 62.8621 400.82 61.9688 400.82C61.0754 400.82 60.3554 401.087 59.8088 401.62C59.2621 402.153 58.9888 402.98 58.9888 404.1V405.58C58.9888 406.7 59.2621 407.527 59.8088 408.06C60.3554 408.593 61.0754 408.86 61.9688 408.86Z" fill="#26611D"/>
</svg>
