<svg width="322" height="485" viewBox="0 0 322 485" fill="none" xmlns="http://www.w3.org/2000/svg">
<rect x="0.743467" y="5.74347" width="320.513" height="478.513" fill="#D9D9D9" fill-opacity="0.33" stroke="black" stroke-width="1.48693"/>
<path d="M13.216 34.088H12.992V53H10.56V30.664H14.368L21.984 49.384H22.208V30.664H24.64V53H20.832L13.216 34.088ZM32.4355 30.664V44.072C32.4355 45.16 32.4675 46.1307 32.5315 46.984C32.5955 47.8373 32.7662 48.5733 33.0435 49.192C33.3208 49.7893 33.7475 50.248 34.3235 50.568C34.9208 50.888 35.7422 51.048 36.7875 51.048C37.8328 51.048 38.6435 50.888 39.2195 50.568C39.8168 50.248 40.2542 49.7893 40.5315 49.192C40.8088 48.5733 40.9795 47.8373 41.0435 46.984C41.1075 46.1307 41.1395 45.16 41.1395 44.072V30.664H43.8275V43.432C43.8275 45.096 43.7422 46.5467 43.5715 47.784C43.4222 49.0213 43.0915 50.056 42.5795 50.888C42.0888 51.72 41.3742 52.3493 40.4355 52.776C39.5182 53.1813 38.3022 53.384 36.7875 53.384C35.2728 53.384 34.0462 53.1813 33.1075 52.776C32.1902 52.3493 31.4755 51.72 30.9635 50.888C30.4728 50.056 30.1422 49.0213 29.9715 47.784C29.8222 46.5467 29.7475 45.096 29.7475 43.432V30.664H32.4355ZM49.191 30.664H56.775C58.695 30.664 60.199 31.1867 61.287 32.232C62.375 33.2773 62.919 34.6747 62.919 36.424C62.919 37.768 62.5883 38.824 61.927 39.592C61.287 40.36 60.455 40.904 59.431 41.224V41.32C60.6897 41.6187 61.7243 42.184 62.535 43.016C63.3457 43.8267 63.751 45.0107 63.751 46.568C63.751 47.464 63.6017 48.3067 63.303 49.096C63.0043 49.8853 62.5777 50.568 62.023 51.144C61.4897 51.72 60.8497 52.1787 60.103 52.52C59.3777 52.84 58.5883 53 57.735 53H49.191V30.664ZM56.935 50.664C58.1723 50.664 59.143 50.3867 59.847 49.832C60.551 49.2773 60.903 48.424 60.903 47.272V45.96C60.903 44.8293 60.551 43.9867 59.847 43.432C59.143 42.856 58.1723 42.568 56.935 42.568H51.879V50.664H56.935ZM56.487 40.36C57.6177 40.36 58.503 40.1147 59.143 39.624C59.783 39.112 60.103 38.344 60.103 37.32V36.072C60.103 35.048 59.783 34.28 59.143 33.768C58.503 33.256 57.6177 33 56.487 33H51.879V40.36H56.487ZM68.2505 53V50.856H73.8185V32.808H68.2505V30.664H82.0745V32.808H76.5065V50.856H82.0745V53H68.2505ZM94.286 53.384C92.2807 53.384 90.638 53.0213 89.358 52.296C88.078 51.5493 87.022 50.6 86.19 49.448L88.142 47.848C89.0167 48.936 89.934 49.7467 90.894 50.28C91.8753 50.8133 93.038 51.08 94.382 51.08C96.0033 51.08 97.2407 50.7067 98.094 49.96C98.9473 49.2133 99.374 48.168 99.374 46.824C99.374 45.736 99.0647 44.8933 98.446 44.296C97.8273 43.6773 96.75 43.24 95.214 42.984L92.718 42.568C91.63 42.376 90.7127 42.088 89.966 41.704C89.2407 41.32 88.654 40.8613 88.206 40.328C87.758 39.7733 87.438 39.176 87.246 38.536C87.054 37.8747 86.958 37.192 86.958 36.488C86.958 34.44 87.63 32.8933 88.974 31.848C90.318 30.8027 92.1313 30.28 94.414 30.28C96.206 30.28 97.71 30.5787 98.926 31.176C100.163 31.7733 101.155 32.616 101.902 33.704L100.014 35.336C99.3953 34.5253 98.6487 33.864 97.774 33.352C96.8993 32.84 95.7687 32.584 94.382 32.584C92.8673 32.584 91.7047 32.904 90.894 33.544C90.0833 34.184 89.678 35.144 89.678 36.424C89.678 37.4267 89.9767 38.248 90.574 38.888C91.1927 39.5067 92.2913 39.9547 93.87 40.232L96.27 40.648C97.358 40.84 98.2753 41.128 99.022 41.512C99.7687 41.896 100.366 42.3547 100.814 42.888C101.283 43.4213 101.614 44.0187 101.806 44.68C101.998 45.3413 102.094 46.0347 102.094 46.76C102.094 48.8293 101.411 50.4507 100.046 51.624C98.702 52.7973 96.782 53.384 94.286 53.384ZM105.858 44.456V42.088H121.218V44.456H105.858ZM130.901 53L124.277 30.664H127.125L130.293 41.832L132.693 50.28H132.853L135.253 41.832L138.421 30.664H141.173L134.549 53H130.901ZM159.497 53H144.585V50.248L152.041 43.528C153.129 42.5467 154.025 41.544 154.729 40.52C155.433 39.4747 155.785 38.376 155.785 37.224V36.84C155.785 35.496 155.433 34.4613 154.729 33.736C154.025 32.9893 152.979 32.616 151.593 32.616C150.227 32.616 149.171 32.968 148.425 33.672C147.699 34.3547 147.155 35.272 146.793 36.424L144.393 35.528C144.606 34.8667 144.894 34.2267 145.257 33.608C145.641 32.968 146.121 32.4027 146.697 31.912C147.273 31.4213 147.966 31.0267 148.777 30.728C149.609 30.4293 150.569 30.28 151.657 30.28C152.766 30.28 153.747 30.44 154.601 30.76C155.475 31.08 156.201 31.528 156.777 32.104C157.374 32.68 157.822 33.3627 158.121 34.152C158.441 34.9413 158.601 35.8053 158.601 36.744C158.601 37.5973 158.473 38.3973 158.217 39.144C157.982 39.8907 157.641 40.6053 157.193 41.288C156.766 41.9707 156.243 42.6427 155.625 43.304C155.027 43.944 154.355 44.584 153.609 45.224L147.369 50.664H159.497V53ZM9.8 257V243.04H14.88C16.1733 243.04 17.16 243.393 17.84 244.1C18.52 244.807 18.86 245.793 18.86 247.06C18.86 248.327 18.52 249.313 17.84 250.02C17.16 250.727 16.1733 251.08 14.88 251.08H11.48V257H9.8ZM11.48 249.62H14.84C15.5467 249.62 16.0933 249.447 16.48 249.1C16.88 248.74 17.08 248.233 17.08 247.58V246.54C17.08 245.887 16.88 245.387 16.48 245.04C16.0933 244.68 15.5467 244.5 14.84 244.5H11.48V249.62ZM26.1722 257.24C25.4255 257.24 24.7522 257.113 24.1522 256.86C23.5655 256.607 23.0589 256.247 22.6322 255.78C22.2189 255.3 21.8989 254.733 21.6722 254.08C21.4455 253.413 21.3322 252.673 21.3322 251.86C21.3322 251.033 21.4455 250.287 21.6722 249.62C21.9122 248.953 22.2389 248.387 22.6522 247.92C23.0655 247.44 23.5589 247.073 24.1322 246.82C24.7189 246.567 25.3655 246.44 26.0722 246.44C26.7655 246.44 27.3922 246.567 27.9522 246.82C28.5255 247.073 29.0122 247.427 29.4122 247.88C29.8122 248.32 30.1189 248.847 30.3322 249.46C30.5455 250.073 30.6522 250.747 30.6522 251.48V252.24H23.0122V252.72C23.0122 253.173 23.0855 253.593 23.2322 253.98C23.3789 254.367 23.5855 254.7 23.8522 254.98C24.1322 255.26 24.4655 255.48 24.8522 255.64C25.2522 255.787 25.6922 255.86 26.1722 255.86C26.8655 255.86 27.4655 255.7 27.9722 255.38C28.4789 255.06 28.8655 254.62 29.1322 254.06L30.3122 254.86C30.0055 255.553 29.4922 256.127 28.7722 256.58C28.0655 257.02 27.1989 257.24 26.1722 257.24ZM26.0722 247.76C25.6322 247.76 25.2255 247.84 24.8522 248C24.4789 248.16 24.1522 248.38 23.8722 248.66C23.6055 248.94 23.3922 249.273 23.2322 249.66C23.0855 250.033 23.0122 250.447 23.0122 250.9V251.04H28.9322V250.82C28.9322 250.367 28.8589 249.953 28.7122 249.58C28.5789 249.207 28.3855 248.887 28.1322 248.62C27.8922 248.34 27.5922 248.127 27.2322 247.98C26.8855 247.833 26.4989 247.76 26.0722 247.76ZM34.6844 246.68H42.0844V248.04H36.2844V257H34.6844V246.68ZM53.3166 246.68H54.9166L49.7966 259.26C49.6766 259.553 49.5432 259.807 49.3966 260.02C49.2499 260.247 49.0766 260.427 48.8766 260.56C48.6766 260.707 48.4366 260.813 48.1566 260.88C47.8766 260.96 47.5432 261 47.1566 261H45.6366V259.64H48.0366L49.1966 256.8L45.0366 246.68H46.6766L48.4166 251L49.9566 254.92H50.0366L51.5766 251L53.3166 246.68ZM56.4888 255.64H57.7688C57.9688 255.387 58.1421 255.087 58.2888 254.74C58.4488 254.393 58.5754 253.98 58.6688 253.5C58.7754 253.02 58.8554 252.467 58.9087 251.84C58.9621 251.2 58.9888 250.46 58.9888 249.62V246.68H65.8488V257H64.2488V248.04H60.5488V249.66C60.5488 251.527 60.4088 252.993 60.1288 254.06C59.8621 255.113 59.5021 255.867 59.0488 256.32C58.7954 256.573 58.5154 256.753 58.2088 256.86C57.9021 256.953 57.5354 257 57.1088 257H56.4888V255.64ZM69.3209 255.64H70.4809L71.3809 253.94C71.5409 253.633 71.7143 253.4 71.9009 253.24C72.0876 253.08 72.3143 252.98 72.5809 252.94V252.86C71.7409 252.82 71.0543 252.553 70.5209 252.06C70.0009 251.553 69.7409 250.82 69.7409 249.86C69.7409 248.873 70.0409 248.1 70.6409 247.54C71.2409 246.967 72.0676 246.68 73.1209 246.68H77.7609V257H76.1609V253.02H73.6609L72.2409 255.68C72.0009 256.12 71.7409 256.453 71.4609 256.68C71.1943 256.893 70.8476 257 70.4209 257H69.3209V255.64ZM76.1609 248.04H73.3609C72.7609 248.04 72.2876 248.16 71.9409 248.4C71.6076 248.64 71.4409 249.027 71.4409 249.56V250.18C71.4409 250.713 71.6076 251.1 71.9409 251.34C72.2876 251.58 72.7609 251.7 73.3609 251.7H76.1609V248.04ZM89.8931 257H81.6331V246.68H83.2331V255.64H88.0531V246.68H89.6531V255.64H91.3531V259.8H89.8931V257ZM93.8453 246.68H95.4453V251.94L95.2853 254.58H95.3653L100.545 246.68H102.045V257H100.445V251.74L100.605 249.1H100.525L95.3453 257H93.8453V246.68ZM105.298 255.64H106.458L107.358 253.94C107.518 253.633 107.691 253.4 107.878 253.24C108.064 253.08 108.291 252.98 108.558 252.94V252.86C107.718 252.82 107.031 252.553 106.498 252.06C105.978 251.553 105.718 250.82 105.718 249.86C105.718 248.873 106.018 248.1 106.618 247.54C107.218 246.967 108.044 246.68 109.098 246.68H113.738V257H112.138V253.02H109.638L108.218 255.68C107.978 256.12 107.718 256.453 107.438 256.68C107.171 256.893 106.824 257 106.398 257H105.298V255.64ZM112.138 248.04H109.338C108.738 248.04 108.264 248.16 107.918 248.4C107.584 248.64 107.418 249.027 107.418 249.56V250.18C107.418 250.713 107.584 251.1 107.918 251.34C108.264 251.58 108.738 251.7 109.338 251.7H112.138V248.04ZM130.062 246.68H135.322C136.162 246.68 136.822 246.92 137.302 247.4C137.782 247.867 138.022 248.5 138.022 249.3C138.022 250.593 137.349 251.32 136.002 251.48V251.56C136.802 251.627 137.395 251.88 137.782 252.32C138.182 252.747 138.382 253.28 138.382 253.92C138.382 254.333 138.315 254.727 138.182 255.1C138.049 255.473 137.855 255.8 137.602 256.08C137.349 256.36 137.035 256.587 136.662 256.76C136.289 256.92 135.862 257 135.382 257H130.062V246.68ZM134.982 255.72C135.529 255.72 135.949 255.587 136.242 255.32C136.535 255.053 136.682 254.687 136.682 254.22V253.76C136.682 253.293 136.535 252.933 136.242 252.68C135.962 252.413 135.582 252.28 135.102 252.28H131.662V255.72H134.982ZM134.902 251.02C135.342 251.02 135.689 250.907 135.942 250.68C136.195 250.453 136.322 250.133 136.322 249.72V249.28C136.322 248.867 136.195 248.547 135.942 248.32C135.689 248.08 135.342 247.96 134.902 247.96H131.662V251.02H134.902ZM140.434 255.64H141.714C141.914 255.387 142.087 255.087 142.234 254.74C142.394 254.393 142.521 253.98 142.614 253.5C142.721 253.02 142.801 252.467 142.854 251.84C142.907 251.2 142.934 250.46 142.934 249.62V246.68H149.794V257H148.194V248.04H144.494V249.66C144.494 251.527 144.354 252.993 144.074 254.06C143.807 255.113 143.447 255.867 142.994 256.32C142.741 256.573 142.461 256.753 142.154 256.86C141.847 256.953 141.481 257 141.054 257H140.434V255.64ZM161.806 257C161.18 257 160.733 256.84 160.466 256.52C160.2 256.2 160.033 255.8 159.966 255.32H159.866C159.64 255.92 159.273 256.393 158.766 256.74C158.273 257.073 157.606 257.24 156.766 257.24C155.686 257.24 154.826 256.96 154.186 256.4C153.546 255.84 153.226 255.073 153.226 254.1C153.226 253.14 153.573 252.4 154.266 251.88C154.973 251.36 156.106 251.1 157.666 251.1H159.866V250.08C159.866 249.32 159.653 248.753 159.226 248.38C158.8 247.993 158.193 247.8 157.406 247.8C156.713 247.8 156.146 247.94 155.706 248.22C155.266 248.487 154.913 248.853 154.646 249.32L153.566 248.52C153.7 248.253 153.88 247.993 154.106 247.74C154.333 247.487 154.613 247.267 154.946 247.08C155.28 246.88 155.66 246.727 156.086 246.62C156.513 246.5 156.986 246.44 157.506 246.44C158.72 246.44 159.68 246.747 160.386 247.36C161.106 247.973 161.466 248.827 161.466 249.92V255.6H162.906V257H161.806ZM157.046 255.9C157.46 255.9 157.833 255.853 158.166 255.76C158.513 255.653 158.813 255.52 159.066 255.36C159.32 255.187 159.513 254.987 159.646 254.76C159.793 254.52 159.866 254.267 159.866 254V252.3H157.666C156.706 252.3 156.006 252.433 155.566 252.7C155.126 252.967 154.906 253.353 154.906 253.86V254.28C154.906 254.813 155.093 255.22 155.466 255.5C155.853 255.767 156.38 255.9 157.046 255.9ZM169.158 252.34H167.398L166.098 257H164.498L165.638 252.94C165.852 252.207 166.225 251.8 166.758 251.72V251.64C166.252 251.52 165.905 251.127 165.718 250.46L164.618 246.68H166.138L167.398 251.02H169.158V246.68H170.638V251.02H172.398L173.678 246.68H175.178L174.058 250.46C173.952 250.807 173.818 251.073 173.658 251.26C173.512 251.447 173.305 251.573 173.038 251.64V251.72C173.612 251.8 173.992 252.207 174.178 252.94L175.298 257H173.678L172.398 252.34H170.638V257H169.158V252.34ZM177.791 246.68H179.391V251H184.391V246.68H185.991V257H184.391V252.36H179.391V257H177.791V246.68ZM193.883 257.24C193.163 257.24 192.509 257.113 191.923 256.86C191.349 256.607 190.856 256.247 190.443 255.78C190.043 255.3 189.736 254.733 189.523 254.08C189.309 253.413 189.203 252.667 189.203 251.84C189.203 251.027 189.309 250.287 189.523 249.62C189.736 248.953 190.043 248.387 190.443 247.92C190.856 247.44 191.349 247.073 191.923 246.82C192.509 246.567 193.163 246.44 193.883 246.44C194.603 246.44 195.249 246.567 195.823 246.82C196.409 247.073 196.903 247.44 197.303 247.92C197.716 248.387 198.029 248.953 198.243 249.62C198.456 250.287 198.563 251.027 198.563 251.84C198.563 252.667 198.456 253.413 198.243 254.08C198.029 254.733 197.716 255.3 197.303 255.78C196.903 256.247 196.409 256.607 195.823 256.86C195.249 257.113 194.603 257.24 193.883 257.24ZM193.883 255.86C194.776 255.86 195.496 255.593 196.043 255.06C196.589 254.527 196.863 253.7 196.863 252.58V251.1C196.863 249.98 196.589 249.153 196.043 248.62C195.496 248.087 194.776 247.82 193.883 247.82C192.989 247.82 192.269 248.087 191.723 248.62C191.176 249.153 190.903 249.98 190.903 251.1V252.58C190.903 253.7 191.176 254.527 191.723 255.06C192.269 255.593 192.989 255.86 193.883 255.86ZM206.235 257.24C205.488 257.24 204.822 257.113 204.235 256.86C203.662 256.593 203.175 256.227 202.775 255.76C202.375 255.293 202.068 254.727 201.855 254.06C201.655 253.393 201.555 252.653 201.555 251.84C201.555 251.027 201.662 250.287 201.875 249.62C202.088 248.953 202.395 248.387 202.795 247.92C203.195 247.44 203.682 247.073 204.255 246.82C204.828 246.567 205.482 246.44 206.215 246.44C207.215 246.44 208.028 246.66 208.655 247.1C209.282 247.54 209.742 248.113 210.035 248.82L208.755 249.5C208.568 248.967 208.255 248.553 207.815 248.26C207.388 247.967 206.855 247.82 206.215 247.82C205.748 247.82 205.328 247.9 204.955 248.06C204.595 248.207 204.288 248.42 204.035 248.7C203.782 248.98 203.588 249.313 203.455 249.7C203.335 250.087 203.275 250.507 203.275 250.96V252.72C203.275 253.173 203.335 253.593 203.455 253.98C203.588 254.367 203.782 254.7 204.035 254.98C204.288 255.26 204.602 255.48 204.975 255.64C205.348 255.787 205.775 255.86 206.255 255.86C206.948 255.86 207.522 255.7 207.975 255.38C208.428 255.06 208.788 254.62 209.055 254.06L210.195 254.84C209.888 255.533 209.408 256.107 208.755 256.56C208.115 257.013 207.275 257.24 206.235 257.24ZM217.067 248.04H213.267V246.68H222.467V248.04H218.667V257H217.067V248.04ZM225.759 246.68H227.359V251.94L227.199 254.58H227.279L232.459 246.68H233.959V257H232.359V251.74L232.519 249.1H232.439L227.259 257H225.759V246.68ZM9.66 345.04H18.34V359H16.66V346.5H11.34V359H9.66V345.04ZM25.9922 359.24C25.2722 359.24 24.6189 359.113 24.0322 358.86C23.4589 358.607 22.9655 358.247 22.5522 357.78C22.1522 357.3 21.8455 356.733 21.6322 356.08C21.4189 355.413 21.3122 354.667 21.3122 353.84C21.3122 353.027 21.4189 352.287 21.6322 351.62C21.8455 350.953 22.1522 350.387 22.5522 349.92C22.9655 349.44 23.4589 349.073 24.0322 348.82C24.6189 348.567 25.2722 348.44 25.9922 348.44C26.7122 348.44 27.3589 348.567 27.9322 348.82C28.5189 349.073 29.0122 349.44 29.4122 349.92C29.8255 350.387 30.1389 350.953 30.3522 351.62C30.5655 352.287 30.6722 353.027 30.6722 353.84C30.6722 354.667 30.5655 355.413 30.3522 356.08C30.1389 356.733 29.8255 357.3 29.4122 357.78C29.0122 358.247 28.5189 358.607 27.9322 358.86C27.3589 359.113 26.7122 359.24 25.9922 359.24ZM25.9922 357.86C26.8855 357.86 27.6055 357.593 28.1522 357.06C28.6989 356.527 28.9722 355.7 28.9722 354.58V353.1C28.9722 351.98 28.6989 351.153 28.1522 350.62C27.6055 350.087 26.8855 349.82 25.9922 349.82C25.0989 349.82 24.3789 350.087 23.8322 350.62C23.2855 351.153 23.0122 351.98 23.0122 353.1V354.58C23.0122 355.7 23.2855 356.527 23.8322 357.06C24.3789 357.593 25.0989 357.86 25.9922 357.86ZM32.5044 357.64H33.7844C33.9844 357.387 34.1577 357.087 34.3044 356.74C34.4644 356.393 34.591 355.98 34.6844 355.5C34.791 355.02 34.871 354.467 34.9244 353.84C34.9777 353.2 35.0044 352.46 35.0044 351.62V348.68H41.8644V359H40.2644V350.04H36.5644V351.66C36.5644 353.527 36.4244 354.993 36.1444 356.06C35.8777 357.113 35.5177 357.867 35.0644 358.32C34.811 358.573 34.531 358.753 34.2244 358.86C33.9177 358.953 33.551 359 33.1244 359H32.5044V357.64ZM53.3166 348.68H54.9166L49.7966 361.26C49.6766 361.553 49.5432 361.807 49.3966 362.02C49.2499 362.247 49.0766 362.427 48.8766 362.56C48.6766 362.707 48.4366 362.813 48.1566 362.88C47.8766 362.96 47.5432 363 47.1566 363H45.6366V361.64H48.0366L49.1966 358.8L45.0366 348.68H46.6766L48.4166 353L49.9566 356.92H50.0366L51.5766 353L53.3166 348.68ZM57.9088 348.68H66.0288V359H64.4288V350.04H59.5088V359H57.9088V348.68ZM69.8609 348.68H71.4609V350.36H71.5409C72.2076 349.08 73.2676 348.44 74.7209 348.44C75.9876 348.44 76.9743 348.913 77.6809 349.86C78.4009 350.807 78.7609 352.133 78.7609 353.84C78.7609 355.547 78.4009 356.873 77.6809 357.82C76.9743 358.767 75.9876 359.24 74.7209 359.24C73.2676 359.24 72.2076 358.6 71.5409 357.32H71.4609V363H69.8609V348.68ZM74.1009 357.82C75.0343 357.82 75.7543 357.54 76.2609 356.98C76.7809 356.407 77.0409 355.653 77.0409 354.72V352.96C77.0409 352.027 76.7809 351.28 76.2609 350.72C75.7543 350.147 75.0343 349.86 74.1009 349.86C73.7409 349.86 73.4009 349.907 73.0809 350C72.7609 350.093 72.4809 350.233 72.2409 350.42C72.0009 350.593 71.8076 350.813 71.6609 351.08C71.5276 351.333 71.4609 351.633 71.4609 351.98V355.7C71.4609 356.047 71.5276 356.353 71.6609 356.62C71.8076 356.873 72.0009 357.093 72.2409 357.28C72.4809 357.453 72.7609 357.587 73.0809 357.68C73.4009 357.773 73.7409 357.82 74.1009 357.82ZM85.9531 359.24C85.2331 359.24 84.5798 359.113 83.9931 358.86C83.4198 358.607 82.9265 358.247 82.5131 357.78C82.1131 357.3 81.8065 356.733 81.5931 356.08C81.3798 355.413 81.2731 354.667 81.2731 353.84C81.2731 353.027 81.3798 352.287 81.5931 351.62C81.8065 350.953 82.1131 350.387 82.5131 349.92C82.9265 349.44 83.4198 349.073 83.9931 348.82C84.5798 348.567 85.2331 348.44 85.9531 348.44C86.6731 348.44 87.3198 348.567 87.8931 348.82C88.4798 349.073 88.9731 349.44 89.3731 349.92C89.7865 350.387 90.0998 350.953 90.3131 351.62C90.5265 352.287 90.6331 353.027 90.6331 353.84C90.6331 354.667 90.5265 355.413 90.3131 356.08C90.0998 356.733 89.7865 357.3 89.3731 357.78C88.9731 358.247 88.4798 358.607 87.8931 358.86C87.3198 359.113 86.6731 359.24 85.9531 359.24ZM85.9531 357.86C86.8465 357.86 87.5665 357.593 88.1131 357.06C88.6598 356.527 88.9331 355.7 88.9331 354.58V353.1C88.9331 351.98 88.6598 351.153 88.1131 350.62C87.5665 350.087 86.8465 349.82 85.9531 349.82C85.0598 349.82 84.3398 350.087 83.7931 350.62C83.2465 351.153 82.9731 351.98 82.9731 353.1V354.58C82.9731 355.7 83.2465 356.527 83.7931 357.06C84.3398 357.593 85.0598 357.86 85.9531 357.86ZM97.5253 359.24C96.4586 359.24 95.572 359.067 94.8653 358.72C94.172 358.373 93.6053 357.88 93.1653 357.24L94.3453 356.28C94.6653 356.787 95.0853 357.18 95.6053 357.46C96.1253 357.727 96.7653 357.86 97.5253 357.86C98.4853 357.86 99.1786 357.707 99.6053 357.4C100.032 357.093 100.245 356.7 100.245 356.22V355.94C100.245 355.42 100.072 355.027 99.7253 354.76C99.392 354.48 98.9053 354.34 98.2653 354.34H95.4853V353H98.0653C99.372 353 100.025 352.513 100.025 351.54V351.3C100.025 350.86 99.8386 350.507 99.4653 350.24C99.1053 349.96 98.472 349.82 97.5653 349.82C96.7653 349.82 96.1186 349.953 95.6253 350.22C95.1453 350.487 94.752 350.86 94.4453 351.34L93.3253 350.58C93.792 349.9 94.3586 349.373 95.0253 349C95.692 348.627 96.5653 348.44 97.6453 348.44C99.0186 348.44 100.039 348.687 100.705 349.18C101.385 349.673 101.725 350.353 101.725 351.22C101.725 351.86 101.559 352.367 101.225 352.74C100.892 353.113 100.425 353.373 99.8253 353.52V353.6C100.519 353.707 101.045 353.973 101.405 354.4C101.765 354.813 101.945 355.347 101.945 356C101.945 357 101.559 357.793 100.785 358.38C100.025 358.953 98.9386 359.24 97.5253 359.24ZM105.838 348.68H107.438V350.36H107.518C108.184 349.08 109.244 348.44 110.698 348.44C111.964 348.44 112.951 348.913 113.658 349.86C114.378 350.807 114.738 352.133 114.738 353.84C114.738 355.547 114.378 356.873 113.658 357.82C112.951 358.767 111.964 359.24 110.698 359.24C109.244 359.24 108.184 358.6 107.518 357.32H107.438V363H105.838V348.68ZM110.078 357.82C111.011 357.82 111.731 357.54 112.238 356.98C112.758 356.407 113.018 355.653 113.018 354.72V352.96C113.018 352.027 112.758 351.28 112.238 350.72C111.731 350.147 111.011 349.86 110.078 349.86C109.718 349.86 109.378 349.907 109.058 350C108.738 350.093 108.458 350.233 108.218 350.42C107.978 350.593 107.784 350.813 107.638 351.08C107.504 351.333 107.438 351.633 107.438 351.98V355.7C107.438 356.047 107.504 356.353 107.638 356.62C107.784 356.873 107.978 357.093 108.218 357.28C108.458 357.453 108.738 357.587 109.058 357.68C109.378 357.773 109.718 357.82 110.078 357.82ZM125.83 359C125.203 359 124.756 358.84 124.49 358.52C124.223 358.2 124.056 357.8 123.99 357.32H123.89C123.663 357.92 123.296 358.393 122.79 358.74C122.296 359.073 121.63 359.24 120.79 359.24C119.71 359.24 118.85 358.96 118.21 358.4C117.57 357.84 117.25 357.073 117.25 356.1C117.25 355.14 117.596 354.4 118.29 353.88C118.996 353.36 120.13 353.1 121.69 353.1H123.89V352.08C123.89 351.32 123.676 350.753 123.25 350.38C122.823 349.993 122.216 349.8 121.43 349.8C120.736 349.8 120.17 349.94 119.73 350.22C119.29 350.487 118.936 350.853 118.67 351.32L117.59 350.52C117.723 350.253 117.903 349.993 118.13 349.74C118.356 349.487 118.636 349.267 118.97 349.08C119.303 348.88 119.683 348.727 120.11 348.62C120.536 348.5 121.01 348.44 121.53 348.44C122.743 348.44 123.703 348.747 124.41 349.36C125.13 349.973 125.49 350.827 125.49 351.92V357.6H126.93V359H125.83ZM121.07 357.9C121.483 357.9 121.856 357.853 122.19 357.76C122.536 357.653 122.836 357.52 123.09 357.36C123.343 357.187 123.536 356.987 123.67 356.76C123.816 356.52 123.89 356.267 123.89 356V354.3H121.69C120.73 354.3 120.03 354.433 119.59 354.7C119.15 354.967 118.93 355.353 118.93 355.86V356.28C118.93 356.813 119.116 357.22 119.49 357.5C119.876 357.767 120.403 357.9 121.07 357.9ZM136.122 354.26H136.022C135.649 354.673 135.222 354.987 134.742 355.2C134.275 355.4 133.675 355.5 132.942 355.5C131.822 355.5 130.969 355.24 130.382 354.72C129.809 354.187 129.522 353.387 129.522 352.32V348.68H131.122V352.18C131.122 352.82 131.302 353.293 131.662 353.6C132.022 353.907 132.609 354.06 133.422 354.06C134.222 354.06 134.869 353.96 135.362 353.76C135.869 353.547 136.122 353.227 136.122 352.8V348.68H137.722V359H136.122V354.26ZM141.814 348.68H143.414V353H148.414V348.68H150.014V359H148.414V354.36H143.414V359H141.814V348.68ZM152.986 348.68H154.586V352.42H156.326C157.366 352.42 158.193 352.713 158.806 353.3C159.42 353.887 159.726 354.693 159.726 355.72C159.726 356.76 159.426 357.567 158.826 358.14C158.226 358.713 157.4 359 156.346 359H152.986V348.68ZM156.106 357.64C156.706 357.64 157.173 357.52 157.506 357.28C157.853 357.04 158.026 356.653 158.026 356.12V355.28C158.026 354.747 157.853 354.367 157.506 354.14C157.173 353.9 156.706 353.78 156.106 353.78H154.586V357.64H156.106ZM161.226 348.68H162.826V359H161.226V348.68ZM170.078 359.24C169.332 359.24 168.658 359.113 168.058 358.86C167.472 358.607 166.965 358.247 166.538 357.78C166.125 357.3 165.805 356.733 165.578 356.08C165.352 355.413 165.238 354.673 165.238 353.86C165.238 353.033 165.352 352.287 165.578 351.62C165.818 350.953 166.145 350.387 166.558 349.92C166.972 349.44 167.465 349.073 168.038 348.82C168.625 348.567 169.272 348.44 169.978 348.44C170.672 348.44 171.298 348.567 171.858 348.82C172.432 349.073 172.918 349.427 173.318 349.88C173.718 350.32 174.025 350.847 174.238 351.46C174.452 352.073 174.558 352.747 174.558 353.48V354.24H166.918V354.72C166.918 355.173 166.992 355.593 167.138 355.98C167.285 356.367 167.492 356.7 167.758 356.98C168.038 357.26 168.372 357.48 168.758 357.64C169.158 357.787 169.598 357.86 170.078 357.86C170.772 357.86 171.372 357.7 171.878 357.38C172.385 357.06 172.772 356.62 173.038 356.06L174.218 356.86C173.912 357.553 173.398 358.127 172.678 358.58C171.972 359.02 171.105 359.24 170.078 359.24ZM169.978 349.76C169.538 349.76 169.132 349.84 168.758 350C168.385 350.16 168.058 350.38 167.778 350.66C167.512 350.94 167.298 351.273 167.138 351.66C166.992 352.033 166.918 352.447 166.918 352.9V353.04H172.838V352.82C172.838 352.367 172.765 351.953 172.618 351.58C172.485 351.207 172.292 350.887 172.038 350.62C171.798 350.34 171.498 350.127 171.138 349.98C170.792 349.833 170.405 349.76 169.978 349.76ZM191.763 357.9C192.203 357.9 192.543 357.773 192.783 357.52C193.023 357.267 193.143 356.887 193.143 356.38V351.3C193.143 350.793 193.023 350.413 192.783 350.16C192.543 349.907 192.203 349.78 191.763 349.78C191.523 349.78 191.309 349.827 191.123 349.92C190.936 350.013 190.783 350.18 190.663 350.42C190.543 350.66 190.449 350.987 190.383 351.4C190.316 351.8 190.283 352.313 190.283 352.94V354.74C190.283 355.367 190.316 355.887 190.383 356.3C190.449 356.7 190.543 357.02 190.663 357.26C190.783 357.5 190.936 357.667 191.123 357.76C191.309 357.853 191.523 357.9 191.763 357.9ZM193.143 357.94H193.083C192.856 358.407 192.589 358.74 192.283 358.94C191.989 359.14 191.649 359.24 191.263 359.24C190.863 359.24 190.503 359.16 190.183 359C189.876 358.827 189.616 358.533 189.403 358.12C189.189 357.707 189.029 357.153 188.923 356.46C188.816 355.767 188.763 354.893 188.763 353.84C188.763 352.787 188.816 351.913 188.923 351.22C189.029 350.527 189.189 349.973 189.403 349.56C189.616 349.147 189.876 348.86 190.183 348.7C190.503 348.527 190.863 348.44 191.263 348.44C191.649 348.44 191.989 348.54 192.283 348.74C192.589 348.94 192.856 349.273 193.083 349.74H193.143V344.8H194.623V349.74H194.683C194.909 349.273 195.169 348.94 195.463 348.74C195.769 348.54 196.116 348.44 196.503 348.44C196.903 348.44 197.256 348.527 197.563 348.7C197.883 348.86 198.149 349.147 198.363 349.56C198.576 349.973 198.736 350.527 198.843 351.22C198.949 351.913 199.003 352.787 199.003 353.84C199.003 354.893 198.949 355.767 198.843 356.46C198.736 357.153 198.576 357.707 198.363 358.12C198.149 358.533 197.883 358.827 197.563 359C197.256 359.16 196.903 359.24 196.503 359.24C196.116 359.24 195.769 359.14 195.463 358.94C195.169 358.74 194.909 358.407 194.683 357.94H194.623V363H193.143V357.94ZM196.003 357.9C196.243 357.9 196.456 357.853 196.643 357.76C196.829 357.667 196.983 357.5 197.103 357.26C197.223 357.02 197.316 356.7 197.383 356.3C197.449 355.887 197.483 355.367 197.483 354.74V352.94C197.483 352.313 197.449 351.8 197.383 351.4C197.316 350.987 197.223 350.66 197.103 350.42C196.983 350.18 196.829 350.013 196.643 349.92C196.456 349.827 196.243 349.78 196.003 349.78C195.563 349.78 195.223 349.907 194.983 350.16C194.743 350.413 194.623 350.793 194.623 351.3V356.38C194.623 356.887 194.743 357.267 194.983 357.52C195.223 357.773 195.563 357.9 196.003 357.9ZM205.875 359.24C205.155 359.24 204.502 359.113 203.915 358.86C203.342 358.607 202.848 358.247 202.435 357.78C202.035 357.3 201.728 356.733 201.515 356.08C201.302 355.413 201.195 354.667 201.195 353.84C201.195 353.027 201.302 352.287 201.515 351.62C201.728 350.953 202.035 350.387 202.435 349.92C202.848 349.44 203.342 349.073 203.915 348.82C204.502 348.567 205.155 348.44 205.875 348.44C206.595 348.44 207.242 348.567 207.815 348.82C208.402 349.073 208.895 349.44 209.295 349.92C209.708 350.387 210.022 350.953 210.235 351.62C210.448 352.287 210.555 353.027 210.555 353.84C210.555 354.667 210.448 355.413 210.235 356.08C210.022 356.733 209.708 357.3 209.295 357.78C208.895 358.247 208.402 358.607 207.815 358.86C207.242 359.113 206.595 359.24 205.875 359.24ZM205.875 357.86C206.768 357.86 207.488 357.593 208.035 357.06C208.582 356.527 208.855 355.7 208.855 354.58V353.1C208.855 351.98 208.582 351.153 208.035 350.62C207.488 350.087 206.768 349.82 205.875 349.82C204.982 349.82 204.262 350.087 203.715 350.62C203.168 351.153 202.895 351.98 202.895 353.1V354.58C202.895 355.7 203.168 356.527 203.715 357.06C204.262 357.593 204.982 357.86 205.875 357.86ZM213.767 348.68H215.367V350.36H215.447C216.114 349.08 217.174 348.44 218.627 348.44C219.894 348.44 220.881 348.913 221.587 349.86C222.307 350.807 222.667 352.133 222.667 353.84C222.667 355.547 222.307 356.873 221.587 357.82C220.881 358.767 219.894 359.24 218.627 359.24C217.174 359.24 216.114 358.6 215.447 357.32H215.367V363H213.767V348.68ZM218.007 357.82C218.941 357.82 219.661 357.54 220.167 356.98C220.687 356.407 220.947 355.653 220.947 354.72V352.96C220.947 352.027 220.687 351.28 220.167 350.72C219.661 350.147 218.941 349.86 218.007 349.86C217.647 349.86 217.307 349.907 216.987 350C216.667 350.093 216.387 350.233 216.147 350.42C215.907 350.593 215.714 350.813 215.567 351.08C215.434 351.333 215.367 351.633 215.367 351.98V355.7C215.367 356.047 215.434 356.353 215.567 356.62C215.714 356.873 215.907 357.093 216.147 357.28C216.387 357.453 216.667 357.587 216.987 357.68C217.307 357.773 217.647 357.82 218.007 357.82ZM225.299 348.68H227.499L229.879 353.94H229.999L232.379 348.68H234.419V359H232.879V352.54L232.939 350.7H232.819L229.859 357.24L226.899 350.7H226.779L226.839 352.54V359H225.299V348.68ZM236.932 348.68H238.532V352.42H240.272C241.312 352.42 242.138 352.713 242.752 353.3C243.365 353.887 243.672 354.693 243.672 355.72C243.672 356.76 243.372 357.567 242.772 358.14C242.172 358.713 241.345 359 240.292 359H236.932V348.68ZM240.052 357.64C240.652 357.64 241.118 357.52 241.452 357.28C241.798 357.04 241.972 356.653 241.972 356.12V355.28C241.972 354.747 241.798 354.367 241.452 354.14C241.118 353.9 240.652 353.78 240.052 353.78H238.532V357.64H240.052ZM245.172 348.68H246.772V359H245.172V348.68ZM252.984 356.28H255.564L253.264 361.82H251.924L252.984 356.28ZM9.9 399.68H11.5V401.36H11.58C12.2467 400.08 13.3067 399.44 14.76 399.44C16.0267 399.44 17.0133 399.913 17.72 400.86C18.44 401.807 18.8 403.133 18.8 404.84C18.8 406.547 18.44 407.873 17.72 408.82C17.0133 409.767 16.0267 410.24 14.76 410.24C13.3067 410.24 12.2467 409.6 11.58 408.32H11.5V414H9.9V399.68ZM14.14 408.82C15.0733 408.82 15.7933 408.54 16.3 407.98C16.82 407.407 17.08 406.653 17.08 405.72V403.96C17.08 403.027 16.82 402.28 16.3 401.72C15.7933 401.147 15.0733 400.86 14.14 400.86C13.78 400.86 13.44 400.907 13.12 401C12.8 401.093 12.52 401.233 12.28 401.42C12.04 401.593 11.8467 401.813 11.7 402.08C11.5667 402.333 11.5 402.633 11.5 402.98V406.7C11.5 407.047 11.5667 407.353 11.7 407.62C11.8467 407.873 12.04 408.093 12.28 408.28C12.52 408.453 12.8 408.587 13.12 408.68C13.44 408.773 13.78 408.82 14.14 408.82ZM29.8922 410C29.2655 410 28.8189 409.84 28.5522 409.52C28.2855 409.2 28.1189 408.8 28.0522 408.32H27.9522C27.7255 408.92 27.3589 409.393 26.8522 409.74C26.3589 410.073 25.6922 410.24 24.8522 410.24C23.7722 410.24 22.9122 409.96 22.2722 409.4C21.6322 408.84 21.3122 408.073 21.3122 407.1C21.3122 406.14 21.6589 405.4 22.3522 404.88C23.0589 404.36 24.1922 404.1 25.7522 404.1H27.9522V403.08C27.9522 402.32 27.7389 401.753 27.3122 401.38C26.8855 400.993 26.2789 400.8 25.4922 400.8C24.7989 400.8 24.2322 400.94 23.7922 401.22C23.3522 401.487 22.9989 401.853 22.7322 402.32L21.6522 401.52C21.7855 401.253 21.9655 400.993 22.1922 400.74C22.4189 400.487 22.6989 400.267 23.0322 400.08C23.3655 399.88 23.7455 399.727 24.1722 399.62C24.5989 399.5 25.0722 399.44 25.5922 399.44C26.8055 399.44 27.7655 399.747 28.4722 400.36C29.1922 400.973 29.5522 401.827 29.5522 402.92V408.6H30.9922V410H29.8922ZM25.1322 408.9C25.5455 408.9 25.9189 408.853 26.2522 408.76C26.5989 408.653 26.8989 408.52 27.1522 408.36C27.4055 408.187 27.5989 407.987 27.7322 407.76C27.8789 407.52 27.9522 407.267 27.9522 407V405.3H25.7522C24.7922 405.3 24.0922 405.433 23.6522 405.7C23.2122 405.967 22.9922 406.353 22.9922 406.86V407.28C22.9922 407.813 23.1789 408.22 23.5522 408.5C23.9389 408.767 24.4655 408.9 25.1322 408.9ZM38.3444 410.24C37.5977 410.24 36.931 410.113 36.3444 409.86C35.771 409.593 35.2844 409.227 34.8844 408.76C34.4844 408.293 34.1777 407.727 33.9644 407.06C33.7644 406.393 33.6644 405.653 33.6644 404.84C33.6644 404.027 33.771 403.287 33.9844 402.62C34.1977 401.953 34.5044 401.387 34.9044 400.92C35.3044 400.44 35.791 400.073 36.3644 399.82C36.9377 399.567 37.591 399.44 38.3244 399.44C39.3244 399.44 40.1377 399.66 40.7644 400.1C41.391 400.54 41.851 401.113 42.1444 401.82L40.8644 402.5C40.6777 401.967 40.3644 401.553 39.9244 401.26C39.4977 400.967 38.9644 400.82 38.3244 400.82C37.8577 400.82 37.4377 400.9 37.0644 401.06C36.7044 401.207 36.3977 401.42 36.1444 401.7C35.891 401.98 35.6977 402.313 35.5644 402.7C35.4444 403.087 35.3844 403.507 35.3844 403.96V405.72C35.3844 406.173 35.4444 406.593 35.5644 406.98C35.6977 407.367 35.891 407.7 36.1444 407.98C36.3977 408.26 36.711 408.48 37.0844 408.64C37.4577 408.787 37.8844 408.86 38.3644 408.86C39.0577 408.86 39.631 408.7 40.0844 408.38C40.5377 408.06 40.8977 407.62 41.1644 407.06L42.3044 407.84C41.9977 408.533 41.5177 409.107 40.8644 409.56C40.2244 410.013 39.3844 410.24 38.3444 410.24ZM45.9166 399.68H54.0366V410H52.4366V401.04H47.5166V410H45.9166V399.68ZM57.8688 399.68H59.4688V401.36H59.5488C60.2154 400.08 61.2754 399.44 62.7288 399.44C63.9954 399.44 64.9821 399.913 65.6888 400.86C66.4088 401.807 66.7688 403.133 66.7688 404.84C66.7688 406.547 66.4088 407.873 65.6888 408.82C64.9821 409.767 63.9954 410.24 62.7288 410.24C61.2754 410.24 60.2154 409.6 59.5488 408.32H59.4688V414H57.8688V399.68ZM62.1088 408.82C63.0421 408.82 63.7621 408.54 64.2688 407.98C64.7888 407.407 65.0488 406.653 65.0488 405.72V403.96C65.0488 403.027 64.7888 402.28 64.2688 401.72C63.7621 401.147 63.0421 400.86 62.1088 400.86C61.7488 400.86 61.4088 400.907 61.0888 401C60.7688 401.093 60.4888 401.233 60.2488 401.42C60.0088 401.593 59.8154 401.813 59.6688 402.08C59.5354 402.333 59.4688 402.633 59.4688 402.98V406.7C59.4688 407.047 59.5354 407.353 59.6688 407.62C59.8154 407.873 60.0088 408.093 60.2488 408.28C60.4888 408.453 60.7688 408.587 61.0888 408.68C61.4088 408.773 61.7488 408.82 62.1088 408.82ZM74.1409 410.24C73.3943 410.24 72.7209 410.113 72.1209 409.86C71.5343 409.607 71.0276 409.247 70.6009 408.78C70.1876 408.3 69.8676 407.733 69.6409 407.08C69.4143 406.413 69.3009 405.673 69.3009 404.86C69.3009 404.033 69.4143 403.287 69.6409 402.62C69.8809 401.953 70.2076 401.387 70.6209 400.92C71.0343 400.44 71.5276 400.073 72.1009 399.82C72.6876 399.567 73.3343 399.44 74.0409 399.44C74.7343 399.44 75.3609 399.567 75.9209 399.82C76.4943 400.073 76.9809 400.427 77.3809 400.88C77.7809 401.32 78.0876 401.847 78.3009 402.46C78.5143 403.073 78.6209 403.747 78.6209 404.48V405.24H70.9809V405.72C70.9809 406.173 71.0543 406.593 71.2009 406.98C71.3476 407.367 71.5543 407.7 71.8209 407.98C72.1009 408.26 72.4343 408.48 72.8209 408.64C73.2209 408.787 73.6609 408.86 74.1409 408.86C74.8343 408.86 75.4343 408.7 75.9409 408.38C76.4476 408.06 76.8343 407.62 77.1009 407.06L78.2809 407.86C77.9743 408.553 77.4609 409.127 76.7409 409.58C76.0343 410.02 75.1676 410.24 74.1409 410.24ZM74.0409 400.76C73.6009 400.76 73.1943 400.84 72.8209 401C72.4476 401.16 72.1209 401.38 71.8409 401.66C71.5743 401.94 71.3609 402.273 71.2009 402.66C71.0543 403.033 70.9809 403.447 70.9809 403.9V404.04H76.9009V403.82C76.9009 403.367 76.8276 402.953 76.6809 402.58C76.5476 402.207 76.3543 401.887 76.1009 401.62C75.8609 401.34 75.5609 401.127 75.2009 400.98C74.8543 400.833 74.4676 400.76 74.0409 400.76ZM80.3931 408.64H81.5531C81.9798 407.96 82.3131 407.16 82.5531 406.24C82.8065 405.307 82.9331 404.213 82.9331 402.96V399.68H89.5931V408.64H91.2931V412.8H89.8331V410H81.8531V412.8H80.3931V408.64ZM87.9931 408.64V401.04H84.4931V403.04C84.4931 404.28 84.3931 405.347 84.1931 406.24C83.9931 407.12 83.6931 407.92 83.2931 408.64H87.9931ZM98.1253 410.24C97.3786 410.24 96.7053 410.113 96.1053 409.86C95.5186 409.607 95.012 409.247 94.5853 408.78C94.172 408.3 93.852 407.733 93.6253 407.08C93.3986 406.413 93.2853 405.673 93.2853 404.86C93.2853 404.033 93.3986 403.287 93.6253 402.62C93.8653 401.953 94.192 401.387 94.6053 400.92C95.0186 400.44 95.512 400.073 96.0853 399.82C96.672 399.567 97.3186 399.44 98.0253 399.44C98.7186 399.44 99.3453 399.567 99.9053 399.82C100.479 400.073 100.965 400.427 101.365 400.88C101.765 401.32 102.072 401.847 102.285 402.46C102.499 403.073 102.605 403.747 102.605 404.48V405.24H94.9653V405.72C94.9653 406.173 95.0386 406.593 95.1853 406.98C95.332 407.367 95.5386 407.7 95.8053 407.98C96.0853 408.26 96.4186 408.48 96.8053 408.64C97.2053 408.787 97.6453 408.86 98.1253 408.86C98.8186 408.86 99.4186 408.7 99.9253 408.38C100.432 408.06 100.819 407.62 101.085 407.06L102.265 407.86C101.959 408.553 101.445 409.127 100.725 409.58C100.019 410.02 99.152 410.24 98.1253 410.24ZM98.0253 400.76C97.5853 400.76 97.1786 400.84 96.8053 401C96.432 401.16 96.1053 401.38 95.8253 401.66C95.5586 401.94 95.3453 402.273 95.1853 402.66C95.0386 403.033 94.9653 403.447 94.9653 403.9V404.04H100.885V403.82C100.885 403.367 100.812 402.953 100.665 402.58C100.532 402.207 100.339 401.887 100.085 401.62C99.8453 401.34 99.5453 401.127 99.1853 400.98C98.8386 400.833 98.452 400.76 98.0253 400.76ZM104.458 408.64H105.738C105.938 408.387 106.111 408.087 106.258 407.74C106.418 407.393 106.544 406.98 106.638 406.5C106.744 406.02 106.824 405.467 106.877 404.84C106.931 404.2 106.958 403.46 106.958 402.62V399.68H113.818V410H112.218V401.04H108.518V402.66C108.518 404.527 108.378 405.993 108.098 407.06C107.831 408.113 107.471 408.867 107.018 409.32C106.764 409.573 106.484 409.753 106.178 409.86C105.871 409.953 105.504 410 105.078 410H104.458V408.64ZM117.29 408.64H118.45L119.35 406.94C119.51 406.633 119.683 406.4 119.87 406.24C120.056 406.08 120.283 405.98 120.55 405.94V405.86C119.71 405.82 119.023 405.553 118.49 405.06C117.97 404.553 117.71 403.82 117.71 402.86C117.71 401.873 118.01 401.1 118.61 400.54C119.21 399.967 120.036 399.68 121.09 399.68H125.73V410H124.13V406.02H121.63L120.21 408.68C119.97 409.12 119.71 409.453 119.43 409.68C119.163 409.893 118.816 410 118.39 410H117.29V408.64ZM124.13 401.04H121.33C120.73 401.04 120.256 401.16 119.91 401.4C119.576 401.64 119.41 402.027 119.41 402.56V403.18C119.41 403.713 119.576 404.1 119.91 404.34C120.256 404.58 120.73 404.7 121.33 404.7H124.13V401.04ZM134.102 410.24C133.355 410.24 132.682 410.113 132.082 409.86C131.495 409.607 130.989 409.247 130.562 408.78C130.149 408.3 129.829 407.733 129.602 407.08C129.375 406.413 129.262 405.673 129.262 404.86C129.262 404.033 129.375 403.287 129.602 402.62C129.842 401.953 130.169 401.387 130.582 400.92C130.995 400.44 131.489 400.073 132.062 399.82C132.649 399.567 133.295 399.44 134.002 399.44C134.695 399.44 135.322 399.567 135.882 399.82C136.455 400.073 136.942 400.427 137.342 400.88C137.742 401.32 138.049 401.847 138.262 402.46C138.475 403.073 138.582 403.747 138.582 404.48V405.24H130.942V405.72C130.942 406.173 131.015 406.593 131.162 406.98C131.309 407.367 131.515 407.7 131.782 407.98C132.062 408.26 132.395 408.48 132.782 408.64C133.182 408.787 133.622 408.86 134.102 408.86C134.795 408.86 135.395 408.7 135.902 408.38C136.409 408.06 136.795 407.62 137.062 407.06L138.242 407.86C137.935 408.553 137.422 409.127 136.702 409.58C135.995 410.02 135.129 410.24 134.102 410.24ZM134.002 400.76C133.562 400.76 133.155 400.84 132.782 401C132.409 401.16 132.082 401.38 131.802 401.66C131.535 401.94 131.322 402.273 131.162 402.66C131.015 403.033 130.942 403.447 130.942 403.9V404.04H136.862V403.82C136.862 403.367 136.789 402.953 136.642 402.58C136.509 402.207 136.315 401.887 136.062 401.62C135.822 401.34 135.522 401.127 135.162 400.98C134.815 400.833 134.429 400.76 134.002 400.76ZM145.114 401.04H141.314V399.68H150.514V401.04H146.714V410H145.114V401.04ZM166.038 399.68H171.298C172.138 399.68 172.798 399.92 173.278 400.4C173.758 400.867 173.998 401.5 173.998 402.3C173.998 403.593 173.325 404.32 171.978 404.48V404.56C172.778 404.627 173.372 404.88 173.758 405.32C174.158 405.747 174.358 406.28 174.358 406.92C174.358 407.333 174.292 407.727 174.158 408.1C174.025 408.473 173.832 408.8 173.578 409.08C173.325 409.36 173.012 409.587 172.638 409.76C172.265 409.92 171.838 410 171.358 410H166.038V399.68ZM170.958 408.72C171.505 408.72 171.925 408.587 172.218 408.32C172.512 408.053 172.658 407.687 172.658 407.22V406.76C172.658 406.293 172.512 405.933 172.218 405.68C171.938 405.413 171.558 405.28 171.078 405.28H167.638V408.72H170.958ZM170.878 404.02C171.318 404.02 171.665 403.907 171.918 403.68C172.172 403.453 172.298 403.133 172.298 402.72V402.28C172.298 401.867 172.172 401.547 171.918 401.32C171.665 401.08 171.318 400.96 170.878 400.96H167.638V404.02H170.878ZM176.411 408.64H177.691C177.891 408.387 178.064 408.087 178.211 407.74C178.371 407.393 178.497 406.98 178.591 406.5C178.697 406.02 178.777 405.467 178.831 404.84C178.884 404.2 178.911 403.46 178.911 402.62V399.68H185.771V410H184.171V401.04H180.471V402.66C180.471 404.527 180.331 405.993 180.051 407.06C179.784 408.113 179.424 408.867 178.971 409.32C178.717 409.573 178.437 409.753 178.131 409.86C177.824 409.953 177.457 410 177.031 410H176.411V408.64ZM197.783 410C197.156 410 196.709 409.84 196.443 409.52C196.176 409.2 196.009 408.8 195.943 408.32H195.843C195.616 408.92 195.249 409.393 194.743 409.74C194.249 410.073 193.583 410.24 192.743 410.24C191.663 410.24 190.803 409.96 190.163 409.4C189.523 408.84 189.203 408.073 189.203 407.1C189.203 406.14 189.549 405.4 190.243 404.88C190.949 404.36 192.083 404.1 193.643 404.1H195.843V403.08C195.843 402.32 195.629 401.753 195.203 401.38C194.776 400.993 194.169 400.8 193.383 400.8C192.689 400.8 192.123 400.94 191.683 401.22C191.243 401.487 190.889 401.853 190.623 402.32L189.543 401.52C189.676 401.253 189.856 400.993 190.083 400.74C190.309 400.487 190.589 400.267 190.923 400.08C191.256 399.88 191.636 399.727 192.063 399.62C192.489 399.5 192.963 399.44 193.483 399.44C194.696 399.44 195.656 399.747 196.363 400.36C197.083 400.973 197.443 401.827 197.443 402.92V408.6H198.883V410H197.783ZM193.023 408.9C193.436 408.9 193.809 408.853 194.143 408.76C194.489 408.653 194.789 408.52 195.043 408.36C195.296 408.187 195.489 407.987 195.623 407.76C195.769 407.52 195.843 407.267 195.843 407V405.3H193.643C192.683 405.3 191.983 405.433 191.543 405.7C191.103 405.967 190.883 406.353 190.883 406.86V407.28C190.883 407.813 191.069 408.22 191.443 408.5C191.829 408.767 192.356 408.9 193.023 408.9ZM202.575 399.68H209.975V401.04H204.175V410H202.575V399.68ZM221.207 399.68H222.807L217.687 412.26C217.567 412.553 217.434 412.807 217.287 413.02C217.141 413.247 216.967 413.427 216.767 413.56C216.567 413.707 216.327 413.813 216.047 413.88C215.767 413.96 215.434 414 215.047 414H213.527V412.64H215.927L217.087 409.8L212.927 399.68H214.567L216.307 404L217.847 407.92H217.927L219.467 404L221.207 399.68Z" fill="#26611D"/>
</svg>
