<svg width="322" height="485" viewBox="0 0 322 485" fill="none" xmlns="http://www.w3.org/2000/svg">
<rect x="0.743467" y="5.74347" width="320.513" height="478.513" fill="#D9D9D9" fill-opacity="0.33" stroke="black" stroke-width="1.48693"/>
<path d="M17.536 53.384C15.5307 53.384 13.888 53.0213 12.608 52.296C11.328 51.5493 10.272 50.6 9.44 49.448L11.392 47.848C12.2667 48.936 13.184 49.7467 14.144 50.28C15.1253 50.8133 16.288 51.08 17.632 51.08C19.2533 51.08 20.4907 50.7067 21.344 49.96C22.1973 49.2133 22.624 48.168 22.624 46.824C22.624 45.736 22.3147 44.8933 21.696 44.296C21.0773 43.6773 20 43.24 18.464 42.984L15.968 42.568C14.88 42.376 13.9627 42.088 13.216 41.704C12.4907 41.32 11.904 40.8613 11.456 40.328C11.008 39.7733 10.688 39.176 10.496 38.536C10.304 37.8747 10.208 37.192 10.208 36.488C10.208 34.44 10.88 32.8933 12.224 31.848C13.568 30.8027 15.3813 30.28 17.664 30.28C19.456 30.28 20.96 30.5787 22.176 31.176C23.4133 31.7733 24.4053 32.616 25.152 33.704L23.264 35.336C22.6453 34.5253 21.8987 33.864 21.024 33.352C20.1493 32.84 19.0187 32.584 17.632 32.584C16.1173 32.584 14.9547 32.904 14.144 33.544C13.3333 34.184 12.928 35.144 12.928 36.424C12.928 37.4267 13.2267 38.248 13.824 38.888C14.4427 39.5067 15.5413 39.9547 17.12 40.232L19.52 40.648C20.608 40.84 21.5253 41.128 22.272 41.512C23.0187 41.896 23.616 42.3547 24.064 42.888C24.5333 43.4213 24.864 44.0187 25.056 44.68C25.248 45.3413 25.344 46.0347 25.344 46.76C25.344 48.8293 24.6613 50.4507 23.296 51.624C21.952 52.7973 20.032 53.384 17.536 53.384ZM30.0675 53V30.664H38.1955C40.2648 30.664 41.8435 31.2293 42.9315 32.36C44.0195 33.4907 44.5635 35.0693 44.5635 37.096C44.5635 39.1227 44.0195 40.7013 42.9315 41.832C41.8435 42.9627 40.2648 43.528 38.1955 43.528H32.7555V53H30.0675ZM32.7555 41.192H38.1315C39.2622 41.192 40.1368 40.9147 40.7555 40.36C41.3955 39.784 41.7155 38.9733 41.7155 37.928V36.264C41.7155 35.2187 41.3955 34.4187 40.7555 33.864C40.1368 33.288 39.2622 33 38.1315 33H32.7555V41.192ZM55.975 53.384C54.6097 53.384 53.4363 53.128 52.455 52.616C51.4737 52.0827 50.663 51.3253 50.023 50.344C49.383 49.3627 48.9137 48.1573 48.615 46.728C48.3163 45.2987 48.167 43.6667 48.167 41.832C48.167 40.0187 48.3163 38.3973 48.615 36.968C48.9137 35.5173 49.383 34.3013 50.023 33.32C50.663 32.3387 51.4737 31.592 52.455 31.08C53.4363 30.5467 54.6097 30.28 55.975 30.28C57.3403 30.28 58.5137 30.5467 59.495 31.08C60.4763 31.592 61.287 32.3387 61.927 33.32C62.567 34.3013 63.0363 35.5173 63.335 36.968C63.6337 38.3973 63.783 40.0187 63.783 41.832C63.783 43.6667 63.6337 45.2987 63.335 46.728C63.0363 48.1573 62.567 49.3627 61.927 50.344C61.287 51.3253 60.4763 52.0827 59.495 52.616C58.5137 53.128 57.3403 53.384 55.975 53.384ZM55.975 51.048C56.871 51.048 57.6283 50.8773 58.247 50.536C58.8657 50.1733 59.3777 49.672 59.783 49.032C60.1883 48.392 60.4763 47.624 60.647 46.728C60.839 45.8107 60.935 44.7867 60.935 43.656V40.008C60.935 38.8987 60.839 37.8853 60.647 36.968C60.4763 36.0507 60.1883 35.272 59.783 34.632C59.3777 33.992 58.8657 33.5013 58.247 33.16C57.6283 32.7973 56.871 32.616 55.975 32.616C55.079 32.616 54.3217 32.7973 53.703 33.16C53.0843 33.5013 52.5723 33.992 52.167 34.632C51.7617 35.272 51.463 36.0507 51.271 36.968C51.1003 37.8853 51.015 38.8987 51.015 40.008V43.656C51.015 44.7867 51.1003 45.8107 51.271 46.728C51.463 47.624 51.7617 48.392 52.167 49.032C52.5723 49.672 53.0843 50.1733 53.703 50.536C54.3217 50.8773 55.079 51.048 55.975 51.048ZM71.1305 53H68.4425V30.664H76.5705C78.6398 30.664 80.2185 31.2293 81.3065 32.36C82.3945 33.4907 82.9385 35.0693 82.9385 37.096C82.9385 38.9093 82.4692 40.36 81.5305 41.448C80.5918 42.536 79.2265 43.1653 77.4345 43.336L83.1305 53H80.1225L74.6825 43.464H71.1305V53ZM76.5065 41.192C77.6372 41.192 78.5118 40.9147 79.1305 40.36C79.7705 39.784 80.0905 38.9733 80.0905 37.928V36.264C80.0905 35.2187 79.7705 34.4187 79.1305 33.864C78.5118 33.288 77.6372 33 76.5065 33H71.1305V41.192H76.5065ZM100.142 53L98.254 46.632H90.414L88.526 53H85.742L92.59 30.664H96.142L102.99 53H100.142ZM94.478 33.512H94.19L91.054 44.296H97.614L94.478 33.512ZM105.858 44.456V42.088H121.218V44.456H105.858ZM128.341 34.088H128.117V53H125.685V30.664H129.493L137.109 49.384H137.333V30.664H139.765V53H135.957L128.341 34.088ZM154.409 53V48.616H143.401V46.248L153.065 30.664H156.969V46.408H160.297V48.616H156.969V53H154.409ZM145.801 46.408H154.409V32.744H154.281L145.801 46.408ZM16.72 250.66H11.28V257H9.6V243.04H11.28V249.2H16.72V243.04H18.4V257H16.72V250.66ZM26.1722 257.24C25.4255 257.24 24.7522 257.113 24.1522 256.86C23.5655 256.607 23.0589 256.247 22.6322 255.78C22.2189 255.3 21.8989 254.733 21.6722 254.08C21.4455 253.413 21.3322 252.673 21.3322 251.86C21.3322 251.033 21.4455 250.287 21.6722 249.62C21.9122 248.953 22.2389 248.387 22.6522 247.92C23.0655 247.44 23.5589 247.073 24.1322 246.82C24.7189 246.567 25.3655 246.44 26.0722 246.44C26.7655 246.44 27.3922 246.567 27.9522 246.82C28.5255 247.073 29.0122 247.427 29.4122 247.88C29.8122 248.32 30.1189 248.847 30.3322 249.46C30.5455 250.073 30.6522 250.747 30.6522 251.48V252.24H23.0122V252.72C23.0122 253.173 23.0855 253.593 23.2322 253.98C23.3789 254.367 23.5855 254.7 23.8522 254.98C24.1322 255.26 24.4655 255.48 24.8522 255.64C25.2522 255.787 25.6922 255.86 26.1722 255.86C26.8655 255.86 27.4655 255.7 27.9722 255.38C28.4789 255.06 28.8655 254.62 29.1322 254.06L30.3122 254.86C30.0055 255.553 29.4922 256.127 28.7722 256.58C28.0655 257.02 27.1989 257.24 26.1722 257.24ZM26.0722 247.76C25.6322 247.76 25.2255 247.84 24.8522 248C24.4789 248.16 24.1522 248.38 23.8722 248.66C23.6055 248.94 23.3922 249.273 23.2322 249.66C23.0855 250.033 23.0122 250.447 23.0122 250.9V251.04H28.9322V250.82C28.9322 250.367 28.8589 249.953 28.7122 249.58C28.5789 249.207 28.3855 248.887 28.1322 248.62C27.8922 248.34 27.5922 248.127 27.2322 247.98C26.8855 247.833 26.4989 247.76 26.0722 247.76ZM33.8844 246.68H35.4844V251.94L35.3244 254.58H35.4044L40.5844 246.68H42.0844V257H40.4844V251.74L40.6444 249.1H40.5644L35.3844 257H33.8844V246.68ZM37.9244 245.1C37.2444 245.1 36.691 244.953 36.2644 244.66C35.8377 244.353 35.4644 243.88 35.1444 243.24L34.5844 242.1L36.0244 241.64L36.8244 243.76C36.971 243.813 37.151 243.847 37.3644 243.86C37.5777 243.873 37.7644 243.88 37.9244 243.88C38.0844 243.88 38.271 243.873 38.4844 243.86C38.6977 243.847 38.8777 243.813 39.0244 243.76L39.8244 241.64L41.2644 242.1L40.7044 243.24C40.3844 243.88 40.011 244.353 39.5844 244.66C39.1577 244.953 38.6044 245.1 37.9244 245.1ZM49.1766 248.04H45.3766V246.68H54.5766V248.04H50.7766V257H49.1766V248.04ZM57.8688 246.68H59.4688V248.36H59.5488C60.2154 247.08 61.2754 246.44 62.7288 246.44C63.9954 246.44 64.9821 246.913 65.6888 247.86C66.4088 248.807 66.7688 250.133 66.7688 251.84C66.7688 253.547 66.4088 254.873 65.6888 255.82C64.9821 256.767 63.9954 257.24 62.7288 257.24C61.2754 257.24 60.2154 256.6 59.5488 255.32H59.4688V261H57.8688V246.68ZM62.1088 255.82C63.0421 255.82 63.7621 255.54 64.2688 254.98C64.7888 254.407 65.0488 253.653 65.0488 252.72V250.96C65.0488 250.027 64.7888 249.28 64.2688 248.72C63.7621 248.147 63.0421 247.86 62.1088 247.86C61.7488 247.86 61.4088 247.907 61.0888 248C60.7688 248.093 60.4888 248.233 60.2488 248.42C60.0088 248.593 59.8154 248.813 59.6688 249.08C59.5354 249.333 59.4688 249.633 59.4688 249.98V253.7C59.4688 254.047 59.5354 254.353 59.6688 254.62C59.8154 254.873 60.0088 255.093 60.2488 255.28C60.4888 255.453 60.7688 255.587 61.0888 255.68C61.4088 255.773 61.7488 255.82 62.1088 255.82ZM77.8609 257C77.2343 257 76.7876 256.84 76.5209 256.52C76.2543 256.2 76.0876 255.8 76.0209 255.32H75.9209C75.6943 255.92 75.3276 256.393 74.8209 256.74C74.3276 257.073 73.6609 257.24 72.8209 257.24C71.7409 257.24 70.8809 256.96 70.2409 256.4C69.6009 255.84 69.2809 255.073 69.2809 254.1C69.2809 253.14 69.6276 252.4 70.3209 251.88C71.0276 251.36 72.1609 251.1 73.7209 251.1H75.9209V250.08C75.9209 249.32 75.7076 248.753 75.2809 248.38C74.8543 247.993 74.2476 247.8 73.4609 247.8C72.7676 247.8 72.2009 247.94 71.7609 248.22C71.3209 248.487 70.9676 248.853 70.7009 249.32L69.6209 248.52C69.7543 248.253 69.9343 247.993 70.1609 247.74C70.3876 247.487 70.6676 247.267 71.0009 247.08C71.3343 246.88 71.7143 246.727 72.1409 246.62C72.5676 246.5 73.0409 246.44 73.5609 246.44C74.7743 246.44 75.7343 246.747 76.4409 247.36C77.1609 247.973 77.5209 248.827 77.5209 249.92V255.6H78.9609V257H77.8609ZM73.1009 255.9C73.5143 255.9 73.8876 255.853 74.2209 255.76C74.5676 255.653 74.8676 255.52 75.1209 255.36C75.3743 255.187 75.5676 254.987 75.7009 254.76C75.8476 254.52 75.9209 254.267 75.9209 254V252.3H73.7209C72.7609 252.3 72.0609 252.433 71.6209 252.7C71.1809 252.967 70.9609 253.353 70.9609 253.86V254.28C70.9609 254.813 71.1476 255.22 71.5209 255.5C71.9076 255.767 72.4343 255.9 73.1009 255.9ZM80.4731 255.64H81.7531C81.9531 255.387 82.1265 255.087 82.2731 254.74C82.4331 254.393 82.5598 253.98 82.6531 253.5C82.7598 253.02 82.8398 252.467 82.8931 251.84C82.9465 251.2 82.9731 250.46 82.9731 249.62V246.68H89.8331V257H88.2331V248.04H84.5331V249.66C84.5331 251.527 84.3931 252.993 84.1131 254.06C83.8465 255.113 83.4865 255.867 83.0331 256.32C82.7798 256.573 82.4998 256.753 82.1931 256.86C81.8865 256.953 81.5198 257 81.0931 257H80.4731V255.64ZM94.1653 246.68H95.7653V250.42H98.9653C100.005 250.42 100.832 250.713 101.445 251.3C102.059 251.887 102.365 252.693 102.365 253.72C102.365 254.76 102.065 255.567 101.465 256.14C100.865 256.713 100.039 257 98.9853 257H94.1653V246.68ZM98.7453 255.64C99.3453 255.64 99.812 255.52 100.145 255.28C100.492 255.04 100.665 254.653 100.665 254.12V253.28C100.665 252.747 100.492 252.367 100.145 252.14C99.812 251.9 99.3453 251.78 98.7453 251.78H95.7653V255.64H98.7453ZM105.838 246.68H107.438V251H112.438V246.68H114.037V257H112.438V252.36H107.438V257H105.838V246.68ZM117.01 246.68H118.61V250.42H120.35C121.39 250.42 122.216 250.713 122.83 251.3C123.443 251.887 123.75 252.693 123.75 253.72C123.75 254.76 123.45 255.567 122.85 256.14C122.25 256.713 121.423 257 120.37 257H117.01V246.68ZM120.13 255.64C120.73 255.64 121.196 255.52 121.53 255.28C121.876 255.04 122.05 254.653 122.05 254.12V253.28C122.05 252.747 121.876 252.367 121.53 252.14C121.196 251.9 120.73 251.78 120.13 251.78H118.61V255.64H120.13ZM125.25 246.68H126.85V257H125.25V246.68ZM129.822 246.68H131.422V251.94L131.262 254.58H131.342L136.522 246.68H138.022V257H136.422V251.74L136.582 249.1H136.502L131.322 257H129.822V246.68ZM133.862 245.1C133.182 245.1 132.629 244.953 132.202 244.66C131.775 244.353 131.402 243.88 131.082 243.24L130.522 242.1L131.962 241.64L132.762 243.76C132.909 243.813 133.089 243.847 133.302 243.86C133.515 243.873 133.702 243.88 133.862 243.88C134.022 243.88 134.209 243.873 134.422 243.86C134.635 243.847 134.815 243.813 134.962 243.76L135.762 241.64L137.202 242.1L136.642 243.24C136.322 243.88 135.949 244.353 135.522 244.66C135.095 244.953 134.542 245.1 133.862 245.1ZM157.926 257.24C157.233 257.24 156.6 257.113 156.026 256.86C155.466 256.607 154.98 256.22 154.566 255.7C154.166 255.18 153.853 254.527 153.626 253.74C153.4 252.94 153.286 251.993 153.286 250.9C153.286 249.38 153.386 248.087 153.586 247.02C153.8 245.953 154.12 245.073 154.546 244.38C154.986 243.687 155.54 243.173 156.206 242.84C156.886 242.507 157.693 242.307 158.626 242.24L161.786 242.04V243.62L158.466 243.84C157.893 243.88 157.4 243.987 156.986 244.16C156.586 244.333 156.246 244.613 155.966 245C155.7 245.373 155.486 245.867 155.326 246.48C155.166 247.093 155.046 247.86 154.966 248.78H155.066C155.346 248.113 155.74 247.6 156.246 247.24C156.753 246.867 157.386 246.68 158.146 246.68C158.8 246.68 159.4 246.8 159.946 247.04C160.493 247.28 160.96 247.627 161.346 248.08C161.733 248.52 162.033 249.073 162.246 249.74C162.473 250.393 162.586 251.14 162.586 251.98C162.586 252.767 162.473 253.48 162.246 254.12C162.02 254.76 161.7 255.313 161.286 255.78C160.873 256.247 160.38 256.607 159.806 256.86C159.246 257.113 158.62 257.24 157.926 257.24ZM157.926 255.86C158.793 255.86 159.5 255.593 160.046 255.06C160.606 254.513 160.886 253.72 160.886 252.68V251.42C160.886 250.3 160.613 249.46 160.066 248.9C159.533 248.34 158.833 248.06 157.966 248.06C156.953 248.06 156.2 248.307 155.706 248.8C155.226 249.28 154.986 249.9 154.986 250.66V252.68C154.986 253.72 155.253 254.513 155.786 255.06C156.333 255.593 157.046 255.86 157.926 255.86ZM173.798 257C173.172 257 172.725 256.84 172.458 256.52C172.192 256.2 172.025 255.8 171.958 255.32H171.858C171.632 255.92 171.265 256.393 170.758 256.74C170.265 257.073 169.598 257.24 168.758 257.24C167.678 257.24 166.818 256.96 166.178 256.4C165.538 255.84 165.218 255.073 165.218 254.1C165.218 253.14 165.565 252.4 166.258 251.88C166.965 251.36 168.098 251.1 169.658 251.1H171.858V250.08C171.858 249.32 171.645 248.753 171.218 248.38C170.792 247.993 170.185 247.8 169.398 247.8C168.705 247.8 168.138 247.94 167.698 248.22C167.258 248.487 166.905 248.853 166.638 249.32L165.558 248.52C165.692 248.253 165.872 247.993 166.098 247.74C166.325 247.487 166.605 247.267 166.938 247.08C167.272 246.88 167.652 246.727 168.078 246.62C168.505 246.5 168.978 246.44 169.498 246.44C170.712 246.44 171.672 246.747 172.378 247.36C173.098 247.973 173.458 248.827 173.458 249.92V255.6H174.898V257H173.798ZM169.038 255.9C169.452 255.9 169.825 255.853 170.158 255.76C170.505 255.653 170.805 255.52 171.058 255.36C171.312 255.187 171.505 254.987 171.638 254.76C171.785 254.52 171.858 254.267 171.858 254V252.3H169.658C168.698 252.3 167.998 252.433 167.558 252.7C167.118 252.967 166.898 253.353 166.898 253.86V254.28C166.898 254.813 167.085 255.22 167.458 255.5C167.845 255.767 168.372 255.9 169.038 255.9ZM176.411 255.64H177.691C177.891 255.387 178.064 255.087 178.211 254.74C178.371 254.393 178.497 253.98 178.591 253.5C178.697 253.02 178.777 252.467 178.831 251.84C178.884 251.2 178.911 250.46 178.911 249.62V246.68H185.771V257H184.171V248.04H180.471V249.66C180.471 251.527 180.331 252.993 180.051 254.06C179.784 255.113 179.424 255.867 178.971 256.32C178.717 256.573 178.437 256.753 178.131 256.86C177.824 256.953 177.457 257 177.031 257H176.411V255.64ZM197.783 257C197.156 257 196.709 256.84 196.443 256.52C196.176 256.2 196.009 255.8 195.943 255.32H195.843C195.616 255.92 195.249 256.393 194.743 256.74C194.249 257.073 193.583 257.24 192.743 257.24C191.663 257.24 190.803 256.96 190.163 256.4C189.523 255.84 189.203 255.073 189.203 254.1C189.203 253.14 189.549 252.4 190.243 251.88C190.949 251.36 192.083 251.1 193.643 251.1H195.843V250.08C195.843 249.32 195.629 248.753 195.203 248.38C194.776 247.993 194.169 247.8 193.383 247.8C192.689 247.8 192.123 247.94 191.683 248.22C191.243 248.487 190.889 248.853 190.623 249.32L189.543 248.52C189.676 248.253 189.856 247.993 190.083 247.74C190.309 247.487 190.589 247.267 190.923 247.08C191.256 246.88 191.636 246.727 192.063 246.62C192.489 246.5 192.963 246.44 193.483 246.44C194.696 246.44 195.656 246.747 196.363 247.36C197.083 247.973 197.443 248.827 197.443 249.92V255.6H198.883V257H197.783ZM193.023 255.9C193.436 255.9 193.809 255.853 194.143 255.76C194.489 255.653 194.789 255.52 195.043 255.36C195.296 255.187 195.489 254.987 195.623 254.76C195.769 254.52 195.843 254.267 195.843 254V252.3H193.643C192.683 252.3 191.983 252.433 191.543 252.7C191.103 252.967 190.883 253.353 190.883 253.86V254.28C190.883 254.813 191.069 255.22 191.443 255.5C191.829 255.767 192.356 255.9 193.023 255.9ZM201.775 246.68H203.375V251H208.375V246.68H209.975V257H208.375V252.36H203.375V257H201.775V246.68ZM218.227 257.24C217.481 257.24 216.814 257.113 216.227 256.86C215.654 256.593 215.167 256.227 214.767 255.76C214.367 255.293 214.061 254.727 213.847 254.06C213.647 253.393 213.547 252.653 213.547 251.84C213.547 251.027 213.654 250.287 213.867 249.62C214.081 248.953 214.387 248.387 214.787 247.92C215.187 247.44 215.674 247.073 216.247 246.82C216.821 246.567 217.474 246.44 218.207 246.44C219.207 246.44 220.021 246.66 220.647 247.1C221.274 247.54 221.734 248.113 222.027 248.82L220.747 249.5C220.561 248.967 220.247 248.553 219.807 248.26C219.381 247.967 218.847 247.82 218.207 247.82C217.741 247.82 217.321 247.9 216.947 248.06C216.587 248.207 216.281 248.42 216.027 248.7C215.774 248.98 215.581 249.313 215.447 249.7C215.327 250.087 215.267 250.507 215.267 250.96V252.72C215.267 253.173 215.327 253.593 215.447 253.98C215.581 254.367 215.774 254.7 216.027 254.98C216.281 255.26 216.594 255.48 216.967 255.64C217.341 255.787 217.767 255.86 218.247 255.86C218.941 255.86 219.514 255.7 219.967 255.38C220.421 255.06 220.781 254.62 221.047 254.06L222.187 254.84C221.881 255.533 221.401 256.107 220.747 256.56C220.107 257.013 219.267 257.24 218.227 257.24ZM9.66 345.04H18.34V359H16.66V346.5H11.34V359H9.66V345.04ZM20.5122 357.64H21.7922C21.9922 357.387 22.1655 357.087 22.3122 356.74C22.4722 356.393 22.5989 355.98 22.6922 355.5C22.7989 355.02 22.8789 354.467 22.9322 353.84C22.9855 353.2 23.0122 352.46 23.0122 351.62V348.68H29.8722V359H28.2722V350.04H24.5722V351.66C24.5722 353.527 24.4322 354.993 24.1522 356.06C23.8855 357.113 23.5255 357.867 23.0722 358.32C22.8189 358.573 22.5389 358.753 22.2322 358.86C21.9255 358.953 21.5589 359 21.1322 359H20.5122V357.64ZM37.9844 359.24C37.2644 359.24 36.611 359.113 36.0244 358.86C35.451 358.607 34.9577 358.247 34.5444 357.78C34.1444 357.3 33.8377 356.733 33.6244 356.08C33.411 355.413 33.3044 354.667 33.3044 353.84C33.3044 353.027 33.411 352.287 33.6244 351.62C33.8377 350.953 34.1444 350.387 34.5444 349.92C34.9577 349.44 35.451 349.073 36.0244 348.82C36.611 348.567 37.2644 348.44 37.9844 348.44C38.7044 348.44 39.351 348.567 39.9244 348.82C40.511 349.073 41.0044 349.44 41.4044 349.92C41.8177 350.387 42.131 350.953 42.3444 351.62C42.5577 352.287 42.6644 353.027 42.6644 353.84C42.6644 354.667 42.5577 355.413 42.3444 356.08C42.131 356.733 41.8177 357.3 41.4044 357.78C41.0044 358.247 40.511 358.607 39.9244 358.86C39.351 359.113 38.7044 359.24 37.9844 359.24ZM37.9844 357.86C38.8777 357.86 39.5977 357.593 40.1444 357.06C40.691 356.527 40.9644 355.7 40.9644 354.58V353.1C40.9644 351.98 40.691 351.153 40.1444 350.62C39.5977 350.087 38.8777 349.82 37.9844 349.82C37.091 349.82 36.371 350.087 35.8244 350.62C35.2777 351.153 35.0044 351.98 35.0044 353.1V354.58C35.0044 355.7 35.2777 356.527 35.8244 357.06C36.371 357.593 37.091 357.86 37.9844 357.86ZM49.1766 350.04H45.3766V348.68H54.5766V350.04H50.7766V359H49.1766V350.04ZM57.8688 348.68H59.4688V353H64.4688V348.68H66.0687V359H64.4688V354.36H59.4688V359H57.8688V348.68ZM77.8609 359C77.2343 359 76.7876 358.84 76.5209 358.52C76.2543 358.2 76.0876 357.8 76.0209 357.32H75.9209C75.6943 357.92 75.3276 358.393 74.8209 358.74C74.3276 359.073 73.6609 359.24 72.8209 359.24C71.7409 359.24 70.8809 358.96 70.2409 358.4C69.6009 357.84 69.2809 357.073 69.2809 356.1C69.2809 355.14 69.6276 354.4 70.3209 353.88C71.0276 353.36 72.1609 353.1 73.7209 353.1H75.9209V352.08C75.9209 351.32 75.7076 350.753 75.2809 350.38C74.8543 349.993 74.2476 349.8 73.4609 349.8C72.7676 349.8 72.2009 349.94 71.7609 350.22C71.3209 350.487 70.9676 350.853 70.7009 351.32L69.6209 350.52C69.7543 350.253 69.9343 349.993 70.1609 349.74C70.3876 349.487 70.6676 349.267 71.0009 349.08C71.3343 348.88 71.7143 348.727 72.1409 348.62C72.5676 348.5 73.0409 348.44 73.5609 348.44C74.7743 348.44 75.7343 348.747 76.4409 349.36C77.1609 349.973 77.5209 350.827 77.5209 351.92V357.6H78.9609V359H77.8609ZM73.1009 357.9C73.5143 357.9 73.8876 357.853 74.2209 357.76C74.5676 357.653 74.8676 357.52 75.1209 357.36C75.3743 357.187 75.5676 356.987 75.7009 356.76C75.8476 356.52 75.9209 356.267 75.9209 356V354.3H73.7209C72.7609 354.3 72.0609 354.433 71.6209 354.7C71.1809 354.967 70.9609 355.353 70.9609 355.86V356.28C70.9609 356.813 71.1476 357.22 71.5209 357.5C71.9076 357.767 72.4343 357.9 73.1009 357.9ZM81.3131 357.64H82.4731L83.3731 355.94C83.5331 355.633 83.7065 355.4 83.8931 355.24C84.0798 355.08 84.3065 354.98 84.5731 354.94V354.86C83.7331 354.82 83.0465 354.553 82.5131 354.06C81.9931 353.553 81.7331 352.82 81.7331 351.86C81.7331 350.873 82.0331 350.1 82.6331 349.54C83.2331 348.967 84.0598 348.68 85.1131 348.68H89.7531V359H88.1531V355.02H85.6531L84.2331 357.68C83.9931 358.12 83.7331 358.453 83.4531 358.68C83.1865 358.893 82.8398 359 82.4131 359H81.3131V357.64ZM88.1531 350.04H85.3531C84.7531 350.04 84.2798 350.16 83.9331 350.4C83.5998 350.64 83.4331 351.027 83.4331 351.56V352.18C83.4331 352.713 83.5998 353.1 83.9331 353.34C84.2798 353.58 84.7531 353.7 85.3531 353.7H88.1531V350.04ZM110.298 359.24C109.551 359.24 108.884 359.113 108.298 358.86C107.724 358.593 107.238 358.227 106.838 357.76C106.438 357.293 106.131 356.727 105.918 356.06C105.718 355.393 105.618 354.653 105.618 353.84C105.618 353.027 105.724 352.287 105.938 351.62C106.151 350.953 106.458 350.387 106.858 349.92C107.258 349.44 107.744 349.073 108.318 348.82C108.891 348.567 109.544 348.44 110.278 348.44C111.278 348.44 112.091 348.66 112.718 349.1C113.344 349.54 113.804 350.113 114.098 350.82L112.818 351.5C112.631 350.967 112.318 350.553 111.878 350.26C111.451 349.967 110.918 349.82 110.278 349.82C109.811 349.82 109.391 349.9 109.018 350.06C108.658 350.207 108.351 350.42 108.098 350.7C107.844 350.98 107.651 351.313 107.518 351.7C107.398 352.087 107.338 352.507 107.338 352.96V354.72C107.338 355.173 107.398 355.593 107.518 355.98C107.651 356.367 107.844 356.7 108.098 356.98C108.351 357.26 108.664 357.48 109.038 357.64C109.411 357.787 109.838 357.86 110.318 357.86C111.011 357.86 111.584 357.7 112.038 357.38C112.491 357.06 112.851 356.62 113.118 356.06L114.258 356.84C113.951 357.533 113.471 358.107 112.818 358.56C112.178 359.013 111.338 359.24 110.298 359.24ZM121.13 350.04H117.33V348.68H126.53V350.04H122.73V359H121.13V350.04ZM129.822 348.68H131.422V350.36H131.502C132.169 349.08 133.229 348.44 134.682 348.44C135.949 348.44 136.935 348.913 137.642 349.86C138.362 350.807 138.722 352.133 138.722 353.84C138.722 355.547 138.362 356.873 137.642 357.82C136.935 358.767 135.949 359.24 134.682 359.24C133.229 359.24 132.169 358.6 131.502 357.32H131.422V363H129.822V348.68ZM134.062 357.82C134.995 357.82 135.715 357.54 136.222 356.98C136.742 356.407 137.002 355.653 137.002 354.72V352.96C137.002 352.027 136.742 351.28 136.222 350.72C135.715 350.147 134.995 349.86 134.062 349.86C133.702 349.86 133.362 349.907 133.042 350C132.722 350.093 132.442 350.233 132.202 350.42C131.962 350.593 131.769 350.813 131.622 351.08C131.489 351.333 131.422 351.633 131.422 351.98V355.7C131.422 356.047 131.489 356.353 131.622 356.62C131.769 356.873 131.962 357.093 132.202 357.28C132.442 357.453 132.722 357.587 133.042 357.68C133.362 357.773 133.702 357.82 134.062 357.82ZM149.254 348.68H150.854L145.734 361.26C145.614 361.553 145.481 361.807 145.334 362.02C145.187 362.247 145.014 362.427 144.814 362.56C144.614 362.707 144.374 362.813 144.094 362.88C143.814 362.96 143.481 363 143.094 363H141.574V361.64H143.974L145.134 358.8L140.974 348.68H142.614L144.354 353L145.894 356.92H145.974L147.514 353L149.254 348.68ZM154.046 348.68H155.646V353H157.846L160.626 348.68H162.286L159.766 352.6C159.54 352.947 159.34 353.193 159.166 353.34C158.993 353.473 158.786 353.573 158.546 353.64V353.72C158.813 353.76 159.04 353.853 159.226 354C159.413 354.133 159.606 354.373 159.806 354.72L161.486 357.64H162.646V359H161.486C161.14 359 160.84 358.907 160.586 358.72C160.333 358.533 160.08 358.227 159.826 357.8L157.846 354.36H155.646V359H154.046V348.68ZM169.098 350.04H165.298V348.68H174.498V350.04H170.698V359H169.098V350.04ZM185.231 348.68H186.831L181.711 361.26C181.591 361.553 181.457 361.807 181.311 362.02C181.164 362.247 180.991 362.427 180.791 362.56C180.591 362.707 180.351 362.813 180.071 362.88C179.791 362.96 179.457 363 179.071 363H177.551V361.64H179.951L181.111 358.8L176.951 348.68H178.591L180.331 353L181.871 356.92H181.951L183.491 353L185.231 348.68ZM189.783 348.68H191.383V350.36H191.463C192.129 349.08 193.189 348.44 194.643 348.44C195.909 348.44 196.896 348.913 197.603 349.86C198.323 350.807 198.683 352.133 198.683 353.84C198.683 355.547 198.323 356.873 197.603 357.82C196.896 358.767 195.909 359.24 194.643 359.24C193.189 359.24 192.129 358.6 191.463 357.32H191.383V363H189.783V348.68ZM194.023 357.82C194.956 357.82 195.676 357.54 196.183 356.98C196.703 356.407 196.963 355.653 196.963 354.72V352.96C196.963 352.027 196.703 351.28 196.183 350.72C195.676 350.147 194.956 349.86 194.023 349.86C193.663 349.86 193.323 349.907 193.003 350C192.683 350.093 192.403 350.233 192.163 350.42C191.923 350.593 191.729 350.813 191.583 351.08C191.449 351.333 191.383 351.633 191.383 351.98V355.7C191.383 356.047 191.449 356.353 191.583 356.62C191.729 356.873 191.923 357.093 192.163 357.28C192.403 357.453 192.683 357.587 193.003 357.68C193.323 357.773 193.663 357.82 194.023 357.82ZM209.775 359C209.148 359 208.702 358.84 208.435 358.52C208.168 358.2 208.002 357.8 207.935 357.32H207.835C207.608 357.92 207.242 358.393 206.735 358.74C206.242 359.073 205.575 359.24 204.735 359.24C203.655 359.24 202.795 358.96 202.155 358.4C201.515 357.84 201.195 357.073 201.195 356.1C201.195 355.14 201.542 354.4 202.235 353.88C202.942 353.36 204.075 353.1 205.635 353.1H207.835V352.08C207.835 351.32 207.622 350.753 207.195 350.38C206.768 349.993 206.162 349.8 205.375 349.8C204.682 349.8 204.115 349.94 203.675 350.22C203.235 350.487 202.882 350.853 202.615 351.32L201.535 350.52C201.668 350.253 201.848 349.993 202.075 349.74C202.302 349.487 202.582 349.267 202.915 349.08C203.248 348.88 203.628 348.727 204.055 348.62C204.482 348.5 204.955 348.44 205.475 348.44C206.688 348.44 207.648 348.747 208.355 349.36C209.075 349.973 209.435 350.827 209.435 351.92V357.6H210.875V359H209.775ZM205.015 357.9C205.428 357.9 205.802 357.853 206.135 357.76C206.482 357.653 206.782 357.52 207.035 357.36C207.288 357.187 207.482 356.987 207.615 356.76C207.762 356.52 207.835 356.267 207.835 356V354.3H205.635C204.675 354.3 203.975 354.433 203.535 354.7C203.095 354.967 202.875 355.353 202.875 355.86V356.28C202.875 356.813 203.062 357.22 203.435 357.5C203.822 357.767 204.348 357.9 205.015 357.9ZM217.007 356.28H219.587L217.287 361.82H215.947L217.007 356.28ZM14.36 410.24C13.6133 410.24 12.9467 410.113 12.36 409.86C11.7867 409.593 11.3 409.227 10.9 408.76C10.5 408.293 10.1933 407.727 9.98 407.06C9.78 406.393 9.68 405.653 9.68 404.84C9.68 404.027 9.78667 403.287 10 402.62C10.2133 401.953 10.52 401.387 10.92 400.92C11.32 400.44 11.8067 400.073 12.38 399.82C12.9533 399.567 13.6067 399.44 14.34 399.44C15.34 399.44 16.1533 399.66 16.78 400.1C17.4067 400.54 17.8667 401.113 18.16 401.82L16.88 402.5C16.6933 401.967 16.38 401.553 15.94 401.26C15.5133 400.967 14.98 400.82 14.34 400.82C13.8733 400.82 13.4533 400.9 13.08 401.06C12.72 401.207 12.4133 401.42 12.16 401.7C11.9067 401.98 11.7133 402.313 11.58 402.7C11.46 403.087 11.4 403.507 11.4 403.96V405.72C11.4 406.173 11.46 406.593 11.58 406.98C11.7133 407.367 11.9067 407.7 12.16 407.98C12.4133 408.26 12.7267 408.48 13.1 408.64C13.4733 408.787 13.9 408.86 14.38 408.86C15.0733 408.86 15.6467 408.7 16.1 408.38C16.5533 408.06 16.9133 407.62 17.18 407.06L18.32 407.84C18.0133 408.533 17.5333 409.107 16.88 409.56C16.24 410.013 15.4 410.24 14.36 410.24ZM25.1922 401.04H21.3922V399.68H30.5922V401.04H26.7922V410H25.1922V401.04ZM41.8844 410C41.2577 410 40.811 409.84 40.5444 409.52C40.2777 409.2 40.111 408.8 40.0444 408.32H39.9444C39.7177 408.92 39.351 409.393 38.8444 409.74C38.351 410.073 37.6844 410.24 36.8444 410.24C35.7644 410.24 34.9044 409.96 34.2644 409.4C33.6244 408.84 33.3044 408.073 33.3044 407.1C33.3044 406.14 33.651 405.4 34.3444 404.88C35.051 404.36 36.1844 404.1 37.7444 404.1H39.9444V403.08C39.9444 402.32 39.731 401.753 39.3044 401.38C38.8777 400.993 38.271 400.8 37.4844 400.8C36.791 400.8 36.2244 400.94 35.7844 401.22C35.3444 401.487 34.991 401.853 34.7244 402.32L33.6444 401.52C33.7777 401.253 33.9577 400.993 34.1844 400.74C34.411 400.487 34.691 400.267 35.0244 400.08C35.3577 399.88 35.7377 399.727 36.1644 399.62C36.591 399.5 37.0644 399.44 37.5844 399.44C38.7977 399.44 39.7577 399.747 40.4644 400.36C41.1844 400.973 41.5444 401.827 41.5444 402.92V408.6H42.9844V410H41.8844ZM37.1244 408.9C37.5377 408.9 37.911 408.853 38.2444 408.76C38.591 408.653 38.891 408.52 39.1444 408.36C39.3977 408.187 39.591 407.987 39.7244 407.76C39.871 407.52 39.9444 407.267 39.9444 407V405.3H37.7444C36.7844 405.3 36.0844 405.433 35.6444 405.7C35.2044 405.967 34.9844 406.353 34.9844 406.86V407.28C34.9844 407.813 35.171 408.22 35.5444 408.5C35.931 408.767 36.4577 408.9 37.1244 408.9ZM49.9966 410.24C49.3032 410.24 48.6699 410.113 48.0966 409.86C47.5366 409.607 47.0499 409.22 46.6366 408.7C46.2366 408.18 45.9232 407.527 45.6966 406.74C45.4699 405.94 45.3566 404.993 45.3566 403.9C45.3566 402.38 45.4566 401.087 45.6566 400.02C45.8699 398.953 46.1899 398.073 46.6166 397.38C47.0566 396.687 47.6099 396.173 48.2766 395.84C48.9566 395.507 49.7632 395.307 50.6966 395.24L53.8566 395.04V396.62L50.5366 396.84C49.9632 396.88 49.4699 396.987 49.0566 397.16C48.6566 397.333 48.3166 397.613 48.0366 398C47.7699 398.373 47.5566 398.867 47.3966 399.48C47.2366 400.093 47.1166 400.86 47.0366 401.78H47.1366C47.4166 401.113 47.8099 400.6 48.3166 400.24C48.8232 399.867 49.4566 399.68 50.2166 399.68C50.8699 399.68 51.4699 399.8 52.0166 400.04C52.5632 400.28 53.0299 400.627 53.4166 401.08C53.8032 401.52 54.1032 402.073 54.3166 402.74C54.5432 403.393 54.6566 404.14 54.6566 404.98C54.6566 405.767 54.5432 406.48 54.3166 407.12C54.0899 407.76 53.7699 408.313 53.3566 408.78C52.9432 409.247 52.4499 409.607 51.8766 409.86C51.3166 410.113 50.6899 410.24 49.9966 410.24ZM49.9966 408.86C50.8632 408.86 51.5699 408.593 52.1166 408.06C52.6766 407.513 52.9566 406.72 52.9566 405.68V404.42C52.9566 403.3 52.6832 402.46 52.1366 401.9C51.6032 401.34 50.9032 401.06 50.0366 401.06C49.0232 401.06 48.2699 401.307 47.7766 401.8C47.2966 402.28 47.0566 402.9 47.0566 403.66V405.68C47.0566 406.72 47.3232 407.513 47.8566 408.06C48.4032 408.593 49.1166 408.86 49.9966 408.86ZM57.8688 399.68H59.4688V404.94L59.3088 407.58H59.3888L64.5688 399.68H66.0687V410H64.4688V404.74L64.6288 402.1H64.5488L59.3688 410H57.8688V399.68ZM68.4809 408.64H69.7609C69.9609 408.387 70.1343 408.087 70.2809 407.74C70.4409 407.393 70.5676 406.98 70.6609 406.5C70.7676 406.02 70.8476 405.467 70.9009 404.84C70.9543 404.2 70.9809 403.46 70.9809 402.62V399.68H77.8409V410H76.2409V401.04H72.5409V402.66C72.5409 404.527 72.4009 405.993 72.1209 407.06C71.8543 408.113 71.4943 408.867 71.0409 409.32C70.7876 409.573 70.5076 409.753 70.2009 409.86C69.8943 409.953 69.5276 410 69.1009 410H68.4809V408.64ZM81.8531 399.68H83.4531V404.94L83.2931 407.58H83.3731L88.5531 399.68H90.0531V410H88.4531V404.74L88.6131 402.1H88.5331L83.3531 410H81.8531V399.68ZM97.5253 410.24C96.4586 410.24 95.572 410.067 94.8653 409.72C94.172 409.373 93.6053 408.88 93.1653 408.24L94.3453 407.28C94.6653 407.787 95.0853 408.18 95.6053 408.46C96.1253 408.727 96.7653 408.86 97.5253 408.86C98.4853 408.86 99.1786 408.707 99.6053 408.4C100.032 408.093 100.245 407.7 100.245 407.22V406.94C100.245 406.42 100.072 406.027 99.7253 405.76C99.392 405.48 98.9053 405.34 98.2653 405.34H95.4853V404H98.0653C99.372 404 100.025 403.513 100.025 402.54V402.3C100.025 401.86 99.8386 401.507 99.4653 401.24C99.1053 400.96 98.472 400.82 97.5653 400.82C96.7653 400.82 96.1186 400.953 95.6253 401.22C95.1453 401.487 94.752 401.86 94.4453 402.34L93.3253 401.58C93.792 400.9 94.3586 400.373 95.0253 400C95.692 399.627 96.5653 399.44 97.6453 399.44C99.0186 399.44 100.039 399.687 100.705 400.18C101.385 400.673 101.725 401.353 101.725 402.22C101.725 402.86 101.559 403.367 101.225 403.74C100.892 404.113 100.425 404.373 99.8253 404.52V404.6C100.519 404.707 101.045 404.973 101.405 405.4C101.765 405.813 101.945 406.347 101.945 407C101.945 408 101.559 408.793 100.785 409.38C100.025 409.953 98.9386 410.24 97.5253 410.24ZM105.838 399.68H107.438V404.94L107.278 407.58H107.358L112.538 399.68H114.037V410H112.438V404.74L112.598 402.1H112.518L107.338 410H105.838V399.68ZM117.83 399.68H119.43V401.36H119.51C120.176 400.08 121.236 399.44 122.69 399.44C123.956 399.44 124.943 399.913 125.65 400.86C126.37 401.807 126.73 403.133 126.73 404.84C126.73 406.547 126.37 407.873 125.65 408.82C124.943 409.767 123.956 410.24 122.69 410.24C121.236 410.24 120.176 409.6 119.51 408.32H119.43V414H117.83V399.68ZM122.07 408.82C123.003 408.82 123.723 408.54 124.23 407.98C124.75 407.407 125.01 406.653 125.01 405.72V403.96C125.01 403.027 124.75 402.28 124.23 401.72C123.723 401.147 123.003 400.86 122.07 400.86C121.71 400.86 121.37 400.907 121.05 401C120.73 401.093 120.45 401.233 120.21 401.42C119.97 401.593 119.776 401.813 119.63 402.08C119.496 402.333 119.43 402.633 119.43 402.98V406.7C119.43 407.047 119.496 407.353 119.63 407.62C119.776 407.873 119.97 408.093 120.21 408.28C120.45 408.453 120.73 408.587 121.05 408.68C121.37 408.773 121.71 408.82 122.07 408.82ZM137.262 399.68H138.862L133.742 412.26C133.622 412.553 133.489 412.807 133.342 413.02C133.195 413.247 133.022 413.427 132.822 413.56C132.622 413.707 132.382 413.813 132.102 413.88C131.822 413.96 131.489 414 131.102 414H129.582V412.64H131.982L133.142 409.8L128.982 399.68H130.622L132.362 404L133.902 407.92H133.982L135.522 404L137.262 399.68ZM146.094 410.24C145.347 410.24 144.674 410.113 144.074 409.86C143.487 409.607 142.981 409.247 142.554 408.78C142.141 408.3 141.821 407.733 141.594 407.08C141.367 406.413 141.254 405.673 141.254 404.86C141.254 404.033 141.367 403.287 141.594 402.62C141.834 401.953 142.161 401.387 142.574 400.92C142.987 400.44 143.481 400.073 144.054 399.82C144.641 399.567 145.287 399.44 145.994 399.44C146.687 399.44 147.314 399.567 147.874 399.82C148.447 400.073 148.934 400.427 149.334 400.88C149.734 401.32 150.041 401.847 150.254 402.46C150.467 403.073 150.574 403.747 150.574 404.48V405.24H142.934V405.72C142.934 406.173 143.007 406.593 143.154 406.98C143.301 407.367 143.507 407.7 143.774 407.98C144.054 408.26 144.387 408.48 144.774 408.64C145.174 408.787 145.614 408.86 146.094 408.86C146.787 408.86 147.387 408.7 147.894 408.38C148.401 408.06 148.787 407.62 149.054 407.06L150.234 407.86C149.927 408.553 149.414 409.127 148.694 409.58C147.987 410.02 147.121 410.24 146.094 410.24ZM145.994 400.76C145.554 400.76 145.147 400.84 144.774 401C144.401 401.16 144.074 401.38 143.794 401.66C143.527 401.94 143.314 402.273 143.154 402.66C143.007 403.033 142.934 403.447 142.934 403.9V404.04H148.854V403.82C148.854 403.367 148.781 402.953 148.634 402.58C148.501 402.207 148.307 401.887 148.054 401.62C147.814 401.34 147.514 401.127 147.154 400.98C146.807 400.833 146.421 400.76 145.994 400.76ZM157.106 401.04H153.306V399.68H162.506V401.04H158.706V410H157.106V401.04ZM182.251 410.24C181.504 410.24 180.837 410.113 180.251 409.86C179.677 409.593 179.191 409.227 178.791 408.76C178.391 408.293 178.084 407.727 177.871 407.06C177.671 406.393 177.571 405.653 177.571 404.84C177.571 404.027 177.677 403.287 177.891 402.62C178.104 401.953 178.411 401.387 178.811 400.92C179.211 400.44 179.697 400.073 180.271 399.82C180.844 399.567 181.497 399.44 182.231 399.44C183.231 399.44 184.044 399.66 184.671 400.1C185.297 400.54 185.757 401.113 186.051 401.82L184.771 402.5C184.584 401.967 184.271 401.553 183.831 401.26C183.404 400.967 182.871 400.82 182.231 400.82C181.764 400.82 181.344 400.9 180.971 401.06C180.611 401.207 180.304 401.42 180.051 401.7C179.797 401.98 179.604 402.313 179.471 402.7C179.351 403.087 179.291 403.507 179.291 403.96V405.72C179.291 406.173 179.351 406.593 179.471 406.98C179.604 407.367 179.797 407.7 180.051 407.98C180.304 408.26 180.617 408.48 180.991 408.64C181.364 408.787 181.791 408.86 182.271 408.86C182.964 408.86 183.537 408.7 183.991 408.38C184.444 408.06 184.804 407.62 185.071 407.06L186.211 407.84C185.904 408.533 185.424 409.107 184.771 409.56C184.131 410.013 183.291 410.24 182.251 410.24ZM189.783 399.68H191.383V401.36H191.463C192.129 400.08 193.189 399.44 194.643 399.44C195.909 399.44 196.896 399.913 197.603 400.86C198.323 401.807 198.683 403.133 198.683 404.84C198.683 406.547 198.323 407.873 197.603 408.82C196.896 409.767 195.909 410.24 194.643 410.24C193.189 410.24 192.129 409.6 191.463 408.32H191.383V414H189.783V399.68ZM194.023 408.82C194.956 408.82 195.676 408.54 196.183 407.98C196.703 407.407 196.963 406.653 196.963 405.72V403.96C196.963 403.027 196.703 402.28 196.183 401.72C195.676 401.147 194.956 400.86 194.023 400.86C193.663 400.86 193.323 400.907 193.003 401C192.683 401.093 192.403 401.233 192.163 401.42C191.923 401.593 191.729 401.813 191.583 402.08C191.449 402.333 191.383 402.633 191.383 402.98V406.7C191.383 407.047 191.449 407.353 191.583 407.62C191.729 407.873 191.923 408.093 192.163 408.28C192.403 408.453 192.683 408.587 193.003 408.68C193.323 408.773 193.663 408.82 194.023 408.82ZM206.055 410.24C205.308 410.24 204.635 410.113 204.035 409.86C203.448 409.607 202.942 409.247 202.515 408.78C202.102 408.3 201.782 407.733 201.555 407.08C201.328 406.413 201.215 405.673 201.215 404.86C201.215 404.033 201.328 403.287 201.555 402.62C201.795 401.953 202.122 401.387 202.535 400.92C202.948 400.44 203.442 400.073 204.015 399.82C204.602 399.567 205.248 399.44 205.955 399.44C206.648 399.44 207.275 399.567 207.835 399.82C208.408 400.073 208.895 400.427 209.295 400.88C209.695 401.32 210.002 401.847 210.215 402.46C210.428 403.073 210.535 403.747 210.535 404.48V405.24H202.895V405.72C202.895 406.173 202.968 406.593 203.115 406.98C203.262 407.367 203.468 407.7 203.735 407.98C204.015 408.26 204.348 408.48 204.735 408.64C205.135 408.787 205.575 408.86 206.055 408.86C206.748 408.86 207.348 408.7 207.855 408.38C208.362 408.06 208.748 407.62 209.015 407.06L210.195 407.86C209.888 408.553 209.375 409.127 208.655 409.58C207.948 410.02 207.082 410.24 206.055 410.24ZM205.955 400.76C205.515 400.76 205.108 400.84 204.735 401C204.362 401.16 204.035 401.38 203.755 401.66C203.488 401.94 203.275 402.273 203.115 402.66C202.968 403.033 202.895 403.447 202.895 403.9V404.04H208.815V403.82C208.815 403.367 208.742 402.953 208.595 402.58C208.462 402.207 208.268 401.887 208.015 401.62C207.775 401.34 207.475 401.127 207.115 400.98C206.768 400.833 206.382 400.76 205.955 400.76ZM212.307 408.64H213.467C213.894 407.96 214.227 407.16 214.467 406.24C214.721 405.307 214.847 404.213 214.847 402.96V399.68H221.507V408.64H223.207V412.8H221.747V410H213.767V412.8H212.307V408.64ZM219.907 408.64V401.04H216.407V403.04C216.407 404.28 216.307 405.347 216.107 406.24C215.907 407.12 215.607 407.92 215.207 408.64H219.907ZM233.199 399.68H234.799L229.679 412.26C229.559 412.553 229.426 412.807 229.279 413.02C229.133 413.247 228.959 413.427 228.759 413.56C228.559 413.707 228.319 413.813 228.039 413.88C227.759 413.96 227.426 414 227.039 414H225.519V412.64H227.919L229.079 409.8L224.919 399.68H226.559L228.299 404L229.839 407.92H229.919L231.459 404L233.199 399.68Z" fill="#26611D"/>
</svg>
