<svg width="48" height="48" viewBox="0 0 48 48" fill="none" xmlns="http://www.w3.org/2000/svg">
<rect x="1" y="1" width="46" height="46" rx="23" fill="white"/>
<rect x="1" y="1" width="46" height="46" rx="23" stroke="#26611D" stroke-width="2"/>
<path d="M22.2563 28.3361V23.3121C24.0909 23.2268 25.5309 22.8321 26.5763 22.1281C27.6216 21.4028 28.1443 20.3148 28.1443 18.8641V18.4161C28.1443 17.2214 27.7816 16.3254 27.0563 15.7281C26.3523 15.1308 25.3816 14.8321 24.1443 14.8321C22.8643 14.8321 21.8403 15.1841 21.0723 15.8881C20.3043 16.5921 19.7709 17.4881 19.4723 18.5761L17.0723 17.6801C17.2856 16.9761 17.5843 16.3148 17.9683 15.6961C18.3523 15.0561 18.8323 14.5014 19.4083 14.0321C20.0056 13.5628 20.6989 13.1894 21.4883 12.9121C22.2989 12.6348 23.2163 12.4961 24.2403 12.4961C25.2643 12.4961 26.1816 12.6454 26.9923 12.9441C27.8243 13.2214 28.5283 13.6268 29.1043 14.1601C29.6803 14.6721 30.1283 15.3014 30.4483 16.0481C30.7683 16.7948 30.9283 17.6268 30.9283 18.5441C30.9283 19.5468 30.7469 20.4321 30.3843 21.2001C30.0216 21.9468 29.5523 22.5868 28.9763 23.1201C28.4003 23.6534 27.7389 24.0908 26.9923 24.4321C26.2669 24.7521 25.5309 24.9761 24.7843 25.1041V28.3361H22.2563ZM23.6323 35.5041C22.7576 35.5041 22.1389 35.3228 21.7763 34.9601C21.4349 34.5974 21.2643 34.1388 21.2643 33.5841V33.0081C21.2643 32.4534 21.4349 31.9948 21.7763 31.6321C22.1389 31.2694 22.7576 31.0881 23.6323 31.0881C24.5069 31.0881 25.1149 31.2694 25.4563 31.6321C25.8189 31.9948 26.0003 32.4534 26.0003 33.0081V33.5841C26.0003 34.1388 25.8189 34.5974 25.4563 34.9601C25.1149 35.3228 24.5069 35.5041 23.6323 35.5041Z" fill="#26611D"/>
</svg>
