<svg width="48" height="48" viewBox="0 0 48 48" fill="none" xmlns="http://www.w3.org/2000/svg">
<rect x="1" y="1" width="46" height="46" rx="23" fill="white"/>
<rect x="1" y="1" width="46" height="46" rx="23" stroke="#26611D" stroke-width="2"/>
<path fill-rule="evenodd" clip-rule="evenodd" d="M23.5197 10.0155C20.7667 10.189 18.221 11.1414 16.0398 12.8142C15.4823 13.2417 15.0161 13.6642 14.4576 14.2482C12.6126 16.1773 11.3704 18.5758 10.8506 21.2126C10.7029 21.9622 10.6455 22.4338 10.5981 23.2881L10.5589 23.9966H8.27943H6L8.8439 27.4808C10.4081 29.3971 11.7 30.965 11.7149 30.965C11.7298 30.965 13.0218 29.3971 14.5859 27.4808L17.4298 23.9966H15.1438H12.8578L12.8582 23.7382C12.8589 23.1413 12.9667 22.2231 13.1212 21.496C13.6723 18.9039 15.1116 16.5466 17.1683 14.868C21.1297 11.6349 26.7781 11.4736 30.8962 14.476C33.5453 16.4073 35.2253 19.2888 35.6404 22.613C35.7224 23.27 35.722 24.7281 35.6397 25.3803C35.3214 27.9011 34.2925 30.1607 32.6508 31.9443C30.5498 34.2268 27.8041 35.5194 24.7688 35.655L24.2871 35.6765V36.8383V38L24.4912 37.9997C24.6035 37.9995 24.9084 37.9842 25.1688 37.9657C27.2955 37.8148 29.2515 37.2201 31.0631 36.1737C31.5211 35.9091 32.4202 35.2836 32.8754 34.9127C33.4407 34.4523 34.5277 33.3427 34.9728 32.7718C36.4616 30.8622 37.4193 28.6843 37.8029 26.3355C38.0656 24.7272 38.0657 23.2622 37.8031 21.6578C37.4184 19.307 36.4615 17.1309 34.9728 15.2215C34.5277 14.6505 33.4407 13.541 32.8754 13.0805C32.4202 12.7097 31.5211 12.0842 31.0631 11.8196C29.2599 10.778 27.2995 10.1801 25.1852 10.0269C24.7651 9.9965 23.9143 9.99067 23.5197 10.0155Z" fill="#26611D"/>
</svg>
