<svg width="122" height="125" viewBox="0 0 122 125" fill="none" xmlns="http://www.w3.org/2000/svg">
<path d="M39.624 90.3096C41.3496 96.7977 42.9087 99.4662 44.668 101.05C45.589 101.879 46.5608 102.401 47.5234 102.997C48.4939 103.598 49.5291 104.312 50.6914 105.565V105.566C53.0232 108.146 54.2742 110.927 54.333 113.605C54.3878 116.104 53.4069 118.574 51.1875 120.776L50.7266 121.214L50.7217 121.218C45.7358 125.857 37.8491 125.486 33.2764 120.468C32.2202 119.308 31.7737 117.383 31.8447 114.881C31.9152 112.398 32.4919 109.452 33.3633 106.363C34.9534 100.728 37.5017 94.6981 39.624 90.3096ZM35.0957 47.7783C39.0646 46.4382 41.6923 45.1239 44.9785 46.4717L44.9805 46.4727C48.4276 47.8685 49.778 50.085 52.0977 52.3438C54.02 54.2156 56.4824 55.9414 61.0996 56.9082C54.5205 58.2491 49.9217 61.2793 46.6143 65.8672C43.2799 70.4924 41.2854 76.6635 39.8398 84.1689C37.1213 66.9948 28.7154 56.5405 20.3223 48.8047C26.9861 50.1166 31.4872 48.9968 35.0957 47.7783ZM113.461 59.2793C115.096 59.2841 116.522 59.4214 117.687 59.9395C118.843 60.454 119.78 61.3611 120.384 63.0078C121.542 66.2589 119.856 69.9049 116.563 71.1484C115.826 71.4101 114.74 71.3929 113.445 71.0195C112.158 70.6482 110.715 69.9397 109.3 68.8916C106.67 66.9431 104.168 63.8437 102.957 59.6348C105.776 60.7891 107.559 61.0721 109.049 60.8682C109.869 60.7559 110.573 60.5001 111.276 60.2021C111.97 59.9084 112.632 59.5893 113.461 59.2793ZM90.625 22.6709C90.5831 24.8251 90.7771 26.4624 91.1514 27.7344C91.7259 29.6865 92.7179 30.7606 93.8594 31.5098C94.4164 31.8753 95.0043 32.1611 95.5664 32.4297C96.1372 32.7024 96.68 32.957 97.1963 33.2744C98.2019 33.8928 99.105 34.7464 99.708 36.3877V36.3887C100.903 39.7395 99.6375 42.8569 98.624 46.293C97.7554 49.2382 97.1227 52.3401 98.8271 55.667C90.0435 51.4137 79.7589 49.6351 69.8477 54.8057C76.5943 47.2664 85.3644 36.6252 90.625 22.6709ZM4.64453 35.5527C7.87364 34.3408 11.5231 36.0612 12.667 39.5293L12.6699 39.5371C12.9752 40.4124 13.0766 41.1393 13.1523 41.8281C13.227 42.507 13.2786 43.2032 13.501 43.9199C13.9033 45.2161 14.8368 46.5225 17.207 48.3398C14.0223 48.5306 10.4333 48.3052 7.40234 47.6641C5.67121 47.2978 4.14549 46.8006 2.9873 46.1836C1.81902 45.5612 1.09978 44.8575 0.845703 44.1143C-0.28587 40.6896 1.45843 36.8601 4.64453 35.5527ZM95.6436 0.870117C98.8942 -0.292404 102.541 1.36516 103.677 4.64258L103.68 4.65137C104.879 7.92455 103.194 11.5677 99.9277 12.7705C99.0984 13.0757 98.4635 13.173 97.8936 13.2246C97.3416 13.2746 96.7492 13.2842 96.1426 13.4209C95.022 13.6736 93.8202 14.3469 91.8848 16.2695C91.9145 12.3274 92.0963 8.87505 92.624 6.20898C92.915 4.73899 93.3057 3.53625 93.8145 2.63086C94.3191 1.73282 94.9245 1.15266 95.6436 0.870117Z" fill="#49903E" fill-opacity="0.15" stroke="#083720"/>
</svg>
