<svg width="111" height="114" viewBox="0 0 111 114" fill="none" xmlns="http://www.w3.org/2000/svg">
<mask id="path-1-inside-1_758_9" fill="white">
<path d="M46.6348 60.9943C45.7034 60.9943 44.793 61.2716 44.0186 61.7912C43.2442 62.3107 42.6406 63.0492 42.2842 63.9132C41.9278 64.7772 41.8345 65.7279 42.0162 66.6452C42.1979 67.5624 42.6464 68.4049 43.305 69.0662C43.9636 69.7275 44.8026 70.1778 45.7161 70.3602C46.6295 70.5427 47.5764 70.4491 48.4368 70.0912C49.2973 69.7333 50.0327 69.1272 50.5502 68.3497C51.0676 67.5721 51.3438 66.6579 51.3438 65.7227C51.3438 64.4686 50.8476 63.266 49.9645 62.3792C49.0814 61.4925 47.8837 60.9943 46.6348 60.9943ZM46.6348 42.0807C45.7034 42.0807 44.793 42.358 44.0186 42.8775C43.2442 43.3971 42.6406 44.1356 42.2842 44.9996C41.9278 45.8636 41.8345 46.8143 42.0162 47.7315C42.1979 48.6488 42.6464 49.4913 43.305 50.1526C43.9636 50.8138 44.8026 51.2642 45.7161 51.4466C46.6295 51.6291 47.5764 51.5354 48.4368 51.1775C49.2973 50.8197 50.0327 50.2136 50.5502 49.436C51.0676 48.6585 51.3438 47.7443 51.3438 46.8091C51.3438 45.555 50.8476 44.3523 49.9645 43.4656C49.0814 42.5788 47.8837 42.0807 46.6348 42.0807ZM65.4708 42.0807C64.5394 42.0807 63.629 42.358 62.8546 42.8775C62.0802 43.3971 61.4767 44.1356 61.1202 44.9996C60.7638 45.8636 60.6706 46.8143 60.8523 47.7315C61.034 48.6488 61.4825 49.4913 62.141 50.1526C62.7996 50.8138 63.6387 51.2642 64.5521 51.4466C65.4656 51.6291 66.4124 51.5354 67.2729 51.1775C68.1333 50.8197 68.8688 50.2136 69.3862 49.436C69.9036 48.6585 70.1798 47.7443 70.1798 46.8091C70.1798 45.555 69.6837 44.3523 68.8006 43.4656C67.9175 42.5788 66.7197 42.0807 65.4708 42.0807ZM98.4338 60.9943C99.6827 60.9943 100.88 60.4961 101.764 59.6094C102.647 58.7226 111 57.5199 111 56.2659C111 55.0118 102.647 53.8091 101.764 52.9224C100.88 52.0356 99.6827 51.5375 98.4338 51.5375H89.0158V42.0807H98.4338C99.6827 42.0807 100.88 41.5825 101.764 40.6957C102.647 39.809 111 38.6063 111 37.3523C111 36.0982 102.647 34.8955 101.764 34.0088C100.88 33.122 99.6827 32.6239 98.4338 32.6239H88.1682C87.4651 30.6408 86.3312 28.8397 84.8488 27.3512C83.3665 25.8627 81.5727 24.7242 79.5978 24.0181V13.7102C79.5978 12.4562 79.1017 11.2535 78.2186 10.3667C77.3355 9.47999 76.1377 0 74.8888 0C73.6399 0 72.4421 9.47999 71.559 10.3667C70.6759 11.2535 70.1798 12.4562 70.1798 13.7102V23.167H60.7618V13.7102C60.7618 12.4562 60.2657 11.2535 59.3825 10.3667C58.4994 9.47999 57.3017 0 56.0528 0C54.8039 0 53.6061 9.47999 52.723 10.3667C51.8399 11.2535 51.3438 12.4562 51.3438 13.7102V23.167H41.9258V13.7102C41.9258 12.4562 41.4296 11.2535 40.5465 10.3667C39.6634 9.47999 38.4657 0 37.2168 0C35.9679 0 34.7701 9.47999 33.887 10.3667C33.0039 11.2535 32.5078 12.4562 32.5078 13.7102V24.0181C30.5328 24.7242 28.7391 25.8627 27.2567 27.3512C25.7744 28.8397 24.6405 30.6408 23.9374 32.6239H13.6717C12.4228 32.6239 11.2251 33.122 10.342 34.0088C9.45886 34.8955 0 36.0982 0 37.3523C0 38.6063 9.45886 39.809 10.342 40.6957C11.2251 41.5825 12.4228 42.0807 13.6717 42.0807H23.0897V51.5375H13.6717C12.4228 51.5375 11.2251 52.0356 10.342 52.9224C9.45886 53.8091 0 55.0118 0 56.2659C0 57.5199 9.45886 58.7226 10.342 59.6094C11.2251 60.4961 12.4228 60.9943 13.6717 60.9943H23.0897V70.4511H13.6717C12.4228 70.4511 11.2251 70.9493 10.342 71.836C9.45886 72.7228 0 73.9255 0 75.1795C0 76.4336 9.45886 77.6363 10.342 78.523C11.2251 79.4097 12.4228 79.9079 13.6717 79.9079H23.9374C24.6405 81.891 25.7744 83.6921 27.2567 85.1806C28.7391 86.669 30.5328 87.8076 32.5078 88.5136V98.8215C32.5078 100.076 33.0039 101.278 33.887 102.165C34.7701 103.052 35.9679 114 37.2168 114C38.4657 114 39.6634 103.052 40.5465 102.165C41.4296 101.278 41.9258 100.076 41.9258 98.8215V89.3647H51.3438V98.8215C51.3438 100.076 51.8399 101.278 52.723 102.165C53.6061 103.052 54.8039 114 56.0528 114C57.3017 114 58.4994 103.052 59.3825 102.165C60.2657 101.278 60.7618 100.076 60.7618 98.8215V89.3647H70.1798V98.8215C70.1798 100.076 70.6759 101.278 71.559 102.165C72.4421 103.052 73.6399 114 74.8888 114C76.1377 114 77.3355 103.052 78.2186 102.165C79.1017 101.278 79.5978 100.076 79.5978 98.8215V88.5136C81.5727 87.8076 83.3665 86.669 84.8488 85.1806C86.3312 83.6921 87.4651 81.891 88.1682 79.9079H98.4338C99.6827 79.9079 100.88 79.4097 101.764 78.523C102.647 77.6363 111 76.4336 111 75.1795C111 73.9255 102.647 72.7228 101.764 71.836C100.88 70.9493 99.6827 70.4511 98.4338 70.4511H89.0158V60.9943H98.4338ZM79.5978 75.1795C79.5978 76.4336 79.1017 77.6363 78.2186 78.523C77.3355 79.4097 76.1377 79.9079 74.8888 79.9079H37.2168C35.9679 79.9079 34.7701 79.4097 33.887 78.523C33.0039 77.6363 32.5078 76.4336 32.5078 75.1795V37.3523C32.5078 36.0982 33.0039 34.8955 33.887 34.0088C34.7701 33.122 35.9679 32.6239 37.2168 32.6239H74.8888C76.1377 32.6239 77.3355 33.122 78.2186 34.0088C79.1017 34.8955 79.5978 36.0982 79.5978 37.3523V75.1795ZM65.4708 60.9943C64.5394 60.9943 63.629 61.2716 62.8546 61.7912C62.0802 62.3107 61.4767 63.0492 61.1202 63.9132C60.7638 64.7772 60.6706 65.7279 60.8523 66.6452C61.034 67.5624 61.4825 68.4049 62.141 69.0662C62.7996 69.7275 63.6387 70.1778 64.5521 70.3602C65.4656 70.5427 66.4124 70.4491 67.2729 70.0912C68.1333 69.7333 68.8688 69.1272 69.3862 68.3497C69.9036 67.5721 70.1798 66.6579 70.1798 65.7227C70.1798 64.4686 69.6837 63.266 68.8006 62.3792C67.9175 61.4925 66.7197 60.9943 65.4708 60.9943Z"/>
</mask>
<path d="M46.6348 60.9943C45.7034 60.9943 44.793 61.2716 44.0186 61.7912C43.2442 62.3107 42.6406 63.0492 42.2842 63.9132C41.9278 64.7772 41.8345 65.7279 42.0162 66.6452C42.1979 67.5624 42.6464 68.4049 43.305 69.0662C43.9636 69.7275 44.8026 70.1778 45.7161 70.3602C46.6295 70.5427 47.5764 70.4491 48.4368 70.0912C49.2973 69.7333 50.0327 69.1272 50.5502 68.3497C51.0676 67.5721 51.3438 66.6579 51.3438 65.7227C51.3438 64.4686 50.8476 63.266 49.9645 62.3792C49.0814 61.4925 47.8837 60.9943 46.6348 60.9943ZM46.6348 42.0807C45.7034 42.0807 44.793 42.358 44.0186 42.8775C43.2442 43.3971 42.6406 44.1356 42.2842 44.9996C41.9278 45.8636 41.8345 46.8143 42.0162 47.7315C42.1979 48.6488 42.6464 49.4913 43.305 50.1526C43.9636 50.8138 44.8026 51.2642 45.7161 51.4466C46.6295 51.6291 47.5764 51.5354 48.4368 51.1775C49.2973 50.8197 50.0327 50.2136 50.5502 49.436C51.0676 48.6585 51.3438 47.7443 51.3438 46.8091C51.3438 45.555 50.8476 44.3523 49.9645 43.4656C49.0814 42.5788 47.8837 42.0807 46.6348 42.0807ZM65.4708 42.0807C64.5394 42.0807 63.629 42.358 62.8546 42.8775C62.0802 43.3971 61.4767 44.1356 61.1202 44.9996C60.7638 45.8636 60.6706 46.8143 60.8523 47.7315C61.034 48.6488 61.4825 49.4913 62.141 50.1526C62.7996 50.8138 63.6387 51.2642 64.5521 51.4466C65.4656 51.6291 66.4124 51.5354 67.2729 51.1775C68.1333 50.8197 68.8688 50.2136 69.3862 49.436C69.9036 48.6585 70.1798 47.7443 70.1798 46.8091C70.1798 45.555 69.6837 44.3523 68.8006 43.4656C67.9175 42.5788 66.7197 42.0807 65.4708 42.0807ZM98.4338 60.9943C99.6827 60.9943 100.88 60.4961 101.764 59.6094C102.647 58.7226 111 57.5199 111 56.2659C111 55.0118 102.647 53.8091 101.764 52.9224C100.88 52.0356 99.6827 51.5375 98.4338 51.5375H89.0158V42.0807H98.4338C99.6827 42.0807 100.88 41.5825 101.764 40.6957C102.647 39.809 111 38.6063 111 37.3523C111 36.0982 102.647 34.8955 101.764 34.0088C100.88 33.122 99.6827 32.6239 98.4338 32.6239H88.1682C87.4651 30.6408 86.3312 28.8397 84.8488 27.3512C83.3665 25.8627 81.5727 24.7242 79.5978 24.0181V13.7102C79.5978 12.4562 79.1017 11.2535 78.2186 10.3667C77.3355 9.47999 76.1377 0 74.8888 0C73.6399 0 72.4421 9.47999 71.559 10.3667C70.6759 11.2535 70.1798 12.4562 70.1798 13.7102V23.167H60.7618V13.7102C60.7618 12.4562 60.2657 11.2535 59.3825 10.3667C58.4994 9.47999 57.3017 0 56.0528 0C54.8039 0 53.6061 9.47999 52.723 10.3667C51.8399 11.2535 51.3438 12.4562 51.3438 13.7102V23.167H41.9258V13.7102C41.9258 12.4562 41.4296 11.2535 40.5465 10.3667C39.6634 9.47999 38.4657 0 37.2168 0C35.9679 0 34.7701 9.47999 33.887 10.3667C33.0039 11.2535 32.5078 12.4562 32.5078 13.7102V24.0181C30.5328 24.7242 28.7391 25.8627 27.2567 27.3512C25.7744 28.8397 24.6405 30.6408 23.9374 32.6239H13.6717C12.4228 32.6239 11.2251 33.122 10.342 34.0088C9.45886 34.8955 0 36.0982 0 37.3523C0 38.6063 9.45886 39.809 10.342 40.6957C11.2251 41.5825 12.4228 42.0807 13.6717 42.0807H23.0897V51.5375H13.6717C12.4228 51.5375 11.2251 52.0356 10.342 52.9224C9.45886 53.8091 0 55.0118 0 56.2659C0 57.5199 9.45886 58.7226 10.342 59.6094C11.2251 60.4961 12.4228 60.9943 13.6717 60.9943H23.0897V70.4511H13.6717C12.4228 70.4511 11.2251 70.9493 10.342 71.836C9.45886 72.7228 0 73.9255 0 75.1795C0 76.4336 9.45886 77.6363 10.342 78.523C11.2251 79.4097 12.4228 79.9079 13.6717 79.9079H23.9374C24.6405 81.891 25.7744 83.6921 27.2567 85.1806C28.7391 86.669 30.5328 87.8076 32.5078 88.5136V98.8215C32.5078 100.076 33.0039 101.278 33.887 102.165C34.7701 103.052 35.9679 114 37.2168 114C38.4657 114 39.6634 103.052 40.5465 102.165C41.4296 101.278 41.9258 100.076 41.9258 98.8215V89.3647H51.3438V98.8215C51.3438 100.076 51.8399 101.278 52.723 102.165C53.6061 103.052 54.8039 114 56.0528 114C57.3017 114 58.4994 103.052 59.3825 102.165C60.2657 101.278 60.7618 100.076 60.7618 98.8215V89.3647H70.1798V98.8215C70.1798 100.076 70.6759 101.278 71.559 102.165C72.4421 103.052 73.6399 114 74.8888 114C76.1377 114 77.3355 103.052 78.2186 102.165C79.1017 101.278 79.5978 100.076 79.5978 98.8215V88.5136C81.5727 87.8076 83.3665 86.669 84.8488 85.1806C86.3312 83.6921 87.4651 81.891 88.1682 79.9079H98.4338C99.6827 79.9079 100.88 79.4097 101.764 78.523C102.647 77.6363 111 76.4336 111 75.1795C111 73.9255 102.647 72.7228 101.764 71.836C100.88 70.9493 99.6827 70.4511 98.4338 70.4511H89.0158V60.9943H98.4338ZM79.5978 75.1795C79.5978 76.4336 79.1017 77.6363 78.2186 78.523C77.3355 79.4097 76.1377 79.9079 74.8888 79.9079H37.2168C35.9679 79.9079 34.7701 79.4097 33.887 78.523C33.0039 77.6363 32.5078 76.4336 32.5078 75.1795V37.3523C32.5078 36.0982 33.0039 34.8955 33.887 34.0088C34.7701 33.122 35.9679 32.6239 37.2168 32.6239H74.8888C76.1377 32.6239 77.3355 33.122 78.2186 34.0088C79.1017 34.8955 79.5978 36.0982 79.5978 37.3523V75.1795ZM65.4708 60.9943C64.5394 60.9943 63.629 61.2716 62.8546 61.7912C62.0802 62.3107 61.4767 63.0492 61.1202 63.9132C60.7638 64.7772 60.6706 65.7279 60.8523 66.6452C61.034 67.5624 61.4825 68.4049 62.141 69.0662C62.7996 69.7275 63.6387 70.1778 64.5521 70.3602C65.4656 70.5427 66.4124 70.4491 67.2729 70.0912C68.1333 69.7333 68.8688 69.1272 69.3862 68.3497C69.9036 67.5721 70.1798 66.6579 70.1798 65.7227C70.1798 64.4686 69.6837 63.266 68.8006 62.3792C67.9175 61.4925 66.7197 60.9943 65.4708 60.9943Z" fill="#49903E" fill-opacity="0.15" stroke="#083720" stroke-width="2" mask="url(#path-1-inside-1_758_9)"/>
</svg>
