<svg width="135" height="95" viewBox="0 0 135 95" fill="none" xmlns="http://www.w3.org/2000/svg">
<path d="M69.6738 32.2217C70.1141 41.6712 71.1557 46.0642 74.3906 51.9053C75.6356 54.1537 77.8295 56.9577 80.2227 59.5303C82.6156 62.1027 85.2445 64.483 87.3779 65.8662C88.2715 66.4455 88.9477 66.9039 89.4443 67.2871C89.9487 67.6762 90.2264 67.9575 90.3633 68.1758C90.4804 68.3626 90.482 68.4781 90.4424 68.6016C90.4013 68.7294 90.3069 68.8882 90.1318 69.1035L89.9287 69.3389C89.8621 69.4124 89.7158 69.5289 89.4639 69.6816C89.22 69.8295 88.9055 69.9942 88.5312 70.1709C87.7834 70.524 86.8194 70.9127 85.7461 71.2979C83.598 72.0687 81.0447 72.8127 78.959 73.2188C77.903 73.4245 76.7443 73.9705 75.9189 74.5381C75.5093 74.8198 75.1445 75.132 74.918 75.4404C74.8063 75.5926 74.6993 75.7821 74.666 75.9951C74.6287 76.2345 74.6895 76.4893 74.8867 76.6865C74.9574 76.7572 75.0331 76.7942 75.0762 76.8125C75.1241 76.8329 75.1703 76.8464 75.208 76.8555C75.2833 76.8735 75.3662 76.8842 75.4463 76.8916C75.6089 76.9067 75.8187 76.9127 76.0615 76.9111C76.5504 76.908 77.2206 76.8761 78.0195 76.8203C79.62 76.7085 81.766 76.4983 84.0723 76.2168C90.8237 75.3931 96.1615 74.2915 100.009 73.0342C101.932 72.4058 103.497 71.7342 104.685 71.0293C105.863 70.3299 106.717 69.5703 107.151 68.7451C107.605 67.8823 107.579 66.9844 107.072 66.1357C106.587 65.3223 105.677 64.579 104.418 63.8965C101.893 62.5275 97.7463 61.2918 91.9521 60.2959C88.0461 59.6249 85.7584 59.0107 84.4404 58.1504C83.8023 57.7337 83.4058 57.2673 83.1611 56.7109C82.9117 56.1436 82.8037 55.4466 82.8037 54.5459C82.8037 54.1668 82.8229 54.0326 82.8555 53.9668C82.861 53.9557 82.8651 53.9486 82.8848 53.9365C82.9134 53.9189 82.9789 53.8897 83.1143 53.8652C83.3949 53.8146 83.8493 53.806 84.5967 53.8447C85.3342 53.8829 86.3142 53.9635 87.623 54.0752C102.205 55.3203 114.755 58.4876 123.177 62.542C127.392 64.5712 130.534 66.8042 132.391 69.0957C134.235 71.3728 134.781 73.6623 133.932 75.8975C132.384 79.9679 127.445 83.6958 119.489 86.7441C111.568 89.7792 100.787 92.091 87.7764 93.4229C81.9584 94.0186 73.7918 94.3007 67.0264 94.292C63.8009 94.2879 60.9024 94.2155 58.7344 94.083C59.3947 93.9753 60.0751 93.8403 60.7539 93.6641C62.9905 93.0832 65.2781 92.077 66.834 90.3652C68.2802 89.0799 69.2434 88.2637 71.1357 87.6562C73.0731 87.0344 75.9947 86.6314 81.3613 86.2852C94.5232 85.4359 105.856 83.5389 113.913 81.0332C117.938 79.7815 121.173 78.3696 123.413 76.8418C125.632 75.3284 126.993 73.6163 126.993 71.7402C126.993 70.592 126.334 69.3231 125.363 68.1875C124.38 67.0366 123.018 65.9522 121.486 65.1709C120.654 64.7465 120.004 64.4245 119.527 64.2207C119.291 64.1194 119.08 64.0394 118.902 63.9922C118.813 63.9686 118.719 63.9499 118.626 63.9434C118.538 63.9371 118.414 63.9392 118.286 63.9893C118.14 64.0466 118.01 64.1603 117.942 64.3281C117.883 64.4751 117.892 64.6147 117.908 64.707C117.939 64.8853 118.029 65.0695 118.12 65.2305C118.312 65.5697 118.642 66.0362 119.07 66.6152C119.411 67.0758 119.653 67.4172 119.818 67.7002C119.982 67.9809 120.051 68.1728 120.071 68.3311C120.112 68.642 119.993 68.9714 119.525 69.8115C118.737 71.2267 117.176 72.6186 114.86 73.9365C112.552 75.2501 109.536 76.4657 105.899 77.5488C98.6264 79.7148 88.925 81.3359 77.5586 82.1738C66.0475 83.0223 53.3048 82.327 42.3242 80.5664C36.8347 79.6862 31.7939 78.5414 27.5732 77.1934C23.3439 75.8425 19.9724 74.2986 17.7949 72.6377C16.2541 71.4625 15.4289 70.5804 15.0928 69.7676C14.7779 69.0059 14.8629 68.2237 15.4062 67.1338C15.6769 66.5912 15.8731 66.1229 15.9482 65.752C15.9856 65.5675 16.0043 65.3572 15.9502 65.1562C15.8889 64.9288 15.7401 64.7368 15.5088 64.6338C15.3061 64.5435 15.0875 64.5432 14.9023 64.5664C14.7101 64.5905 14.498 64.6476 14.2734 64.7256C13.824 64.8817 13.2547 65.1461 12.5664 65.502C11.2994 66.1572 10.1017 67.2125 9.21973 68.335C8.35146 69.4401 7.72168 70.6976 7.72168 71.7686C7.72174 72.3786 8.00118 73.0348 8.4082 73.6641C8.82287 74.3051 9.40569 74.974 10.0928 75.6201C11.4662 76.9116 13.3028 78.1579 15.1748 78.9512C16.8039 79.6416 21.0609 81.165 24.6367 82.3379C26.4097 82.9198 28.2524 83.6203 29.79 84.2793C31.3457 84.9461 32.5393 85.5488 33.0518 85.9307C33.5161 86.2768 34.139 86.8741 34.9531 87.6309C35.7533 88.3747 36.7099 89.2451 37.8027 90.0918C38.974 90.9992 40.3142 91.8866 41.8018 92.5684C39.9299 92.3421 37.5893 91.9976 35.0947 91.5811C29.3769 90.6264 22.9002 89.3027 19.4229 88.1797C11.2588 85.5436 5.61994 82.3308 2.7334 78.96C1.29725 77.2828 0.563224 75.5913 0.503906 73.9277C0.44485 72.2681 1.05507 70.5674 2.43652 68.8613C5.54129 65.0269 11.5903 61.7168 20.3594 59.0898C29.1098 56.4685 40.4938 54.5487 54.1777 53.4404L59.4785 53.0107L59.7744 52.9873L59.8945 52.7148L61.5205 49.041C62.5569 46.6985 63.2801 44.838 63.8076 42.376C64.333 39.9236 64.6619 36.8893 64.9326 32.1963C65.0484 30.1838 65.7994 26.0788 66.5322 22.4395C66.8447 20.8875 67.1533 19.4295 67.4023 18.2695L69.6738 32.2217ZM53.3809 59.3447L50.4561 59.374C48.8058 59.3901 45.1183 59.8265 42.25 60.3389C35.9033 61.4724 31.3539 62.9958 29.0508 64.6943C27.9049 65.5394 27.1873 66.5255 27.2734 67.626C27.3586 68.713 28.2121 69.6638 29.5713 70.4844C30.4253 70.9998 31.0443 71.3124 32.0107 71.3027C32.9087 71.2937 34.1037 71.0051 36.1289 70.4785C42.152 68.9128 46.5294 66.6781 50.4707 63.1357L53.7197 60.2158L54.7051 59.3311L53.3809 59.3447ZM67.708 1.79199C68.1229 2.75523 68.6758 4.05245 69.2285 5.38965C69.7816 6.72787 70.333 8.10173 70.7451 9.21973C70.9514 9.77917 71.1202 10.2691 71.2373 10.6553C71.3618 11.0661 71.4062 11.2955 71.4062 11.3721C71.4062 11.5507 71.2978 11.8772 71.0234 12.3154C70.7613 12.734 70.3881 13.1915 69.96 13.6162C69.5316 14.0411 69.0604 14.4201 68.6094 14.6895C68.1476 14.9652 67.7566 15.0966 67.4746 15.0967C67.0708 15.0967 66.605 14.9379 66.1113 14.6436C65.6224 14.3519 65.1391 13.946 64.71 13.502C64.2812 13.0583 63.918 12.5889 63.666 12.1807C63.54 11.9765 63.4465 11.795 63.3857 11.6455C63.3213 11.4871 63.3086 11.3994 63.3086 11.3721C63.3086 11.3821 63.3108 11.3397 63.3447 11.2109C63.3748 11.0967 63.4205 10.9469 63.4824 10.7637C63.6062 10.3975 63.7854 9.92019 64.0029 9.36719C64.4376 8.26245 65.018 6.87671 65.6006 5.51758C66.1828 4.15924 66.7661 2.8308 67.2031 1.8418C67.2993 1.62405 67.3882 1.42268 67.4688 1.24121C67.5414 1.40893 67.6224 1.59315 67.708 1.79199Z" fill="#49903E" fill-opacity="0.15" stroke="#083720"/>
</svg>
