<svg width="74" height="125" viewBox="0 0 74 125" fill="none" xmlns="http://www.w3.org/2000/svg">
<path d="M20.8193 67.584C21.9099 67.6222 22.94 68.0854 23.6846 68.8711V68.8721C24.4253 69.6624 24.8187 70.7094 24.7803 71.7842C24.7417 72.8591 24.2734 73.8766 23.4775 74.6133C18.8851 78.5621 15.196 83.4345 12.6562 88.9053C10.1138 94.3821 8.78214 100.333 8.75 106.36V106.362C8.75 107.374 8.36914 108.348 7.68457 109.096L7.54395 109.242C7.40334 109.381 7.31674 109.584 7.25977 109.739C7.19415 109.918 7.13173 110.14 7.07129 110.388C6.95007 110.885 6.82711 111.538 6.70215 112.283C6.45205 113.774 6.18676 115.683 5.91309 117.548C5.63821 119.421 5.35446 121.251 5.06445 122.609C4.92278 123.273 4.7828 123.803 4.64941 124.166C4.51459 123.803 4.37364 123.273 4.22949 122.608C3.93462 121.249 3.64374 119.419 3.3623 117.546C3.08215 115.681 2.81065 113.773 2.55566 112.282C2.4282 111.537 2.30338 110.884 2.18066 110.386C2.11951 110.138 2.05621 109.917 1.99023 109.738C1.94725 109.622 1.88779 109.479 1.80176 109.356L1.70605 109.242L1.56543 109.096C0.881622 108.349 0.500869 107.376 0.5 106.366C0.544843 99.2297 2.11435 92.1824 5.10547 85.6875C8.09659 79.1927 12.4423 73.3967 17.8574 68.6787L17.8662 68.6699C18.6657 67.9367 19.7277 67.5457 20.8193 67.584ZM69.3867 0.692383C69.5158 0.945466 69.6551 1.33288 69.8008 1.83594C70.0903 2.83616 70.376 4.19047 70.6543 5.59277C70.9304 6.98428 71.1991 8.42429 71.4521 9.5625C71.5788 10.132 71.7042 10.6401 71.8281 11.0371C71.8899 11.2351 71.9547 11.4153 72.0225 11.5664C72.0849 11.7056 72.1708 11.8683 72.293 11.9893C73.066 12.7538 73.499 13.7902 73.499 14.8691C73.4989 39.3118 56.5705 53.6826 46.2598 60.1934L45.5859 60.6191L46.2627 61.04C52.8032 65.1085 58.567 70.2862 63.2881 76.335V76.3359C66.4359 80.4561 68.9079 85.0413 70.6133 89.9219L70.6182 89.9336C71.4199 92.0494 72.0469 94.2262 72.4922 96.4424V96.4473C73.178 99.7077 73.5155 103.03 73.499 106.36V106.362C73.499 107.374 73.119 108.348 72.4346 109.096L72.293 109.242C72.1526 109.381 72.0669 109.584 72.0098 109.739C71.944 109.918 71.8811 110.139 71.8203 110.387C71.6983 110.884 71.5735 111.537 71.4473 112.282C71.1947 113.773 70.9263 115.682 70.6494 117.547C70.3713 119.42 70.0844 121.25 69.792 122.608C69.649 123.273 69.5082 123.803 69.374 124.166C69.2399 123.803 69.0999 123.272 68.957 122.608C68.6646 121.25 68.3777 119.42 68.0996 117.547C67.8227 115.682 67.5543 113.773 67.3018 112.282C67.1755 111.537 67.0507 110.884 66.9287 110.387C66.8679 110.139 66.8051 109.918 66.7393 109.739C66.6964 109.623 66.6379 109.479 66.5518 109.356L66.4561 109.242L66.3145 109.096C65.63 108.348 65.249 107.374 65.249 106.362C65.2502 104.813 65.1572 103.265 64.9688 101.728L64.9141 101.288H23.125C22.0293 101.288 20.9792 100.858 20.2061 100.093C19.4331 99.3282 19 98.2918 19 97.2129C19.0001 96.1342 19.4332 95.0985 20.2061 94.334C20.9792 93.5692 22.0292 93.1387 23.125 93.1387H62.8232L62.584 92.4707C61.4157 89.2047 59.8437 86.0938 57.9033 83.21L57.7549 82.9893H37C35.9043 82.9893 34.8542 82.5587 34.0811 81.7939C33.3082 81.0295 32.8751 79.9938 32.875 78.915C32.875 77.8361 33.3081 76.7997 34.0811 76.0352C34.8542 75.2704 35.9043 74.8398 37 74.8398H50.793L49.8213 73.9678C45.511 70.0981 40.6565 66.8665 35.4102 64.373L35.3994 64.3672L35.3877 64.3623L34.7686 64.0898C32.519 63.0614 24.892 59.2708 17.4023 52.2451C8.84808 44.2207 0.500106 32.004 0.5 14.8691C0.5 13.7902 0.933068 12.7538 1.70605 11.9893C1.82805 11.8686 1.91389 11.7065 1.97656 11.5674C2.04462 11.4162 2.10968 11.2352 2.17188 11.0371C2.29644 10.6403 2.42298 10.1328 2.55078 9.56348C2.80629 8.42528 3.07903 6.98532 3.3584 5.59375C3.63992 4.19146 3.92875 2.83717 4.2207 1.83691C4.36762 1.33361 4.50787 0.945547 4.6377 0.692383C4.64151 0.684944 4.64571 0.677932 4.64941 0.670898C4.65295 0.677673 4.6575 0.684256 4.66113 0.691406C4.78963 0.944385 4.92873 1.33159 5.07324 1.83496C5.36038 2.83515 5.64201 4.18947 5.91699 5.5918C6.18986 6.98337 6.45644 8.42323 6.70703 9.56152C6.83241 10.131 6.95692 10.6391 7.08008 11.0361C7.14152 11.2342 7.20578 11.4151 7.27344 11.5664C7.33576 11.7057 7.42154 11.8682 7.54395 11.9893C8.2686 12.706 8.69467 13.6614 8.74512 14.667L8.75 14.8691C8.74747 16.4186 8.84139 17.9669 9.03125 19.5049L9.08496 19.9434H50.875C51.9705 19.9435 53.0199 20.3742 53.793 21.1387C54.566 21.9033 55 22.9397 55 24.0186C54.9999 25.0973 54.5659 26.133 53.793 26.8975C53.0199 27.662 51.9705 28.0927 50.875 28.0928H11.0801L11.3232 28.7637C12.5046 32.0225 14.0762 35.1296 16.0029 38.0195L16.1514 38.2422H37C38.0955 38.2423 39.1449 38.673 39.918 39.4375C40.691 40.2021 41.125 41.2385 41.125 42.3174C41.1249 43.3961 40.6909 44.4318 39.918 45.1963C39.1449 45.9609 38.0955 46.3915 37 46.3916H23.25L24.2256 47.2646C28.0291 50.6673 32.2411 53.5947 36.7666 55.9805L36.9951 56.1006L37.2256 55.9844C43.762 52.6829 65.2488 39.8862 65.249 14.8691C65.249 13.7902 65.6831 12.7538 66.4561 11.9893C66.5782 11.8683 66.6641 11.7056 66.7266 11.5664C66.7944 11.4153 66.8591 11.2351 66.9209 11.0371C67.0448 10.6401 67.1703 10.132 67.2969 9.5625C67.5499 8.42429 67.8186 6.98427 68.0947 5.59277C68.373 4.19047 68.6587 2.83616 68.9482 1.83594C69.0939 1.33286 69.2332 0.94546 69.3623 0.692383C69.366 0.685089 69.3704 0.677802 69.374 0.670898C69.3777 0.677914 69.3829 0.684964 69.3867 0.692383Z" fill="#49903E" fill-opacity="0.15" stroke="#083720"/>
</svg>
