<svg width="106" height="108" viewBox="0 0 106 108" fill="none" xmlns="http://www.w3.org/2000/svg">
<path d="M101.656 2.71589C102.321 3.35528 102.779 4.1794 102.972 5.08245L103.46 4.9789L102.971 5.08315L102.973 5.09003C103.164 5.9286 105.454 16.7741 104.506 30.7202C103.557 44.6697 99.3746 61.6618 86.6801 74.8665C79.4716 82.3647 69.3821 86.2272 58.9567 86.4425C56.4259 86.4947 54.0105 85.5701 51.0396 84.6507C48.097 83.7401 44.7084 82.8775 40.3869 83.1863C33.0193 83.7128 23.0479 87.6338 7.93086 100.223C20.3359 86.1073 23.8135 76.0721 23.8542 68.3435C23.8781 63.7929 22.7088 60.0862 21.54 56.8866C20.952 55.2771 20.3758 53.8248 19.9334 52.4296C19.4932 51.0412 19.2013 49.7533 19.1779 48.5049C18.9829 38.0981 22.9297 28.0316 30.1506 20.5206C42.6311 7.53879 59.4268 2.6902 73.3756 1.13798C87.32 -0.413732 98.3553 1.33611 99.2356 1.49341L99.2391 1.49404C100.149 1.65069 100.991 2.07651 101.656 2.71589ZM94.037 10.1898C88.9816 9.72937 79.1755 9.24729 68.3918 11.2073C57.6098 13.167 45.8093 17.5754 36.8167 26.9292L36.816 26.9299C31.312 32.675 28.305 40.3636 28.4539 48.3112C28.5293 52.3345 30.6525 57.5763 36.1224 58.8345C38.836 59.4586 42.2997 59.0755 46.6269 57.1544C49.9289 55.6884 53.75 53.3182 58.1541 49.7886C51.2462 58.7489 49.1802 65.383 49.7939 69.9702C50.5139 75.3524 54.8792 77.7407 58.9778 77.6561C66.9251 77.4919 74.4894 74.1846 80.0133 68.4586L80.014 68.4579C89.0061 59.1043 92.9737 47.1302 94.521 36.2744C96.0685 25.4167 95.2008 15.6358 94.4867 10.6167L94.4313 10.2248L94.037 10.1898Z" fill="#49903E" fill-opacity="0.15" stroke="#083720"/>
</svg>
