<svg width="136" height="138" viewBox="0 0 136 138" fill="none" xmlns="http://www.w3.org/2000/svg">
<mask id="path-1-inside-1_758_12" fill="white">
<path d="M10.9102 63.3436C10.2471 64.2414 0.0502681 64.652 0.000185654 65.7665C-0.0498968 66.8811 10.049 68.6494 10.6289 69.605C11.2088 70.5606 12.0598 71.3239 13.0742 71.7985C14.0886 72.273 15.2209 72.4375 16.328 72.2711C17.435 72.1047 18.467 71.6148 19.2935 70.8635C20.12 70.1122 20.7039 69.1332 20.9712 68.0502C21.2386 66.9672 21.1775 65.829 20.7957 64.7794C20.4138 63.7298 19.7283 62.816 18.8259 62.1536C17.6159 61.2653 16.1021 60.8916 14.6176 61.1148C13.1331 61.3379 11.7996 62.1396 10.9102 63.3436ZM27.286 99.0195C26.3044 99.5591 25.505 100.377 24.9892 101.371C24.4733 102.364 24.2643 103.488 24.3885 104.599C24.5128 105.71 15.6056 113.912 16.328 114.765C17.0504 115.619 27.3698 109.088 28.4462 109.396C29.5226 109.704 30.6667 109.686 31.7334 109.344C32.8001 109.002 33.7415 108.351 34.4381 107.475C35.1347 106.598 35.5553 105.535 35.6464 104.42C35.7375 103.305 35.4952 102.189 34.95 101.212C34.2228 99.9098 33.0086 98.9481 31.5726 98.5372C30.1366 98.1263 28.5956 98.2997 27.286 99.0195ZM34.3575 38.3578C35.2579 37.6922 35.9403 36.7746 36.3183 35.7215C36.6962 34.6683 36.7526 33.527 36.4804 32.4421C36.2081 31.3573 35.6195 30.3778 34.789 29.6278C33.9585 28.8778 32.9237 28.3911 31.8156 28.2294C30.7076 28.0677 29.5762 28.2383 28.5649 28.7195C27.5537 29.2007 17.7967 24.0825 17.2239 25.0441C16.6511 26.0056 25.2884 33.0035 25.3477 34.1204C25.4069 35.2374 25.7969 36.3114 26.4681 37.2064C27.3636 38.4003 28.6959 39.1916 30.1741 39.4073C31.6523 39.623 33.1563 39.2457 34.3575 38.3578ZM68.4499 23.8712C69.5614 23.7472 70.611 23.2968 71.466 22.577C72.321 21.8571 72.9429 20.9001 73.2532 19.8269C73.5634 18.7537 73.5481 17.6126 73.2091 16.5479C72.87 15.4832 72.2226 14.5426 71.3485 13.8452C70.4745 13.1478 69.4806 0.0955641 68.3662 0.000523918C67.2517 -0.0945163 66.0667 12.7719 65.0875 13.3112C64.1083 13.8506 63.3113 14.668 62.7974 15.66C62.2834 16.652 62.0756 17.7741 62.2002 18.8843C62.3672 20.3731 63.1195 21.7349 64.2916 22.6701C65.4636 23.6053 66.9594 24.0374 68.4499 23.8712ZM100.363 99.4555C99.4237 100.066 98.6869 100.94 98.2457 101.969C97.8046 102.997 97.679 104.133 97.885 105.232C98.0909 106.332 98.6191 107.345 99.4026 108.144C100.186 108.942 101.189 109.49 102.286 109.719C103.382 109.947 104.522 109.845 105.56 109.425C106.599 109.006 115.821 115.691 116.451 114.765C117.081 113.84 109.091 105.347 109.099 104.228C109.108 103.11 108.784 102.014 108.168 101.08C107.346 99.8347 106.065 98.9646 104.602 98.6601C103.14 98.3557 101.616 98.6416 100.363 99.4555ZM118.021 63.4844C116.902 63.4844 115.809 63.8157 114.879 64.4363C113.949 65.057 113.224 65.9392 112.796 66.9713C112.368 68.0035 112.256 69.1392 112.475 70.2349C112.693 71.3306 113.231 72.3371 114.022 73.127C114.813 73.917 115.821 74.455 116.918 74.6729C118.015 74.8909 119.152 74.779 120.185 74.3515C121.218 73.924 122.101 73.2 122.723 72.2711C123.344 71.3422 136 70.2501 136 69.1329C136 67.6348 123.08 66.1981 122.02 65.1388C120.959 64.0795 119.521 63.4844 118.021 63.4844ZM99.1335 29.1978C98.3393 29.9865 97.7973 30.9929 97.5764 32.0895C97.3555 33.1861 97.4655 34.3236 97.8925 35.3577C98.3195 36.3917 99.0443 37.2759 99.975 37.8981C100.906 38.5202 102 38.8524 103.12 38.8524C104.24 38.8524 105.335 38.5202 106.265 37.8981C107.196 37.2759 107.921 36.3917 108.348 35.3577C108.775 34.3236 108.885 33.1861 108.664 32.0895C108.443 30.9929 117.245 21.2464 116.451 20.4578C115.391 19.4057 104.614 27.5553 103.12 27.5553C101.626 27.5553 100.193 28.1458 99.1335 29.1978ZM65.5164 114.432C64.4086 114.585 63.3713 115.063 62.5358 115.805C61.7002 116.547 61.1039 117.521 60.8222 118.602C60.5405 119.683 60.5862 120.823 60.9533 121.878C61.3205 122.934 61.9927 123.857 62.8849 124.531C63.7772 125.205 64.5079 137.934 65.6245 138C66.7411 138.065 68.1934 125.465 69.1579 124.899C70.1225 124.334 70.8975 123.496 71.3849 122.491C71.8724 121.486 72.0503 120.359 71.8963 119.252C71.6898 117.768 70.9016 116.427 69.7052 115.523C68.5087 114.619 67.002 114.227 65.5164 114.432ZM67.1266 35.2418C60.416 35.2418 53.8561 37.2295 48.2764 40.9535C42.6967 44.6775 38.3479 49.9705 35.7799 56.1633C33.2118 62.3561 32.5399 69.1705 33.8491 75.7448C35.1582 82.319 38.3897 88.3579 43.1348 93.0976C47.88 97.8374 53.9256 101.065 60.5073 102.373C67.089 103.681 73.9111 103.009 80.1109 100.444C86.3107 97.8791 91.6097 93.5352 95.338 87.9619C99.0662 82.3885 101.056 75.836 101.056 69.1329C101.056 60.1444 97.4814 51.5241 91.1184 45.1683C84.7554 38.8124 76.1253 35.2418 67.1266 35.2418ZM67.1266 91.727C62.6529 91.727 58.2796 90.4019 54.5598 87.9192C50.84 85.4366 47.9408 81.9079 46.2288 77.7793C44.5168 73.6508 44.0688 69.1079 44.9416 64.725C45.8144 60.3422 47.9687 56.3163 51.1321 53.1565C54.2955 49.9966 58.326 47.8448 62.7137 46.973C67.1015 46.1012 71.6496 46.5486 75.7828 48.2587C79.916 49.9688 83.4487 52.8647 85.9341 56.5803C88.4196 60.2959 89.7463 64.6642 89.7463 69.1329C89.7463 75.1253 87.3631 80.8722 83.1211 85.1094C78.8791 89.3466 73.1257 91.727 67.1266 91.727Z"/>
</mask>
<path d="M10.9102 63.3436C10.2471 64.2414 0.0502681 64.652 0.000185654 65.7665C-0.0498968 66.8811 10.049 68.6494 10.6289 69.605C11.2088 70.5606 12.0598 71.3239 13.0742 71.7985C14.0886 72.273 15.2209 72.4375 16.328 72.2711C17.435 72.1047 18.467 71.6148 19.2935 70.8635C20.12 70.1122 20.7039 69.1332 20.9712 68.0502C21.2386 66.9672 21.1775 65.829 20.7957 64.7794C20.4138 63.7298 19.7283 62.816 18.8259 62.1536C17.6159 61.2653 16.1021 60.8916 14.6176 61.1148C13.1331 61.3379 11.7996 62.1396 10.9102 63.3436ZM27.286 99.0195C26.3044 99.5591 25.505 100.377 24.9892 101.371C24.4733 102.364 24.2643 103.488 24.3885 104.599C24.5128 105.71 15.6056 113.912 16.328 114.765C17.0504 115.619 27.3698 109.088 28.4462 109.396C29.5226 109.704 30.6667 109.686 31.7334 109.344C32.8001 109.002 33.7415 108.351 34.4381 107.475C35.1347 106.598 35.5553 105.535 35.6464 104.42C35.7375 103.305 35.4952 102.189 34.95 101.212C34.2228 99.9098 33.0086 98.9481 31.5726 98.5372C30.1366 98.1263 28.5956 98.2997 27.286 99.0195ZM34.3575 38.3578C35.2579 37.6922 35.9403 36.7746 36.3183 35.7215C36.6962 34.6683 36.7526 33.527 36.4804 32.4421C36.2081 31.3573 35.6195 30.3778 34.789 29.6278C33.9585 28.8778 32.9237 28.3911 31.8156 28.2294C30.7076 28.0677 29.5762 28.2383 28.5649 28.7195C27.5537 29.2007 17.7967 24.0825 17.2239 25.0441C16.6511 26.0056 25.2884 33.0035 25.3477 34.1204C25.4069 35.2374 25.7969 36.3114 26.4681 37.2064C27.3636 38.4003 28.6959 39.1916 30.1741 39.4073C31.6523 39.623 33.1563 39.2457 34.3575 38.3578ZM68.4499 23.8712C69.5614 23.7472 70.611 23.2968 71.466 22.577C72.321 21.8571 72.9429 20.9001 73.2532 19.8269C73.5634 18.7537 73.5481 17.6126 73.2091 16.5479C72.87 15.4832 72.2226 14.5426 71.3485 13.8452C70.4745 13.1478 69.4806 0.0955641 68.3662 0.000523918C67.2517 -0.0945163 66.0667 12.7719 65.0875 13.3112C64.1083 13.8506 63.3113 14.668 62.7974 15.66C62.2834 16.652 62.0756 17.7741 62.2002 18.8843C62.3672 20.3731 63.1195 21.7349 64.2916 22.6701C65.4636 23.6053 66.9594 24.0374 68.4499 23.8712ZM100.363 99.4555C99.4237 100.066 98.6869 100.94 98.2457 101.969C97.8046 102.997 97.679 104.133 97.885 105.232C98.0909 106.332 98.6191 107.345 99.4026 108.144C100.186 108.942 101.189 109.49 102.286 109.719C103.382 109.947 104.522 109.845 105.56 109.425C106.599 109.006 115.821 115.691 116.451 114.765C117.081 113.84 109.091 105.347 109.099 104.228C109.108 103.11 108.784 102.014 108.168 101.08C107.346 99.8347 106.065 98.9646 104.602 98.6601C103.14 98.3557 101.616 98.6416 100.363 99.4555ZM118.021 63.4844C116.902 63.4844 115.809 63.8157 114.879 64.4363C113.949 65.057 113.224 65.9392 112.796 66.9713C112.368 68.0035 112.256 69.1392 112.475 70.2349C112.693 71.3306 113.231 72.3371 114.022 73.127C114.813 73.917 115.821 74.455 116.918 74.6729C118.015 74.8909 119.152 74.779 120.185 74.3515C121.218 73.924 122.101 73.2 122.723 72.2711C123.344 71.3422 136 70.2501 136 69.1329C136 67.6348 123.08 66.1981 122.02 65.1388C120.959 64.0795 119.521 63.4844 118.021 63.4844ZM99.1335 29.1978C98.3393 29.9865 97.7973 30.9929 97.5764 32.0895C97.3555 33.1861 97.4655 34.3236 97.8925 35.3577C98.3195 36.3917 99.0443 37.2759 99.975 37.8981C100.906 38.5202 102 38.8524 103.12 38.8524C104.24 38.8524 105.335 38.5202 106.265 37.8981C107.196 37.2759 107.921 36.3917 108.348 35.3577C108.775 34.3236 108.885 33.1861 108.664 32.0895C108.443 30.9929 117.245 21.2464 116.451 20.4578C115.391 19.4057 104.614 27.5553 103.12 27.5553C101.626 27.5553 100.193 28.1458 99.1335 29.1978ZM65.5164 114.432C64.4086 114.585 63.3713 115.063 62.5358 115.805C61.7002 116.547 61.1039 117.521 60.8222 118.602C60.5405 119.683 60.5862 120.823 60.9533 121.878C61.3205 122.934 61.9927 123.857 62.8849 124.531C63.7772 125.205 64.5079 137.934 65.6245 138C66.7411 138.065 68.1934 125.465 69.1579 124.899C70.1225 124.334 70.8975 123.496 71.3849 122.491C71.8724 121.486 72.0503 120.359 71.8963 119.252C71.6898 117.768 70.9016 116.427 69.7052 115.523C68.5087 114.619 67.002 114.227 65.5164 114.432ZM67.1266 35.2418C60.416 35.2418 53.8561 37.2295 48.2764 40.9535C42.6967 44.6775 38.3479 49.9705 35.7799 56.1633C33.2118 62.3561 32.5399 69.1705 33.8491 75.7448C35.1582 82.319 38.3897 88.3579 43.1348 93.0976C47.88 97.8374 53.9256 101.065 60.5073 102.373C67.089 103.681 73.9111 103.009 80.1109 100.444C86.3107 97.8791 91.6097 93.5352 95.338 87.9619C99.0662 82.3885 101.056 75.836 101.056 69.1329C101.056 60.1444 97.4814 51.5241 91.1184 45.1683C84.7554 38.8124 76.1253 35.2418 67.1266 35.2418ZM67.1266 91.727C62.6529 91.727 58.2796 90.4019 54.5598 87.9192C50.84 85.4366 47.9408 81.9079 46.2288 77.7793C44.5168 73.6508 44.0688 69.1079 44.9416 64.725C45.8144 60.3422 47.9687 56.3163 51.1321 53.1565C54.2955 49.9966 58.326 47.8448 62.7137 46.973C67.1015 46.1012 71.6496 46.5486 75.7828 48.2587C79.916 49.9688 83.4487 52.8647 85.9341 56.5803C88.4196 60.2959 89.7463 64.6642 89.7463 69.1329C89.7463 75.1253 87.3631 80.8722 83.1211 85.1094C78.8791 89.3466 73.1257 91.727 67.1266 91.727Z" fill="#49903E" fill-opacity="0.15" stroke="#083720" stroke-width="2" mask="url(#path-1-inside-1_758_12)"/>
</svg>
