<svg width="60" height="605" viewBox="0 0 60 605" fill="none" xmlns="http://www.w3.org/2000/svg">
<path d="M44 8C44 12.4183 47.5817 16 52 16C56.4183 16 60 12.4183 60 8C60 3.58172 56.4183 0 52 0C47.5817 0 44 3.58172 44 8ZM44 597C44 601.418 47.5817 605 52 605C56.4183 605 60 601.418 60 597C60 592.582 56.4183 589 52 589C47.5817 589 44 592.582 44 597ZM52 8H50.5V597H52H53.5V8H52Z" fill="#F57C11"/>
<path d="M0 109.721C0 114.139 3.58172 117.721 8 117.721C12.4183 117.721 16 114.139 16 109.721C16 105.302 12.4183 101.721 8 101.721C3.58172 101.721 0 105.302 0 109.721ZM0 495.278C0 499.696 3.58172 503.278 8 503.278C12.4183 503.278 16 499.696 16 495.278C16 490.859 12.4183 487.278 8 487.278C3.58172 487.278 0 490.859 0 495.278ZM8 109.721H6.5V495.278H8H9.5V109.721H8Z" fill="#49903E" fill-opacity="0.6"/>
</svg>
