<svg width="60" height="606" viewBox="0 0 60 606" fill="none" xmlns="http://www.w3.org/2000/svg">
<path d="M16 8C16 12.4183 12.4183 16 8 16C3.58172 16 0 12.4183 0 8C0 3.58172 3.58172 0 8 0C12.4183 0 16 3.58172 16 8ZM16 597.424C16 601.843 12.4183 605.424 8 605.424C3.58172 605.424 0 601.843 0 597.424C0 593.006 3.58172 589.424 8 589.424C12.4183 589.424 16 593.006 16 597.424ZM8 8H9.5V597.424H8H6.5V8H8Z" fill="#F57C11"/>
<path d="M60 109.795C60 114.213 56.4183 117.795 52 117.795C47.5817 117.795 44 114.213 44 109.795C44 105.377 47.5817 101.795 52 101.795C56.4183 101.795 60 105.377 60 109.795ZM60 495.63C60 500.048 56.4183 503.63 52 503.63C47.5817 503.63 44 500.048 44 495.63C44 491.211 47.5817 487.63 52 487.63C56.4183 487.63 60 491.211 60 495.63ZM52 109.795H53.5V495.63H52H50.5V109.795H52Z" fill="#49903E" fill-opacity="0.6"/>
</svg>
