<svg width="60" height="734" viewBox="0 0 60 734" fill="none" xmlns="http://www.w3.org/2000/svg">
<path d="M44 8C44 12.4183 47.5817 16 52 16C56.4183 16 60 12.4183 60 8C60 3.58172 56.4183 0 52 0C47.5817 0 44 3.58172 44 8ZM44 726C44 730.418 47.5817 734 52 734C56.4183 734 60 730.418 60 726C60 721.582 56.4183 718 52 718C47.5817 718 44 721.582 44 726ZM52 8H50.5V726H52H53.5V8H52Z" fill="#3E908D" fill-opacity="0.6"/>
<path d="M0 132C0 136.418 3.58172 140 8 140C12.4183 140 16 136.418 16 132C16 127.582 12.4183 124 8 124C3.58172 124 0 127.582 0 132ZM0 602C0 606.418 3.58172 610 8 610C12.4183 610 16 606.418 16 602C16 597.582 12.4183 594 8 594C3.58172 594 0 597.582 0 602ZM8 132H6.5V602H8H9.5V132H8Z" fill="#3E908D" fill-opacity="0.6"/>
</svg>
