<svg width="60" height="734" viewBox="0 0 60 734" fill="none" xmlns="http://www.w3.org/2000/svg">
<path d="M16 8C16 12.4183 12.4183 16 8 16C3.58172 16 0 12.4183 0 8C0 3.58172 3.58172 0 8 0C12.4183 0 16 3.58172 16 8ZM16 726C16 730.418 12.4183 734 8 734C3.58172 734 0 730.418 0 726C0 721.582 3.58172 718 8 718C12.4183 718 16 721.582 16 726ZM8 8H9.5V726H8H6.5V8H8Z" fill="#3E908D" fill-opacity="0.6"/>
<path d="M60 132C60 136.418 56.4183 140 52 140C47.5817 140 44 136.418 44 132C44 127.582 47.5817 124 52 124C56.4183 124 60 127.582 60 132ZM60 602C60 606.418 56.4183 610 52 610C47.5817 610 44 606.418 44 602C44 597.582 47.5817 594 52 594C56.4183 594 60 597.582 60 602ZM52 132H53.5V602H52H50.5V132H52Z" fill="#3E908D" fill-opacity="0.6"/>
</svg>
