<svg width="509" height="16" viewBox="0 0 509 16" fill="none" xmlns="http://www.w3.org/2000/svg">
<path d="M501.001 16C496.583 16 493.001 12.4183 493.001 8C493.001 3.58172 496.583 0 501.001 0C505.419 0 509.001 3.58172 509.001 8C509.001 12.4183 505.419 16 501.001 16ZM7.99997 16C3.5817 16 -3.05176e-05 12.4183 -3.05176e-05 8C-3.05176e-05 3.58172 3.5817 0 7.99997 0C12.4183 0 16 3.58172 16 8C16 12.4183 12.4183 16 7.99997 16ZM501.001 8V9.5L7.99997 9.5V8V6.5L501.001 6.5V8Z" fill="#49903E" fill-opacity="0.6"/>
</svg>
